<?xml version="1.0" encoding="UTF-8" standalone="no"?>
<!DOCTYPE svg PUBLIC "-//W3C//DTD SVG 1.1//EN"
 "http://www.w3.org/Graphics/SVG/1.1/DTD/svg11.dtd">
<!-- Generated by graphviz version 2.38.0 (20140413.2041)
 -->
<!-- Title: Ogre::HardwareBufferManager Pages: 1 -->
<svg width="664pt" height="421pt"
 viewBox="0.00 0.00 664.00 420.50" xmlns="http://www.w3.org/2000/svg" xmlns:xlink="http://www.w3.org/1999/xlink">
<g id="graph0" class="graph" transform="scale(1 1) rotate(0) translate(4 416.5)">
<title>Ogre::HardwareBufferManager</title>
<!-- Node1 -->
<g id="node1" class="node"><title>Node1</title>
<polygon fill="#bfbfbf" stroke="black" points="309,-191.5 309,-210.5 458,-210.5 458,-191.5 309,-191.5"/>
<text text-anchor="middle" x="383.5" y="-198.5" font-family="Helvetica,sans-Serif" font-size="10.00">Ogre::HardwareBufferManager</text>
</g>
<!-- Node5 -->
<g id="node5" class="node"><title>Node5</title>
<g id="a_node5"><a xlink:href="class_ogre_1_1_d3_d11_hardware_buffer_manager.html" target="_top" xlink:title="D3D11HardwareBufferManagerBase as a Singleton. ">
<polygon fill="none" stroke="black" points="503.5,-382 503.5,-412 646.5,-412 646.5,-382 503.5,-382"/>
<text text-anchor="start" x="511.5" y="-400" font-family="Helvetica,sans-Serif" font-size="10.00">Ogre::D3D11HardwareBuffer</text>
<text text-anchor="middle" x="575" y="-389" font-family="Helvetica,sans-Serif" font-size="10.00">Manager</text>
</a>
</g>
</g>
<!-- Node1&#45;&gt;Node5 -->
<g id="edge4" class="edge"><title>Node1&#45;&gt;Node5</title>
<path fill="none" stroke="midnightblue" d="M391.617,-220.623C405.586,-256.367 440.018,-332.161 494,-373 498.51,-376.412 503.502,-379.341 508.726,-381.856"/>
<polygon fill="midnightblue" stroke="midnightblue" points="394.75,-219.014 387.939,-210.898 388.203,-221.49 394.75,-219.014"/>
</g>
<!-- Node6 -->
<g id="node6" class="node"><title>Node6</title>
<g id="a_node6"><a xlink:href="class_ogre_1_1_d3_d9_hardware_buffer_manager.html" target="_top" xlink:title="D3D9HardwareBufferManagerBase as a Singleton. ">
<polygon fill="none" stroke="black" points="506.5,-333 506.5,-363 643.5,-363 643.5,-333 506.5,-333"/>
<text text-anchor="start" x="514.5" y="-351" font-family="Helvetica,sans-Serif" font-size="10.00">Ogre::D3D9HardwareBuffer</text>
<text text-anchor="middle" x="575" y="-340" font-family="Helvetica,sans-Serif" font-size="10.00">Manager</text>
</a>
</g>
</g>
<!-- Node1&#45;&gt;Node6 -->
<g id="edge5" class="edge"><title>Node1&#45;&gt;Node6</title>
<path fill="none" stroke="midnightblue" d="M395.779,-219.062C413.453,-245.891 450.219,-296.097 494,-324 499.38,-327.429 505.274,-330.388 511.347,-332.938"/>
<polygon fill="midnightblue" stroke="midnightblue" points="398.701,-217.134 390.343,-210.622 392.816,-220.924 398.701,-217.134"/>
</g>
<!-- Node7 -->
<g id="node7" class="node"><title>Node7</title>
<g id="a_node7"><a xlink:href="class_ogre_1_1_default_hardware_buffer_manager.html" target="_top" xlink:title="DefaultHardwareBufferManager as a Singleton. ">
<polygon fill="none" stroke="black" points="503.5,-284 503.5,-314 646.5,-314 646.5,-284 503.5,-284"/>
<text text-anchor="start" x="511.5" y="-302" font-family="Helvetica,sans-Serif" font-size="10.00">Ogre::DefaultHardwareBuffer</text>
<text text-anchor="middle" x="575" y="-291" font-family="Helvetica,sans-Serif" font-size="10.00">Manager</text>
</a>
</g>
</g>
<!-- Node1&#45;&gt;Node7 -->
<g id="edge6" class="edge"><title>Node1&#45;&gt;Node7</title>
<path fill="none" stroke="midnightblue" d="M404.131,-216.979C425.23,-233.481 460.292,-259.012 494,-275 500.944,-278.293 508.441,-281.252 515.966,-283.873"/>
<polygon fill="midnightblue" stroke="midnightblue" points="406.255,-214.196 396.246,-210.721 401.903,-219.679 406.255,-214.196"/>
</g>
<!-- Node8 -->
<g id="node8" class="node"><title>Node8</title>
<g id="a_node8"><a xlink:href="class_ogre_1_1_g_l3_plus_default_hardware_buffer_manager.html" target="_top" xlink:title="GL3PlusDefaultHardwareBufferManagerBase as a Singleton. ">
<polygon fill="none" stroke="black" points="497.5,-235 497.5,-265 652.5,-265 652.5,-235 497.5,-235"/>
<text text-anchor="start" x="505.5" y="-253" font-family="Helvetica,sans-Serif" font-size="10.00">Ogre::GL3PlusDefaultHardware</text>
<text text-anchor="middle" x="575" y="-242" font-family="Helvetica,sans-Serif" font-size="10.00">BufferManager</text>
</a>
</g>
</g>
<!-- Node1&#45;&gt;Node8 -->
<g id="edge7" class="edge"><title>Node1&#45;&gt;Node8</title>
<path fill="none" stroke="midnightblue" d="M431.302,-213.102C456.85,-219.708 488.714,-227.947 515.847,-234.963"/>
<polygon fill="midnightblue" stroke="midnightblue" points="432.045,-209.679 421.487,-210.564 430.293,-216.456 432.045,-209.679"/>
</g>
<!-- Node9 -->
<g id="node9" class="node"><title>Node9</title>
<g id="a_node9"><a xlink:href="class_ogre_1_1_g_l3_plus_hardware_buffer_manager.html" target="_top" xlink:title="GL3PlusHardwareBufferManagerBase as a Singleton. ">
<polygon fill="none" stroke="black" points="500.5,-186 500.5,-216 649.5,-216 649.5,-186 500.5,-186"/>
<text text-anchor="start" x="508.5" y="-204" font-family="Helvetica,sans-Serif" font-size="10.00">Ogre::GL3PlusHardwareBuffer</text>
<text text-anchor="middle" x="575" y="-193" font-family="Helvetica,sans-Serif" font-size="10.00">Manager</text>
</a>
</g>
</g>
<!-- Node1&#45;&gt;Node9 -->
<g id="edge8" class="edge"><title>Node1&#45;&gt;Node9</title>
<path fill="none" stroke="midnightblue" d="M468.184,-201C478.847,-201 489.7,-201 500.192,-201"/>
<polygon fill="midnightblue" stroke="midnightblue" points="468.037,-197.5 458.037,-201 468.037,-204.5 468.037,-197.5"/>
</g>
<!-- Node10 -->
<g id="node10" class="node"><title>Node10</title>
<g id="a_node10"><a xlink:href="class_ogre_1_1_g_l_default_hardware_buffer_manager.html" target="_top" xlink:title="GLDefaultHardwareBufferManagerBase as a Singleton. ">
<polygon fill="none" stroke="black" points="497,-137 497,-167 653,-167 653,-137 497,-137"/>
<text text-anchor="start" x="505" y="-155" font-family="Helvetica,sans-Serif" font-size="10.00">Ogre::GLDefaultHardwareBuffer</text>
<text text-anchor="middle" x="575" y="-144" font-family="Helvetica,sans-Serif" font-size="10.00">Manager</text>
</a>
</g>
</g>
<!-- Node1&#45;&gt;Node10 -->
<g id="edge9" class="edge"><title>Node1&#45;&gt;Node10</title>
<path fill="none" stroke="midnightblue" d="M431.302,-188.898C456.85,-182.292 488.714,-174.053 515.847,-167.037"/>
<polygon fill="midnightblue" stroke="midnightblue" points="430.293,-185.544 421.487,-191.436 432.045,-192.321 430.293,-185.544"/>
</g>
<!-- Node11 -->
<g id="node11" class="node"><title>Node11</title>
<g id="a_node11"><a xlink:href="class_ogre_1_1_g_l_e_s2_default_hardware_buffer_manager.html" target="_top" xlink:title="GLES2DefaultHardwareBufferManagerBase as a Singleton. ">
<polygon fill="none" stroke="black" points="500.5,-88 500.5,-118 649.5,-118 649.5,-88 500.5,-88"/>
<text text-anchor="start" x="508.5" y="-106" font-family="Helvetica,sans-Serif" font-size="10.00">Ogre::GLES2DefaultHardware</text>
<text text-anchor="middle" x="575" y="-95" font-family="Helvetica,sans-Serif" font-size="10.00">BufferManager</text>
</a>
</g>
</g>
<!-- Node1&#45;&gt;Node11 -->
<g id="edge10" class="edge"><title>Node1&#45;&gt;Node11</title>
<path fill="none" stroke="midnightblue" d="M404.131,-185.021C425.23,-168.519 460.292,-142.988 494,-127 500.944,-123.707 508.441,-120.748 515.966,-118.127"/>
<polygon fill="midnightblue" stroke="midnightblue" points="401.903,-182.321 396.246,-191.279 406.255,-187.804 401.903,-182.321"/>
</g>
<!-- Node12 -->
<g id="node12" class="node"><title>Node12</title>
<g id="a_node12"><a xlink:href="class_ogre_1_1_g_l_e_s2_hardware_buffer_manager.html" target="_top" xlink:title="GLES2HardwareBufferManagerBase as a Singleton. ">
<polygon fill="none" stroke="black" points="503.5,-39 503.5,-69 646.5,-69 646.5,-39 503.5,-39"/>
<text text-anchor="start" x="511.5" y="-57" font-family="Helvetica,sans-Serif" font-size="10.00">Ogre::GLES2HardwareBuffer</text>
<text text-anchor="middle" x="575" y="-46" font-family="Helvetica,sans-Serif" font-size="10.00">Manager</text>
</a>
</g>
</g>
<!-- Node1&#45;&gt;Node12 -->
<g id="edge11" class="edge"><title>Node1&#45;&gt;Node12</title>
<path fill="none" stroke="midnightblue" d="M395.779,-182.938C413.453,-156.109 450.219,-105.903 494,-78 499.38,-74.5709 505.274,-71.6115 511.347,-69.0618"/>
<polygon fill="midnightblue" stroke="midnightblue" points="392.816,-181.076 390.343,-191.378 398.701,-184.866 392.816,-181.076"/>
</g>
<!-- Node13 -->
<g id="node13" class="node"><title>Node13</title>
<g id="a_node13"><a xlink:href="class_ogre_1_1_g_l_hardware_buffer_manager.html" target="_top" xlink:title="GLHardwareBufferManagerBase as a Singleton. ">
<polygon fill="none" stroke="black" points="494,-0.5 494,-19.5 656,-19.5 656,-0.5 494,-0.5"/>
<text text-anchor="middle" x="575" y="-7.5" font-family="Helvetica,sans-Serif" font-size="10.00">Ogre::GLHardwareBufferManager</text>
</a>
</g>
</g>
<!-- Node1&#45;&gt;Node13 -->
<g id="edge12" class="edge"><title>Node1&#45;&gt;Node13</title>
<path fill="none" stroke="midnightblue" d="M391.2,-181.585C404.675,-145.555 438.59,-68.4348 494,-29 499.466,-25.1097 505.622,-22.0074 512.03,-19.5349"/>
<polygon fill="midnightblue" stroke="midnightblue" points="387.775,-180.765 387.674,-191.36 394.36,-183.141 387.775,-180.765"/>
</g>
<!-- Node2 -->
<g id="node2" class="node"><title>Node2</title>
<g id="a_node2"><a xlink:href="class_ogre_1_1_hardware_buffer_manager_base.html" target="_top" xlink:title="Base definition of a hardware buffer manager. ">
<polygon fill="none" stroke="black" points="101,-213.5 101,-232.5 273,-232.5 273,-213.5 101,-213.5"/>
<text text-anchor="middle" x="187" y="-220.5" font-family="Helvetica,sans-Serif" font-size="10.00">Ogre::HardwareBufferManagerBase</text>
</a>
</g>
</g>
<!-- Node2&#45;&gt;Node1 -->
<g id="edge1" class="edge"><title>Node2&#45;&gt;Node1</title>
<path fill="none" stroke="midnightblue" d="M282.248,-212.34C291.193,-211.328 300.172,-210.312 308.882,-209.327"/>
<polygon fill="midnightblue" stroke="midnightblue" points="281.723,-208.877 272.179,-213.478 282.509,-215.832 281.723,-208.877"/>
</g>
<!-- Node3 -->
<g id="node3" class="node"><title>Node3</title>
<g id="a_node3"><a xlink:href="class_ogre_1_1_allocated_object.html" target="_top" xlink:title="Superclass for all objects that wish to use custom memory allocators when their new / delete operator...">
<polygon fill="none" stroke="black" points="0,-213.5 0,-232.5 65,-232.5 65,-213.5 0,-213.5"/>
<text text-anchor="middle" x="32.5" y="-220.5" font-family="Helvetica,sans-Serif" font-size="10.00">BufferAlloc</text>
</a>
</g>
</g>
<!-- Node3&#45;&gt;Node2 -->
<g id="edge2" class="edge"><title>Node3&#45;&gt;Node2</title>
<path fill="none" stroke="midnightblue" d="M75.2849,-223C83.3508,-223 92.0683,-223 100.947,-223"/>
<polygon fill="midnightblue" stroke="midnightblue" points="75.0981,-219.5 65.0981,-223 75.0981,-226.5 75.0981,-219.5"/>
</g>
<!-- Node4 -->
<g id="node4" class="node"><title>Node4</title>
<g id="a_node4"><a xlink:href="class_ogre_1_1_singleton.html" target="_top" xlink:title="Ogre::Singleton\&lt; Hardware\lBufferManager \&gt;">
<polygon fill="none" stroke="black" points="119.5,-164 119.5,-194 254.5,-194 254.5,-164 119.5,-164"/>
<text text-anchor="start" x="127.5" y="-182" font-family="Helvetica,sans-Serif" font-size="10.00">Ogre::Singleton&lt; Hardware</text>
<text text-anchor="middle" x="187" y="-171" font-family="Helvetica,sans-Serif" font-size="10.00">BufferManager &gt;</text>
</a>
</g>
</g>
<!-- Node4&#45;&gt;Node1 -->
<g id="edge3" class="edge"><title>Node4&#45;&gt;Node1</title>
<path fill="none" stroke="midnightblue" d="M264.637,-187.668C279.217,-189.318 294.444,-191.04 308.926,-192.678"/>
<polygon fill="midnightblue" stroke="midnightblue" points="264.994,-184.187 254.664,-186.54 264.207,-191.142 264.994,-184.187"/>
</g>
</g>
</svg>
