<?xml version="1.0" encoding="UTF-8" standalone="no"?>
<!DOCTYPE svg PUBLIC "-//W3C//DTD SVG 1.1//EN"
 "http://www.w3.org/Graphics/SVG/1.1/DTD/svg11.dtd">
<!-- Generated by graphviz version 2.38.0 (20140413.2041)
 -->
<!-- Title: Ogre::Resource Pages: 1 -->
<svg width="750pt" height="436pt"
 viewBox="0.00 0.00 750.00 436.00" xmlns="http://www.w3.org/2000/svg" xmlns:xlink="http://www.w3.org/1999/xlink">
<g id="graph0" class="graph" transform="scale(1 1) rotate(0) translate(4 432)">
<title>Ogre::Resource</title>
<!-- Node1 -->
<g id="node1" class="node"><title>Node1</title>
<polygon fill="#bfbfbf" stroke="black" points="143,-215.5 143,-234.5 229,-234.5 229,-215.5 143,-215.5"/>
<text text-anchor="middle" x="186" y="-222.5" font-family="Helvetica,sans-Serif" font-size="10.00">Ogre::Resource</text>
</g>
<!-- Node4 -->
<g id="node4" class="node"><title>Node4</title>
<g id="a_node4"><a xlink:href="class_ogre_1_1_bsp_level.html" target="_top" xlink:title="Holds all the data associated with a Binary Space Parition (BSP) based indoor level. ">
<polygon fill="none" stroke="black" points="272,-348.5 272,-367.5 356,-367.5 356,-348.5 272,-348.5"/>
<text text-anchor="middle" x="314" y="-355.5" font-family="Helvetica,sans-Serif" font-size="10.00">Ogre::BspLevel</text>
</a>
</g>
</g>
<!-- Node1&#45;&gt;Node4 -->
<g id="edge3" class="edge"><title>Node1&#45;&gt;Node4</title>
<path fill="none" stroke="midnightblue" d="M195.473,-243.818C207.58,-268.766 232.059,-312.697 265,-339 269.762,-342.803 275.382,-345.926 281.066,-348.462"/>
<polygon fill="midnightblue" stroke="midnightblue" points="198.602,-242.247 191.184,-234.682 192.266,-245.222 198.602,-242.247"/>
</g>
<!-- Node5 -->
<g id="node5" class="node"><title>Node5</title>
<g id="a_node5"><a xlink:href="class_ogre_1_1_compositor.html" target="_top" xlink:title="Class representing a Compositor object. ">
<polygon fill="none" stroke="black" points="267,-310.5 267,-329.5 361,-329.5 361,-310.5 267,-310.5"/>
<text text-anchor="middle" x="314" y="-317.5" font-family="Helvetica,sans-Serif" font-size="10.00">Ogre::Compositor</text>
</a>
</g>
</g>
<!-- Node1&#45;&gt;Node5 -->
<g id="edge4" class="edge"><title>Node1&#45;&gt;Node5</title>
<path fill="none" stroke="midnightblue" d="M201.408,-242.622C215.973,-259.494 239.863,-284.722 265,-301 270.642,-304.654 277.098,-307.797 283.407,-310.416"/>
<polygon fill="midnightblue" stroke="midnightblue" points="203.809,-240.039 194.685,-234.652 198.458,-244.552 203.809,-240.039"/>
</g>
<!-- Node6 -->
<g id="node6" class="node"><title>Node6</title>
<g id="a_node6"><a xlink:href="class_ogre_1_1_font.html" target="_top" xlink:title="Class representing a font in the system. ">
<polygon fill="none" stroke="black" points="282.5,-272.5 282.5,-291.5 345.5,-291.5 345.5,-272.5 282.5,-272.5"/>
<text text-anchor="middle" x="314" y="-279.5" font-family="Helvetica,sans-Serif" font-size="10.00">Ogre::Font</text>
</a>
</g>
</g>
<!-- Node1&#45;&gt;Node6 -->
<g id="edge5" class="edge"><title>Node1&#45;&gt;Node6</title>
<path fill="none" stroke="midnightblue" d="M214.836,-239.202C229.612,-246.577 248.152,-255.575 265,-263 272.381,-266.253 280.505,-269.567 287.937,-272.497"/>
<polygon fill="midnightblue" stroke="midnightblue" points="216.231,-235.986 205.725,-234.622 213.087,-242.241 216.231,-235.986"/>
</g>
<!-- Node7 -->
<g id="node7" class="node"><title>Node7</title>
<g id="a_node7"><a xlink:href="class_ogre_1_1_gpu_program.html" target="_top" xlink:title="Defines a program which runs on the GPU such as a vertex or fragment program. ">
<polygon fill="none" stroke="black" points="265,-234.5 265,-253.5 363,-253.5 363,-234.5 265,-234.5"/>
<text text-anchor="middle" x="314" y="-241.5" font-family="Helvetica,sans-Serif" font-size="10.00">Ogre::GpuProgram</text>
</a>
</g>
</g>
<!-- Node1&#45;&gt;Node7 -->
<g id="edge6" class="edge"><title>Node1&#45;&gt;Node7</title>
<path fill="none" stroke="midnightblue" d="M239.441,-232.908C247.889,-234.182 256.599,-235.495 264.938,-236.753"/>
<polygon fill="midnightblue" stroke="midnightblue" points="239.717,-229.41 229.307,-231.38 238.673,-236.332 239.717,-229.41"/>
</g>
<!-- Node20 -->
<g id="node20" class="node"><title>Node20</title>
<g id="a_node20"><a xlink:href="class_ogre_1_1_material.html" target="_top" xlink:title="Class encapsulates rendering properties of an object. ">
<polygon fill="none" stroke="black" points="275,-196.5 275,-215.5 353,-215.5 353,-196.5 275,-196.5"/>
<text text-anchor="middle" x="314" y="-203.5" font-family="Helvetica,sans-Serif" font-size="10.00">Ogre::Material</text>
</a>
</g>
</g>
<!-- Node1&#45;&gt;Node20 -->
<g id="edge19" class="edge"><title>Node1&#45;&gt;Node20</title>
<path fill="none" stroke="midnightblue" d="M239.535,-217.078C251.371,-215.293 263.715,-213.432 274.831,-211.756"/>
<polygon fill="midnightblue" stroke="midnightblue" points="238.673,-213.668 229.307,-218.62 239.717,-220.59 238.673,-213.668"/>
</g>
<!-- Node21 -->
<g id="node21" class="node"><title>Node21</title>
<g id="a_node21"><a xlink:href="class_ogre_1_1_mesh.html" target="_top" xlink:title="Resource holding data about 3D mesh. ">
<polygon fill="none" stroke="black" points="280,-158.5 280,-177.5 348,-177.5 348,-158.5 280,-158.5"/>
<text text-anchor="middle" x="314" y="-165.5" font-family="Helvetica,sans-Serif" font-size="10.00">Ogre::Mesh</text>
</a>
</g>
</g>
<!-- Node1&#45;&gt;Node21 -->
<g id="edge20" class="edge"><title>Node1&#45;&gt;Node21</title>
<path fill="none" stroke="midnightblue" d="M214.836,-210.798C229.612,-203.423 248.152,-194.425 265,-187 272.381,-183.747 280.505,-180.433 287.937,-177.503"/>
<polygon fill="midnightblue" stroke="midnightblue" points="213.087,-207.759 205.725,-215.378 216.231,-214.014 213.087,-207.759"/>
</g>
<!-- Node23 -->
<g id="node23" class="node"><title>Node23</title>
<g id="a_node23"><a xlink:href="class_ogre_1_1_skeleton.html" target="_top" xlink:title="A collection of Bone objects used to animate a skinned mesh. ">
<polygon fill="none" stroke="black" points="273,-120.5 273,-139.5 355,-139.5 355,-120.5 273,-120.5"/>
<text text-anchor="middle" x="314" y="-127.5" font-family="Helvetica,sans-Serif" font-size="10.00">Ogre::Skeleton</text>
</a>
</g>
</g>
<!-- Node1&#45;&gt;Node23 -->
<g id="edge22" class="edge"><title>Node1&#45;&gt;Node23</title>
<path fill="none" stroke="midnightblue" d="M201.408,-207.378C215.973,-190.506 239.863,-165.278 265,-149 270.642,-145.346 277.098,-142.203 283.407,-139.584"/>
<polygon fill="midnightblue" stroke="midnightblue" points="198.458,-205.448 194.685,-215.348 203.809,-209.961 198.458,-205.448"/>
</g>
<!-- Node25 -->
<g id="node25" class="node"><title>Node25</title>
<g id="a_node25"><a xlink:href="class_ogre_1_1_texture.html" target="_top" xlink:title="Abstract class representing a Texture resource. ">
<polygon fill="none" stroke="black" points="275.5,-63.5 275.5,-82.5 352.5,-82.5 352.5,-63.5 275.5,-63.5"/>
<text text-anchor="middle" x="314" y="-70.5" font-family="Helvetica,sans-Serif" font-size="10.00">Ogre::Texture</text>
</a>
</g>
</g>
<!-- Node1&#45;&gt;Node25 -->
<g id="edge24" class="edge"><title>Node1&#45;&gt;Node25</title>
<path fill="none" stroke="midnightblue" d="M197.298,-206.49C210.956,-182.854 236.662,-141.382 265,-111 275.149,-100.119 288.553,-89.7739 298.617,-82.6333"/>
<polygon fill="midnightblue" stroke="midnightblue" points="194.108,-205.02 192.21,-215.444 200.194,-208.479 194.108,-205.02"/>
</g>
<!-- Node2 -->
<g id="node2" class="node"><title>Node2</title>
<g id="a_node2"><a xlink:href="class_ogre_1_1_string_interface.html" target="_top" xlink:title="Class defining the common interface which classes can use to present a reflection&#45;style, self&#45;defining parameter set to callers. ">
<polygon fill="none" stroke="black" points="0,-234.5 0,-253.5 107,-253.5 107,-234.5 0,-234.5"/>
<text text-anchor="middle" x="53.5" y="-241.5" font-family="Helvetica,sans-Serif" font-size="10.00">Ogre::StringInterface</text>
</a>
</g>
</g>
<!-- Node2&#45;&gt;Node1 -->
<g id="edge1" class="edge"><title>Node2&#45;&gt;Node1</title>
<path fill="none" stroke="midnightblue" d="M117.331,-234.852C126.011,-233.588 134.749,-232.316 142.929,-231.125"/>
<polygon fill="midnightblue" stroke="midnightblue" points="116.595,-231.422 107.203,-236.327 117.603,-238.349 116.595,-231.422"/>
</g>
<!-- Node3 -->
<g id="node3" class="node"><title>Node3</title>
<g id="a_node3"><a xlink:href="class_ogre_1_1_allocated_object.html" target="_top" xlink:title="Superclass for all objects that wish to use custom memory allocators when their new / delete operator...">
<polygon fill="none" stroke="black" points="13.5,-196.5 13.5,-215.5 93.5,-215.5 93.5,-196.5 13.5,-196.5"/>
<text text-anchor="middle" x="53.5" y="-203.5" font-family="Helvetica,sans-Serif" font-size="10.00">ResourceAlloc</text>
</a>
</g>
</g>
<!-- Node3&#45;&gt;Node1 -->
<g id="edge2" class="edge"><title>Node3&#45;&gt;Node1</title>
<path fill="none" stroke="midnightblue" d="M103.713,-213.165C116.542,-215.033 130.253,-217.029 142.69,-218.84"/>
<polygon fill="midnightblue" stroke="midnightblue" points="104.054,-209.678 93.6543,-211.701 103.046,-216.605 104.054,-209.678"/>
</g>
<!-- Node8 -->
<g id="node8" class="node"><title>Node8</title>
<g id="a_node8"><a xlink:href="class_ogre_1_1_d3_d9_gpu_program.html" target="_top" xlink:title="Direct3D implementation of a few things common to low&#45;level vertex &amp; fragment programs. ">
<polygon fill="none" stroke="black" points="408,-370.5 408,-389.5 532,-389.5 532,-370.5 408,-370.5"/>
<text text-anchor="middle" x="470" y="-377.5" font-family="Helvetica,sans-Serif" font-size="10.00">Ogre::D3D9GpuProgram</text>
</a>
</g>
</g>
<!-- Node7&#45;&gt;Node8 -->
<g id="edge7" class="edge"><title>Node7&#45;&gt;Node8</title>
<path fill="none" stroke="midnightblue" d="M354.85,-258.01C357.694,-259.538 360.444,-261.2 363,-263 382.826,-276.963 382.785,-285.969 399,-304 420.591,-328.008 446.427,-355.828 459.864,-370.23"/>
<polygon fill="midnightblue" stroke="midnightblue" points="356.101,-254.728 345.569,-253.578 353.085,-261.045 356.101,-254.728"/>
</g>
<!-- Node11 -->
<g id="node11" class="node"><title>Node11</title>
<g id="a_node11"><a xlink:href="class_ogre_1_1_g_l_gpu_program.html" target="_top" xlink:title="Generalised low&#45;level GL program, can be applied to multiple types (eg ARB and NV) ...">
<polygon fill="none" stroke="black" points="414.5,-275.5 414.5,-294.5 525.5,-294.5 525.5,-275.5 414.5,-275.5"/>
<text text-anchor="middle" x="470" y="-282.5" font-family="Helvetica,sans-Serif" font-size="10.00">Ogre::GLGpuProgram</text>
</a>
</g>
</g>
<!-- Node7&#45;&gt;Node11 -->
<g id="edge10" class="edge"><title>Node7&#45;&gt;Node11</title>
<path fill="none" stroke="midnightblue" d="M360.674,-256.16C383.854,-262.331 411.601,-269.718 433.21,-275.471"/>
<polygon fill="midnightblue" stroke="midnightblue" points="361.282,-252.7 350.718,-253.509 359.481,-259.464 361.282,-252.7"/>
</g>
<!-- Node15 -->
<g id="node15" class="node"><title>Node15</title>
<g id="a_node15"><a xlink:href="class_ogre_1_1_high_level_gpu_program.html" target="_top" xlink:title="Abstract base class representing a high&#45;level program (a vertex or fragment program). ">
<polygon fill="none" stroke="black" points="399,-196.5 399,-215.5 541,-215.5 541,-196.5 399,-196.5"/>
<text text-anchor="middle" x="470" y="-203.5" font-family="Helvetica,sans-Serif" font-size="10.00">Ogre::HighLevelGpuProgram</text>
</a>
</g>
</g>
<!-- Node7&#45;&gt;Node15 -->
<g id="edge14" class="edge"><title>Node7&#45;&gt;Node15</title>
<path fill="none" stroke="midnightblue" d="M363.794,-231.96C385.308,-226.651 410.232,-220.501 430.419,-215.52"/>
<polygon fill="midnightblue" stroke="midnightblue" points="362.731,-228.617 353.861,-234.411 364.408,-235.413 362.731,-228.617"/>
</g>
<!-- Node9 -->
<g id="node9" class="node"><title>Node9</title>
<g id="a_node9"><a xlink:href="class_ogre_1_1_d3_d9_gpu_fragment_program.html" target="_top" xlink:title="Direct3D implementation of low&#45;level fragment programs. ">
<polygon fill="none" stroke="black" points="577,-408.5 577,-427.5 742,-427.5 742,-408.5 577,-408.5"/>
<text text-anchor="middle" x="659.5" y="-415.5" font-family="Helvetica,sans-Serif" font-size="10.00">Ogre::D3D9GpuFragmentProgram</text>
</a>
</g>
</g>
<!-- Node8&#45;&gt;Node9 -->
<g id="edge8" class="edge"><title>Node8&#45;&gt;Node9</title>
<path fill="none" stroke="midnightblue" d="M528.284,-391.61C554.951,-397.014 586.281,-403.364 611.526,-408.48"/>
<polygon fill="midnightblue" stroke="midnightblue" points="528.81,-388.145 518.314,-389.589 527.42,-395.006 528.81,-388.145"/>
</g>
<!-- Node10 -->
<g id="node10" class="node"><title>Node10</title>
<g id="a_node10"><a xlink:href="class_ogre_1_1_d3_d9_gpu_vertex_program.html" target="_top" xlink:title="Direct3D implementation of low&#45;level vertex programs. ">
<polygon fill="none" stroke="black" points="583.5,-370.5 583.5,-389.5 735.5,-389.5 735.5,-370.5 583.5,-370.5"/>
<text text-anchor="middle" x="659.5" y="-377.5" font-family="Helvetica,sans-Serif" font-size="10.00">Ogre::D3D9GpuVertexProgram</text>
</a>
</g>
</g>
<!-- Node8&#45;&gt;Node10 -->
<g id="edge9" class="edge"><title>Node8&#45;&gt;Node10</title>
<path fill="none" stroke="midnightblue" d="M542.266,-380C555.707,-380 569.804,-380 583.36,-380"/>
<polygon fill="midnightblue" stroke="midnightblue" points="542.135,-376.5 532.135,-380 542.135,-383.5 542.135,-376.5"/>
</g>
<!-- Node12 -->
<g id="node12" class="node"><title>Node12</title>
<g id="a_node12"><a xlink:href="class_ogre_1_1_g_l_arb_gpu_program.html" target="_top" xlink:title="Specialisation of the GL low&#45;level program for ARB programs. ">
<polygon fill="none" stroke="black" points="596.5,-332.5 596.5,-351.5 722.5,-351.5 722.5,-332.5 596.5,-332.5"/>
<text text-anchor="middle" x="659.5" y="-339.5" font-family="Helvetica,sans-Serif" font-size="10.00">Ogre::GLArbGpuProgram</text>
</a>
</g>
</g>
<!-- Node11&#45;&gt;Node12 -->
<g id="edge11" class="edge"><title>Node11&#45;&gt;Node12</title>
<path fill="none" stroke="midnightblue" d="M504.745,-298.221C525.409,-306.035 552.505,-315.78 577,-323 588.706,-326.45 601.505,-329.682 613.419,-332.467"/>
<polygon fill="midnightblue" stroke="midnightblue" points="505.747,-294.857 495.156,-294.559 503.25,-301.396 505.747,-294.857"/>
</g>
<!-- Node13 -->
<g id="node13" class="node"><title>Node13</title>
<g id="a_node13"><a xlink:href="class_ogre_1_1_g_l_gpu_nvparse_program.html" target="_top" xlink:title="Ogre::GLGpuNvparseProgram">
<polygon fill="none" stroke="black" points="585.5,-294.5 585.5,-313.5 733.5,-313.5 733.5,-294.5 585.5,-294.5"/>
<text text-anchor="middle" x="659.5" y="-301.5" font-family="Helvetica,sans-Serif" font-size="10.00">Ogre::GLGpuNvparseProgram</text>
</a>
</g>
</g>
<!-- Node11&#45;&gt;Node13 -->
<g id="edge12" class="edge"><title>Node11&#45;&gt;Node13</title>
<path fill="none" stroke="midnightblue" d="M535.978,-291.584C551.864,-293.194 568.97,-294.928 585.215,-296.574"/>
<polygon fill="midnightblue" stroke="midnightblue" points="536.039,-288.073 525.737,-290.547 535.333,-295.037 536.039,-288.073"/>
</g>
<!-- Node14 -->
<g id="node14" class="node"><title>Node14</title>
<g id="a_node14"><a xlink:href="class_ogre_1_1_g_l_s_l_1_1_g_l_s_l_gpu_program.html" target="_top" xlink:title="GLSL low level compiled shader object &#45; this class is used to get at the linked program object and pr...">
<polygon fill="none" stroke="black" points="582.5,-256.5 582.5,-275.5 736.5,-275.5 736.5,-256.5 582.5,-256.5"/>
<text text-anchor="middle" x="659.5" y="-263.5" font-family="Helvetica,sans-Serif" font-size="10.00">Ogre::GLSL::GLSLGpuProgram</text>
</a>
</g>
</g>
<!-- Node11&#45;&gt;Node14 -->
<g id="edge13" class="edge"><title>Node11&#45;&gt;Node14</title>
<path fill="none" stroke="midnightblue" d="M535.926,-278.421C550.926,-276.901 567.016,-275.27 582.444,-273.707"/>
<polygon fill="midnightblue" stroke="midnightblue" points="535.333,-274.963 525.737,-279.453 536.039,-281.927 535.333,-274.963"/>
</g>
<!-- Node16 -->
<g id="node16" class="node"><title>Node16</title>
<g id="a_node16"><a xlink:href="class_ogre_1_1_cg_program.html" target="_top" xlink:title="Specialisation of HighLevelGpuProgram to provide support for nVidia&#39;s CG language. ">
<polygon fill="none" stroke="black" points="613,-218.5 613,-237.5 706,-237.5 706,-218.5 613,-218.5"/>
<text text-anchor="middle" x="659.5" y="-225.5" font-family="Helvetica,sans-Serif" font-size="10.00">Ogre::CgProgram</text>
</a>
</g>
</g>
<!-- Node15&#45;&gt;Node16 -->
<g id="edge15" class="edge"><title>Node15&#45;&gt;Node16</title>
<path fill="none" stroke="midnightblue" d="M551.047,-215.392C572.202,-217.874 594.309,-220.468 612.932,-222.653"/>
<polygon fill="midnightblue" stroke="midnightblue" points="551.424,-211.913 541.085,-214.223 550.609,-218.865 551.424,-211.913"/>
</g>
<!-- Node17 -->
<g id="node17" class="node"><title>Node17</title>
<g id="a_node17"><a xlink:href="class_ogre_1_1_d3_d11_h_l_s_l_program.html" target="_top" xlink:title="Specialization of HighLevelGpuProgram to provide support for D3D11 High&#45;Level Shader Language (HLSL)...">
<polygon fill="none" stroke="black" points="591.5,-180.5 591.5,-199.5 727.5,-199.5 727.5,-180.5 591.5,-180.5"/>
<text text-anchor="middle" x="659.5" y="-187.5" font-family="Helvetica,sans-Serif" font-size="10.00">Ogre::D3D11HLSLProgram</text>
</a>
</g>
</g>
<!-- Node15&#45;&gt;Node17 -->
<g id="edge16" class="edge"><title>Node15&#45;&gt;Node17</title>
<path fill="none" stroke="midnightblue" d="M551.21,-199.155C564.57,-198.015 578.304,-196.843 591.297,-195.735"/>
<polygon fill="midnightblue" stroke="midnightblue" points="550.751,-195.682 541.085,-200.019 551.346,-202.656 550.751,-195.682"/>
</g>
<!-- Node18 -->
<g id="node18" class="node"><title>Node18</title>
<g id="a_node18"><a xlink:href="class_ogre_1_1_d3_d9_h_l_s_l_program.html" target="_top" xlink:title="Specialisation of HighLevelGpuProgram to provide support for D3D9 High&#45;Level Shader Language (HLSL)...">
<polygon fill="none" stroke="black" points="594,-142.5 594,-161.5 725,-161.5 725,-142.5 594,-142.5"/>
<text text-anchor="middle" x="659.5" y="-149.5" font-family="Helvetica,sans-Serif" font-size="10.00">Ogre::D3D9HLSLProgram</text>
</a>
</g>
</g>
<!-- Node15&#45;&gt;Node18 -->
<g id="edge17" class="edge"><title>Node15&#45;&gt;Node18</title>
<path fill="none" stroke="midnightblue" d="M519.851,-193.772C527,-191.686 534.23,-189.407 541,-187 557.497,-181.134 560.4,-176.568 577,-171 587.744,-167.396 599.507,-164.225 610.671,-161.556"/>
<polygon fill="midnightblue" stroke="midnightblue" points="518.879,-190.41 510.205,-196.494 520.779,-197.147 518.879,-190.41"/>
</g>
<!-- Node19 -->
<g id="node19" class="node"><title>Node19</title>
<g id="a_node19"><a xlink:href="class_ogre_1_1_unified_high_level_gpu_program.html" target="_top" xlink:title="Specialisation of HighLevelGpuProgram which just delegates its implementation to one other high level...">
<polygon fill="none" stroke="black" points="591.5,-93 591.5,-123 727.5,-123 727.5,-93 591.5,-93"/>
<text text-anchor="start" x="599.5" y="-111" font-family="Helvetica,sans-Serif" font-size="10.00">Ogre::UnifiedHighLevelGpu</text>
<text text-anchor="middle" x="659.5" y="-100" font-family="Helvetica,sans-Serif" font-size="10.00">Program</text>
</a>
</g>
</g>
<!-- Node15&#45;&gt;Node19 -->
<g id="edge18" class="edge"><title>Node15&#45;&gt;Node19</title>
<path fill="none" stroke="midnightblue" d="M532.375,-192.269C535.394,-190.699 538.292,-188.95 541,-187 564.41,-170.149 553.868,-150.231 577,-133 582.222,-129.11 588.057,-125.819 594.14,-123.035"/>
<polygon fill="midnightblue" stroke="midnightblue" points="530.717,-189.177 523.023,-196.461 533.58,-195.564 530.717,-189.177"/>
</g>
<!-- Node22 -->
<g id="node22" class="node"><title>Node22</title>
<g id="a_node22"><a xlink:href="class_ogre_1_1_patch_mesh.html" target="_top" xlink:title="Patch specialisation of Mesh. ">
<polygon fill="none" stroke="black" points="423.5,-158.5 423.5,-177.5 516.5,-177.5 516.5,-158.5 423.5,-158.5"/>
<text text-anchor="middle" x="470" y="-165.5" font-family="Helvetica,sans-Serif" font-size="10.00">Ogre::PatchMesh</text>
</a>
</g>
</g>
<!-- Node21&#45;&gt;Node22 -->
<g id="edge21" class="edge"><title>Node21&#45;&gt;Node22</title>
<path fill="none" stroke="midnightblue" d="M358.273,-168C378.605,-168 402.847,-168 423.458,-168"/>
<polygon fill="midnightblue" stroke="midnightblue" points="358.037,-164.5 348.037,-168 358.037,-171.5 358.037,-164.5"/>
</g>
<!-- Node24 -->
<g id="node24" class="node"><title>Node24</title>
<g id="a_node24"><a xlink:href="class_ogre_1_1_skeleton_instance.html" target="_top" xlink:title="A SkeletonInstance is a single instance of a Skeleton used by a world object. ">
<polygon fill="none" stroke="black" points="410.5,-120.5 410.5,-139.5 529.5,-139.5 529.5,-120.5 410.5,-120.5"/>
<text text-anchor="middle" x="470" y="-127.5" font-family="Helvetica,sans-Serif" font-size="10.00">Ogre::SkeletonInstance</text>
</a>
</g>
</g>
<!-- Node23&#45;&gt;Node24 -->
<g id="edge23" class="edge"><title>Node23&#45;&gt;Node24</title>
<path fill="none" stroke="midnightblue" d="M365.249,-130C379.634,-130 395.441,-130 410.286,-130"/>
<polygon fill="midnightblue" stroke="midnightblue" points="365.06,-126.5 355.06,-130 365.06,-133.5 365.06,-126.5"/>
</g>
<!-- Node26 -->
<g id="node26" class="node"><title>Node26</title>
<g id="a_node26"><a xlink:href="class_ogre_1_1_d3_d11_texture.html" target="_top" xlink:title="Specialisation of Texture for D3D11. ">
<polygon fill="none" stroke="black" points="416.5,-82.5 416.5,-101.5 523.5,-101.5 523.5,-82.5 416.5,-82.5"/>
<text text-anchor="middle" x="470" y="-89.5" font-family="Helvetica,sans-Serif" font-size="10.00">Ogre::D3D11Texture</text>
</a>
</g>
</g>
<!-- Node25&#45;&gt;Node26 -->
<g id="edge25" class="edge"><title>Node25&#45;&gt;Node26</title>
<path fill="none" stroke="midnightblue" d="M362.901,-78.9099C379.844,-81.0002 398.991,-83.3625 416.309,-85.4992"/>
<polygon fill="midnightblue" stroke="midnightblue" points="363.026,-75.3988 352.673,-77.6479 362.169,-82.3462 363.026,-75.3988"/>
</g>
<!-- Node27 -->
<g id="node27" class="node"><title>Node27</title>
<g id="a_node27"><a xlink:href="class_ogre_1_1_d3_d9_texture.html" target="_top" xlink:title="Ogre::D3D9Texture">
<polygon fill="none" stroke="black" points="419,-44.5 419,-63.5 521,-63.5 521,-44.5 419,-44.5"/>
<text text-anchor="middle" x="470" y="-51.5" font-family="Helvetica,sans-Serif" font-size="10.00">Ogre::D3D9Texture</text>
</a>
</g>
</g>
<!-- Node25&#45;&gt;Node27 -->
<g id="edge26" class="edge"><title>Node25&#45;&gt;Node27</title>
<path fill="none" stroke="midnightblue" d="M362.843,-67.0973C380.656,-64.8995 400.912,-62.4004 418.921,-60.1786"/>
<polygon fill="midnightblue" stroke="midnightblue" points="362.169,-63.6538 352.673,-68.3521 363.026,-70.6012 362.169,-63.6538"/>
</g>
<!-- Node28 -->
<g id="node28" class="node"><title>Node28</title>
<g id="a_node28"><a xlink:href="class_ogre_1_1_g_l_texture_common.html" target="_top" xlink:title="Ogre::GLTextureCommon">
<polygon fill="none" stroke="black" points="405.5,-6.5 405.5,-25.5 534.5,-25.5 534.5,-6.5 405.5,-6.5"/>
<text text-anchor="middle" x="470" y="-13.5" font-family="Helvetica,sans-Serif" font-size="10.00">Ogre::GLTextureCommon</text>
</a>
</g>
</g>
<!-- Node25&#45;&gt;Node28 -->
<g id="edge27" class="edge"><title>Node25&#45;&gt;Node28</title>
<path fill="none" stroke="midnightblue" d="M343.349,-58.8075C359.416,-51.113 380.039,-41.8127 399,-35 408.718,-31.5084 419.392,-28.3043 429.413,-25.5616"/>
<polygon fill="midnightblue" stroke="midnightblue" points="341.455,-55.8364 333.99,-63.3543 344.514,-62.1327 341.455,-55.8364"/>
</g>
<!-- Node29 -->
<g id="node29" class="node"><title>Node29</title>
<g id="a_node29"><a xlink:href="class_ogre_1_1_g_l3_plus_texture.html" target="_top" xlink:title="Ogre::GL3PlusTexture">
<polygon fill="none" stroke="black" points="602.5,-38.5 602.5,-57.5 716.5,-57.5 716.5,-38.5 602.5,-38.5"/>
<text text-anchor="middle" x="659.5" y="-45.5" font-family="Helvetica,sans-Serif" font-size="10.00">Ogre::GL3PlusTexture</text>
</a>
</g>
</g>
<!-- Node28&#45;&gt;Node29 -->
<g id="edge28" class="edge"><title>Node28&#45;&gt;Node29</title>
<path fill="none" stroke="midnightblue" d="M536.781,-27.2266C558.282,-30.8962 581.944,-34.9344 602.643,-38.467"/>
<polygon fill="midnightblue" stroke="midnightblue" points="537.195,-23.7467 526.749,-25.5144 536.017,-30.647 537.195,-23.7467"/>
</g>
<!-- Node30 -->
<g id="node30" class="node"><title>Node30</title>
<g id="a_node30"><a xlink:href="class_ogre_1_1_g_l_texture.html" target="_top" xlink:title="Ogre::GLTexture">
<polygon fill="none" stroke="black" points="615,-0.5 615,-19.5 704,-19.5 704,-0.5 615,-0.5"/>
<text text-anchor="middle" x="659.5" y="-7.5" font-family="Helvetica,sans-Serif" font-size="10.00">Ogre::GLTexture</text>
</a>
</g>
</g>
<!-- Node28&#45;&gt;Node30 -->
<g id="edge29" class="edge"><title>Node28&#45;&gt;Node30</title>
<path fill="none" stroke="midnightblue" d="M544.761,-13.6397C568.44,-12.8819 593.903,-12.0671 614.721,-11.4009"/>
<polygon fill="midnightblue" stroke="midnightblue" points="544.623,-10.1422 534.741,-13.9603 544.847,-17.1386 544.623,-10.1422"/>
</g>
</g>
</svg>
