<?xml version="1.0" encoding="UTF-8" standalone="no"?>
<!DOCTYPE svg PUBLIC "-//W3C//DTD SVG 1.1//EN"
 "http://www.w3.org/Graphics/SVG/1.1/DTD/svg11.dtd">
<!-- Generated by graphviz version 2.38.0 (20140413.2041)
 -->
<!-- Title: Ogre::BspIntersectionSceneQuery Pages: 1 -->
<svg width="273pt" height="285pt"
 viewBox="0.00 0.00 272.50 285.00" xmlns="http://www.w3.org/2000/svg" xmlns:xlink="http://www.w3.org/1999/xlink">
<g id="graph0" class="graph" transform="scale(1 1) rotate(0) translate(4 281)">
<title>Ogre::BspIntersectionSceneQuery</title>
<!-- Node1 -->
<g id="node1" class="node"><title>Node1</title>
<polygon fill="#bfbfbf" stroke="black" points="49,-0.5 49,-30.5 189,-30.5 189,-0.5 49,-0.5"/>
<text text-anchor="start" x="57" y="-18.5" font-family="Helvetica,sans-Serif" font-size="10.00">Ogre::BspIntersectionScene</text>
<text text-anchor="middle" x="119" y="-7.5" font-family="Helvetica,sans-Serif" font-size="10.00">Query</text>
</g>
<!-- Node2 -->
<g id="node2" class="node"><title>Node2</title>
<g id="a_node2"><a xlink:href="class_ogre_1_1_default_intersection_scene_query.html" target="_top" xlink:title="Default implementation of IntersectionSceneQuery. ">
<polygon fill="none" stroke="black" points="56,-67.5 56,-97.5 182,-97.5 182,-67.5 56,-67.5"/>
<text text-anchor="start" x="64" y="-85.5" font-family="Helvetica,sans-Serif" font-size="10.00">Ogre::DefaultIntersection</text>
<text text-anchor="middle" x="119" y="-74.5" font-family="Helvetica,sans-Serif" font-size="10.00">SceneQuery</text>
</a>
</g>
</g>
<!-- Node2&#45;&gt;Node1 -->
<g id="edge1" class="edge"><title>Node2&#45;&gt;Node1</title>
<path fill="none" stroke="midnightblue" d="M119,-57.1081C119,-48.1539 119,-38.3227 119,-30.5765"/>
<polygon fill="midnightblue" stroke="midnightblue" points="115.5,-57.3959 119,-67.396 122.5,-57.396 115.5,-57.3959"/>
</g>
<!-- Node3 -->
<g id="node3" class="node"><title>Node3</title>
<g id="a_node3"><a xlink:href="class_ogre_1_1_intersection_scene_query.html" target="_top" xlink:title="Separate SceneQuery class to query for pairs of objects which are possibly intersecting one another...">
<polygon fill="none" stroke="black" points="44.5,-134.5 44.5,-153.5 193.5,-153.5 193.5,-134.5 44.5,-134.5"/>
<text text-anchor="middle" x="119" y="-141.5" font-family="Helvetica,sans-Serif" font-size="10.00">Ogre::IntersectionSceneQuery</text>
</a>
</g>
</g>
<!-- Node3&#45;&gt;Node2 -->
<g id="edge2" class="edge"><title>Node3&#45;&gt;Node2</title>
<path fill="none" stroke="midnightblue" d="M119,-124.235C119,-115.586 119,-105.497 119,-97.523"/>
<polygon fill="midnightblue" stroke="midnightblue" points="115.5,-124.475 119,-134.475 122.5,-124.475 115.5,-124.475"/>
</g>
<!-- Node4 -->
<g id="node4" class="node"><title>Node4</title>
<g id="a_node4"><a xlink:href="class_ogre_1_1_scene_query.html" target="_top" xlink:title="A class for performing queries on a scene. ">
<polygon fill="none" stroke="black" points="0,-196 0,-215 98,-215 98,-196 0,-196"/>
<text text-anchor="middle" x="49" y="-203" font-family="Helvetica,sans-Serif" font-size="10.00">Ogre::SceneQuery</text>
</a>
</g>
</g>
<!-- Node4&#45;&gt;Node3 -->
<g id="edge3" class="edge"><title>Node4&#45;&gt;Node3</title>
<path fill="none" stroke="midnightblue" d="M66.6791,-189.473C80.0676,-178.093 97.9772,-162.869 108.989,-153.509"/>
<polygon fill="midnightblue" stroke="midnightblue" points="64.3819,-186.832 59.0293,-195.975 68.9155,-192.165 64.3819,-186.832"/>
</g>
<!-- Node5 -->
<g id="node5" class="node"><title>Node5</title>
<g id="a_node5"><a xlink:href="class_ogre_1_1_allocated_object.html" target="_top" xlink:title="Superclass for all objects that wish to use custom memory allocators when their new / delete operator...">
<polygon fill="none" stroke="black" points="7.5,-257.5 7.5,-276.5 90.5,-276.5 90.5,-257.5 7.5,-257.5"/>
<text text-anchor="middle" x="49" y="-264.5" font-family="Helvetica,sans-Serif" font-size="10.00">SceneMgtAlloc</text>
</a>
</g>
</g>
<!-- Node5&#45;&gt;Node4 -->
<g id="edge4" class="edge"><title>Node5&#45;&gt;Node4</title>
<path fill="none" stroke="midnightblue" d="M49,-247.317C49,-236.496 49,-223.398 49,-215.009"/>
<polygon fill="midnightblue" stroke="midnightblue" points="45.5001,-247.475 49,-257.475 52.5001,-247.475 45.5001,-247.475"/>
</g>
<!-- Node6 -->
<g id="node6" class="node"><title>Node6</title>
<g id="a_node6"><a xlink:href="class_ogre_1_1_intersection_scene_query_listener.html" target="_top" xlink:title="Alternative listener class for dealing with IntersectionSceneQuery. ">
<polygon fill="none" stroke="black" points="115.5,-190.5 115.5,-220.5 264.5,-220.5 264.5,-190.5 115.5,-190.5"/>
<text text-anchor="start" x="123.5" y="-208.5" font-family="Helvetica,sans-Serif" font-size="10.00">Ogre::IntersectionSceneQuery</text>
<text text-anchor="middle" x="190" y="-197.5" font-family="Helvetica,sans-Serif" font-size="10.00">Listener</text>
</a>
</g>
</g>
<!-- Node6&#45;&gt;Node3 -->
<g id="edge5" class="edge"><title>Node6&#45;&gt;Node3</title>
<path fill="none" stroke="midnightblue" d="M165.411,-183.893C153.06,-173.543 138.758,-161.558 129.331,-153.658"/>
<polygon fill="midnightblue" stroke="midnightblue" points="163.261,-186.659 173.174,-190.399 167.758,-181.294 163.261,-186.659"/>
</g>
</g>
</svg>
