<?xml version="1.0" encoding="UTF-8" standalone="no"?>
<!DOCTYPE svg PUBLIC "-//W3C//DTD SVG 1.1//EN"
 "http://www.w3.org/Graphics/SVG/1.1/DTD/svg11.dtd">
<!-- Generated by graphviz version 2.38.0 (20140413.2041)
 -->
<!-- Title: Ogre::SmallVectorBase Pages: 1 -->
<svg width="812pt" height="264pt"
 viewBox="0.00 0.00 812.00 263.50" xmlns="http://www.w3.org/2000/svg" xmlns:xlink="http://www.w3.org/1999/xlink">
<g id="graph0" class="graph" transform="scale(1 1) rotate(0) translate(4 259.5)">
<title>Ogre::SmallVectorBase</title>
<!-- Node1 -->
<g id="node1" class="node"><title>Node1</title>
<polygon fill="#bfbfbf" stroke="black" points="0,-71.5 0,-90.5 119,-90.5 119,-71.5 0,-71.5"/>
<text text-anchor="middle" x="59.5" y="-78.5" font-family="Helvetica,sans-Serif" font-size="10.00">Ogre::SmallVectorBase</text>
</g>
<!-- Node2 -->
<g id="node2" class="node"><title>Node2</title>
<g id="a_node2"><a xlink:href="class_ogre_1_1_small_vector_template_common.html" target="_top" xlink:title="Ogre::SmallVectorTemplate\lCommon\&lt; T \&gt;">
<polygon fill="none" stroke="black" points="155,-151 155,-181 292,-181 292,-151 155,-151"/>
<text text-anchor="start" x="163" y="-169" font-family="Helvetica,sans-Serif" font-size="10.00">Ogre::SmallVectorTemplate</text>
<text text-anchor="middle" x="223.5" y="-158" font-family="Helvetica,sans-Serif" font-size="10.00">Common&lt; T &gt;</text>
</a>
</g>
</g>
<!-- Node1&#45;&gt;Node2 -->
<g id="edge1" class="edge"><title>Node1&#45;&gt;Node2</title>
<path fill="none" stroke="midnightblue" d="M87.6552,-95.2481C117.027,-110.659 163.665,-135.13 193.673,-150.875"/>
<polygon fill="midnightblue" stroke="midnightblue" points="89.2499,-92.1323 78.7686,-90.5854 85.9975,-98.3309 89.2499,-92.1323"/>
</g>
<!-- Node10 -->
<g id="node10" class="node"><title>Node10</title>
<g id="a_node10"><a xlink:href="class_ogre_1_1_small_vector_template_common.html" target="_top" xlink:title="Ogre::SmallVectorTemplate\lCommon\&lt; Edge \&gt;">
<polygon fill="none" stroke="black" points="155,-66 155,-96 292,-96 292,-66 155,-66"/>
<text text-anchor="start" x="163" y="-84" font-family="Helvetica,sans-Serif" font-size="10.00">Ogre::SmallVectorTemplate</text>
<text text-anchor="middle" x="223.5" y="-73" font-family="Helvetica,sans-Serif" font-size="10.00">Common&lt; Edge &gt;</text>
</a>
</g>
</g>
<!-- Node1&#45;&gt;Node10 -->
<g id="edge9" class="edge"><title>Node1&#45;&gt;Node10</title>
<path fill="none" stroke="midnightblue" d="M129.543,-81C137.914,-81 146.459,-81 154.81,-81"/>
<polygon fill="midnightblue" stroke="midnightblue" points="129.444,-77.5001 119.444,-81 129.444,-84.5001 129.444,-77.5001"/>
</g>
<!-- Node14 -->
<g id="node14" class="node"><title>Node14</title>
<g id="a_node14"><a xlink:href="class_ogre_1_1_small_vector_template_common.html" target="_top" xlink:title="Ogre::SmallVectorTemplate\lCommon\&lt; Triangle * \&gt;">
<polygon fill="none" stroke="black" points="155,-12 155,-42 292,-42 292,-12 155,-12"/>
<text text-anchor="start" x="163" y="-30" font-family="Helvetica,sans-Serif" font-size="10.00">Ogre::SmallVectorTemplate</text>
<text text-anchor="middle" x="223.5" y="-19" font-family="Helvetica,sans-Serif" font-size="10.00">Common&lt; Triangle * &gt;</text>
</a>
</g>
</g>
<!-- Node1&#45;&gt;Node14 -->
<g id="edge13" class="edge"><title>Node1&#45;&gt;Node14</title>
<path fill="none" stroke="midnightblue" d="M98.739,-68.2537C122.306,-60.3981 152.643,-50.2856 177.383,-42.0389"/>
<polygon fill="midnightblue" stroke="midnightblue" points="97.4695,-64.9874 89.0894,-71.4702 99.6831,-71.6282 97.4695,-64.9874"/>
</g>
<!-- Node3 -->
<g id="node3" class="node"><title>Node3</title>
<g id="a_node3"><a xlink:href="class_ogre_1_1_small_vector_template_base.html" target="_top" xlink:title="SmallVectorTemplateBase&lt;isPodLike = false&gt; &#45; This is where we put method implementations that are des...">
<polygon fill="none" stroke="black" points="331,-225 331,-255 468,-255 468,-225 331,-225"/>
<text text-anchor="start" x="339" y="-243" font-family="Helvetica,sans-Serif" font-size="10.00">Ogre::SmallVectorTemplate</text>
<text text-anchor="middle" x="399.5" y="-232" font-family="Helvetica,sans-Serif" font-size="10.00">Base&lt; T &gt;</text>
</a>
</g>
</g>
<!-- Node2&#45;&gt;Node3 -->
<g id="edge2" class="edge"><title>Node2&#45;&gt;Node3</title>
<path fill="none" stroke="midnightblue" d="M262.601,-185.783C281.936,-195.467 305.944,-206.958 328,-216 335.537,-219.09 343.634,-222.112 351.558,-224.914"/>
<polygon fill="midnightblue" stroke="midnightblue" points="264.017,-182.577 253.513,-181.192 260.861,-188.825 264.017,-182.577"/>
</g>
<!-- Node4 -->
<g id="node4" class="node"><title>Node4</title>
<g id="a_node4"><a xlink:href="class_ogre_1_1_small_vector_template_base_3_01_t_00_01true_01_4.html" target="_top" xlink:title="SmallVectorTemplateBase&lt;isPodLike = true&gt; &#45; This is where we put method implementations that are desi...">
<polygon fill="none" stroke="black" points="331,-176 331,-206 468,-206 468,-176 331,-176"/>
<text text-anchor="start" x="339" y="-194" font-family="Helvetica,sans-Serif" font-size="10.00">Ogre::SmallVectorTemplate</text>
<text text-anchor="middle" x="399.5" y="-183" font-family="Helvetica,sans-Serif" font-size="10.00">Base&lt; T, true &gt;</text>
</a>
</g>
</g>
<!-- Node2&#45;&gt;Node4 -->
<g id="edge3" class="edge"><title>Node2&#45;&gt;Node4</title>
<path fill="none" stroke="midnightblue" d="M302.182,-177.161C311.764,-178.538 321.499,-179.937 330.914,-181.289"/>
<polygon fill="midnightblue" stroke="midnightblue" points="302.667,-173.695 292.271,-175.737 301.672,-180.624 302.667,-173.695"/>
</g>
<!-- Node5 -->
<g id="node5" class="node"><title>Node5</title>
<g id="a_node5"><a xlink:href="class_ogre_1_1_small_vector_template_base.html" target="_top" xlink:title="SmallVectorTemplateBase\l\&lt; T, isPodLike\&lt; T \&gt;::value \&gt;">
<polygon fill="none" stroke="black" points="328,-127 328,-157 471,-157 471,-127 328,-127"/>
<text text-anchor="start" x="336" y="-145" font-family="Helvetica,sans-Serif" font-size="10.00">SmallVectorTemplateBase</text>
<text text-anchor="middle" x="399.5" y="-134" font-family="Helvetica,sans-Serif" font-size="10.00">&lt; T, isPodLike&lt; T &gt;::value &gt;</text>
</a>
</g>
</g>
<!-- Node2&#45;&gt;Node5 -->
<g id="edge4" class="edge"><title>Node2&#45;&gt;Node5</title>
<path fill="none" stroke="midnightblue" d="M302.189,-155.284C310.701,-154.11 319.333,-152.92 327.755,-151.758"/>
<polygon fill="midnightblue" stroke="midnightblue" points="301.699,-151.819 292.271,-156.652 302.656,-158.753 301.699,-151.819"/>
</g>
<!-- Node6 -->
<g id="node6" class="node"><title>Node6</title>
<g id="a_node6"><a xlink:href="class_ogre_1_1_small_vector_impl.html" target="_top" xlink:title="SmallVectorImpl &#45; This class consists of common code factored out of the SmallVector class to reduce ...">
<polygon fill="none" stroke="black" points="507,-143.5 507,-162.5 647,-162.5 647,-143.5 507,-143.5"/>
<text text-anchor="middle" x="577" y="-150.5" font-family="Helvetica,sans-Serif" font-size="10.00">Ogre::SmallVectorImpl&lt; T &gt;</text>
</a>
</g>
</g>
<!-- Node5&#45;&gt;Node6 -->
<g id="edge5" class="edge"><title>Node5&#45;&gt;Node6</title>
<path fill="none" stroke="midnightblue" d="M481.171,-147.056C489.783,-147.596 498.487,-148.142 506.947,-148.672"/>
<polygon fill="midnightblue" stroke="midnightblue" points="481.323,-143.559 471.124,-146.427 480.885,-150.545 481.323,-143.559"/>
</g>
<!-- Node7 -->
<g id="node7" class="node"><title>Node7</title>
<g id="a_node7"><a xlink:href="class_ogre_1_1_small_vector.html" target="_top" xlink:title="SmallVector &#45; This is a &#39;vector&#39; (really, a variable&#45;sized array), optimized for the case when the ar...">
<polygon fill="none" stroke="black" points="683,-194.5 683,-213.5 804,-213.5 804,-194.5 683,-194.5"/>
<text text-anchor="middle" x="743.5" y="-201.5" font-family="Helvetica,sans-Serif" font-size="10.00">Ogre::SmallVector&lt; T &gt;</text>
</a>
</g>
</g>
<!-- Node6&#45;&gt;Node7 -->
<g id="edge6" class="edge"><title>Node6&#45;&gt;Node7</title>
<path fill="none" stroke="midnightblue" d="M618.699,-165.618C647.466,-174.537 685.43,-186.307 711.698,-194.45"/>
<polygon fill="midnightblue" stroke="midnightblue" points="619.529,-162.211 608.941,-162.593 617.456,-168.897 619.529,-162.211"/>
</g>
<!-- Node8 -->
<g id="node8" class="node"><title>Node8</title>
<g id="a_node8"><a xlink:href="class_ogre_1_1_small_vector_3_01_t_00_010_01_4.html" target="_top" xlink:title="Specialize SmallVector at N=0. ">
<polygon fill="none" stroke="black" points="692,-145 692,-175 795,-175 795,-145 692,-145"/>
<text text-anchor="start" x="700" y="-163" font-family="Helvetica,sans-Serif" font-size="10.00">Ogre::SmallVector&lt;</text>
<text text-anchor="middle" x="743.5" y="-152" font-family="Helvetica,sans-Serif" font-size="10.00"> T, 0 &gt;</text>
</a>
</g>
</g>
<!-- Node6&#45;&gt;Node8 -->
<g id="edge7" class="edge"><title>Node6&#45;&gt;Node8</title>
<path fill="none" stroke="midnightblue" d="M657.498,-156.383C669.167,-156.879 680.91,-157.379 691.787,-157.842"/>
<polygon fill="midnightblue" stroke="midnightblue" points="657.426,-152.877 647.286,-155.948 657.128,-159.87 657.426,-152.877"/>
</g>
<!-- Node9 -->
<g id="node9" class="node"><title>Node9</title>
<g id="a_node9"><a xlink:href="class_ogre_1_1_small_vector.html" target="_top" xlink:title="SmallVector\&lt; T, S \&gt;">
<polygon fill="none" stroke="red" points="690,-106.5 690,-125.5 797,-125.5 797,-106.5 690,-106.5"/>
<text text-anchor="middle" x="743.5" y="-113.5" font-family="Helvetica,sans-Serif" font-size="10.00">SmallVector&lt; T, S &gt;</text>
</a>
</g>
</g>
<!-- Node6&#45;&gt;Node9 -->
<g id="edge8" class="edge"><title>Node6&#45;&gt;Node9</title>
<path fill="none" stroke="midnightblue" d="M630.41,-141.212C652.868,-136.16 678.758,-130.337 699.995,-125.56"/>
<polygon fill="midnightblue" stroke="midnightblue" points="629.351,-137.862 620.363,-143.472 630.887,-144.692 629.351,-137.862"/>
</g>
<!-- Node11 -->
<g id="node11" class="node"><title>Node11</title>
<g id="a_node11"><a xlink:href="class_ogre_1_1_small_vector_template_base.html" target="_top" xlink:title="Ogre::SmallVectorTemplate\lBase\&lt; Edge, isPodLike\&lt;\l Edge \&gt;::value \&gt;">
<polygon fill="none" stroke="black" points="331,-60.5 331,-101.5 468,-101.5 468,-60.5 331,-60.5"/>
<text text-anchor="start" x="339" y="-89.5" font-family="Helvetica,sans-Serif" font-size="10.00">Ogre::SmallVectorTemplate</text>
<text text-anchor="start" x="339" y="-78.5" font-family="Helvetica,sans-Serif" font-size="10.00">Base&lt; Edge, isPodLike&lt;</text>
<text text-anchor="middle" x="399.5" y="-67.5" font-family="Helvetica,sans-Serif" font-size="10.00"> Edge &gt;::value &gt;</text>
</a>
</g>
</g>
<!-- Node10&#45;&gt;Node11 -->
<g id="edge10" class="edge"><title>Node10&#45;&gt;Node11</title>
<path fill="none" stroke="midnightblue" d="M302.484,-81C311.969,-81 321.598,-81 330.914,-81"/>
<polygon fill="midnightblue" stroke="midnightblue" points="302.271,-77.5001 292.271,-81 302.271,-84.5001 302.271,-77.5001"/>
</g>
<!-- Node12 -->
<g id="node12" class="node"><title>Node12</title>
<g id="a_node12"><a xlink:href="class_ogre_1_1_small_vector_impl.html" target="_top" xlink:title="Ogre::SmallVectorImpl\l\&lt; Edge \&gt;">
<polygon fill="none" stroke="black" points="519,-60 519,-90 635,-90 635,-60 519,-60"/>
<text text-anchor="start" x="527" y="-78" font-family="Helvetica,sans-Serif" font-size="10.00">Ogre::SmallVectorImpl</text>
<text text-anchor="middle" x="577" y="-67" font-family="Helvetica,sans-Serif" font-size="10.00">&lt; Edge &gt;</text>
</a>
</g>
</g>
<!-- Node11&#45;&gt;Node12 -->
<g id="edge11" class="edge"><title>Node11&#45;&gt;Node12</title>
<path fill="none" stroke="midnightblue" d="M478.447,-78.3351C492.086,-77.8689 506.045,-77.3916 518.983,-76.9493"/>
<polygon fill="midnightblue" stroke="midnightblue" points="477.976,-74.8491 468.102,-78.6888 478.216,-81.845 477.976,-74.8491"/>
</g>
<!-- Node13 -->
<g id="node13" class="node"><title>Node13</title>
<g id="a_node13"><a xlink:href="class_ogre_1_1_small_vector.html" target="_top" xlink:title="Ogre::SmallVector\&lt;\l Edge, S \&gt;">
<polygon fill="none" stroke="red" points="692,-57 692,-87 795,-87 795,-57 692,-57"/>
<text text-anchor="start" x="700" y="-75" font-family="Helvetica,sans-Serif" font-size="10.00">Ogre::SmallVector&lt;</text>
<text text-anchor="middle" x="743.5" y="-64" font-family="Helvetica,sans-Serif" font-size="10.00"> Edge, S &gt;</text>
</a>
</g>
</g>
<!-- Node12&#45;&gt;Node13 -->
<g id="edge12" class="edge"><title>Node12&#45;&gt;Node13</title>
<path fill="none" stroke="midnightblue" d="M645.184,-73.7748C660.772,-73.4905 677.108,-73.1926 691.847,-72.9238"/>
<polygon fill="midnightblue" stroke="midnightblue" points="645.007,-70.2773 635.072,-73.9592 645.135,-77.2761 645.007,-70.2773"/>
</g>
<!-- Node15 -->
<g id="node15" class="node"><title>Node15</title>
<g id="a_node15"><a xlink:href="class_ogre_1_1_small_vector_template_base.html" target="_top" xlink:title="Ogre::SmallVectorTemplate\lBase\&lt; Triangle *, isPodLike\l\&lt; Triangle * \&gt;::value \&gt;">
<polygon fill="none" stroke="black" points="330.5,-0.5 330.5,-41.5 468.5,-41.5 468.5,-0.5 330.5,-0.5"/>
<text text-anchor="start" x="338.5" y="-29.5" font-family="Helvetica,sans-Serif" font-size="10.00">Ogre::SmallVectorTemplate</text>
<text text-anchor="start" x="338.5" y="-18.5" font-family="Helvetica,sans-Serif" font-size="10.00">Base&lt; Triangle *, isPodLike</text>
<text text-anchor="middle" x="399.5" y="-7.5" font-family="Helvetica,sans-Serif" font-size="10.00">&lt; Triangle * &gt;::value &gt;</text>
</a>
</g>
</g>
<!-- Node14&#45;&gt;Node15 -->
<g id="edge14" class="edge"><title>Node14&#45;&gt;Node15</title>
<path fill="none" stroke="midnightblue" d="M302.33,-24.3162C311.67,-23.9941 321.153,-23.6671 330.341,-23.3503"/>
<polygon fill="midnightblue" stroke="midnightblue" points="302.145,-20.8204 292.271,-24.6631 302.386,-27.8163 302.145,-20.8204"/>
</g>
<!-- Node16 -->
<g id="node16" class="node"><title>Node16</title>
<g id="a_node16"><a xlink:href="class_ogre_1_1_small_vector_impl.html" target="_top" xlink:title="Ogre::SmallVectorImpl\l\&lt; Triangle * \&gt;">
<polygon fill="none" stroke="black" points="519,-6 519,-36 635,-36 635,-6 519,-6"/>
<text text-anchor="start" x="527" y="-24" font-family="Helvetica,sans-Serif" font-size="10.00">Ogre::SmallVectorImpl</text>
<text text-anchor="middle" x="577" y="-13" font-family="Helvetica,sans-Serif" font-size="10.00">&lt; Triangle * &gt;</text>
</a>
</g>
</g>
<!-- Node15&#45;&gt;Node16 -->
<g id="edge15" class="edge"><title>Node15&#45;&gt;Node16</title>
<path fill="none" stroke="midnightblue" d="M478.804,-21C492.246,-21 505.987,-21 518.745,-21"/>
<polygon fill="midnightblue" stroke="midnightblue" points="478.604,-17.5001 468.604,-21 478.604,-24.5001 478.604,-17.5001"/>
</g>
<!-- Node17 -->
<g id="node17" class="node"><title>Node17</title>
<g id="a_node17"><a xlink:href="class_ogre_1_1_small_vector.html" target="_top" xlink:title="Ogre::SmallVector\&lt;\l Triangle *, S \&gt;">
<polygon fill="none" stroke="red" points="692,-6 692,-36 795,-36 795,-6 692,-6"/>
<text text-anchor="start" x="700" y="-24" font-family="Helvetica,sans-Serif" font-size="10.00">Ogre::SmallVector&lt;</text>
<text text-anchor="middle" x="743.5" y="-13" font-family="Helvetica,sans-Serif" font-size="10.00"> Triangle *, S &gt;</text>
</a>
</g>
</g>
<!-- Node16&#45;&gt;Node17 -->
<g id="edge16" class="edge"><title>Node16&#45;&gt;Node17</title>
<path fill="none" stroke="midnightblue" d="M645.184,-21C660.772,-21 677.108,-21 691.847,-21"/>
<polygon fill="midnightblue" stroke="midnightblue" points="645.072,-17.5001 635.072,-21 645.072,-24.5001 645.072,-17.5001"/>
</g>
</g>
</svg>
