<?xml version="1.0" encoding="UTF-8" standalone="no"?>
<!DOCTYPE svg PUBLIC "-//W3C//DTD SVG 1.1//EN"
 "http://www.w3.org/Graphics/SVG/1.1/DTD/svg11.dtd">
<!-- Generated by graphviz version 2.38.0 (20140413.2041)
 -->
<!-- Title: Ogre::Codec Pages: 1 -->
<svg width="476pt" height="218pt"
 viewBox="0.00 0.00 476.00 218.00" xmlns="http://www.w3.org/2000/svg" xmlns:xlink="http://www.w3.org/1999/xlink">
<g id="graph0" class="graph" transform="scale(1 1) rotate(0) translate(4 214)">
<title>Ogre::Codec</title>
<!-- Node1 -->
<g id="node1" class="node"><title>Node1</title>
<polygon fill="#bfbfbf" stroke="black" points="103,-95.5 103,-114.5 175,-114.5 175,-95.5 103,-95.5"/>
<text text-anchor="middle" x="139" y="-102.5" font-family="Helvetica,sans-Serif" font-size="10.00">Ogre::Codec</text>
</g>
<!-- Node3 -->
<g id="node3" class="node"><title>Node3</title>
<g id="a_node3"><a xlink:href="class_ogre_1_1_image_codec.html" target="_top" xlink:title="Codec specialized in images. ">
<polygon fill="none" stroke="black" points="211,-95.5 211,-114.5 310,-114.5 310,-95.5 211,-95.5"/>
<text text-anchor="middle" x="260.5" y="-102.5" font-family="Helvetica,sans-Serif" font-size="10.00">Ogre::ImageCodec</text>
</a>
</g>
</g>
<!-- Node1&#45;&gt;Node3 -->
<g id="edge2" class="edge"><title>Node1&#45;&gt;Node3</title>
<path fill="none" stroke="midnightblue" d="M185.454,-105C193.749,-105 202.435,-105 210.819,-105"/>
<polygon fill="midnightblue" stroke="midnightblue" points="185.208,-101.5 175.208,-105 185.208,-108.5 185.208,-101.5"/>
</g>
<!-- Node2 -->
<g id="node2" class="node"><title>Node2</title>
<g id="a_node2"><a xlink:href="class_ogre_1_1_allocated_object.html" target="_top" xlink:title="Superclass for all objects that wish to use custom memory allocators when their new / delete operator...">
<polygon fill="none" stroke="black" points="0,-95.5 0,-114.5 67,-114.5 67,-95.5 0,-95.5"/>
<text text-anchor="middle" x="33.5" y="-102.5" font-family="Helvetica,sans-Serif" font-size="10.00">CodecAlloc</text>
</a>
</g>
</g>
<!-- Node2&#45;&gt;Node1 -->
<g id="edge1" class="edge"><title>Node2&#45;&gt;Node1</title>
<path fill="none" stroke="midnightblue" d="M77.4006,-105C85.9105,-105 94.7493,-105 102.96,-105"/>
<polygon fill="midnightblue" stroke="midnightblue" points="77.2481,-101.5 67.248,-105 77.248,-108.5 77.2481,-101.5"/>
</g>
<!-- Node4 -->
<g id="node4" class="node"><title>Node4</title>
<g id="a_node4"><a xlink:href="class_ogre_1_1_d_d_s_codec.html" target="_top" xlink:title="Codec specialized in loading DDS (Direct Draw Surface) images. ">
<polygon fill="none" stroke="black" points="360,-190.5 360,-209.5 454,-209.5 454,-190.5 360,-190.5"/>
<text text-anchor="middle" x="407" y="-197.5" font-family="Helvetica,sans-Serif" font-size="10.00">Ogre::DDSCodec</text>
</a>
</g>
</g>
<!-- Node3&#45;&gt;Node4 -->
<g id="edge3" class="edge"><title>Node3&#45;&gt;Node4</title>
<path fill="none" stroke="midnightblue" d="M276.468,-122.209C292.21,-139.33 318.477,-165.256 346,-181 352.639,-184.798 360.134,-187.939 367.519,-190.499"/>
<polygon fill="midnightblue" stroke="midnightblue" points="278.914,-119.694 269.627,-114.595 273.707,-124.372 278.914,-119.694"/>
</g>
<!-- Node5 -->
<g id="node5" class="node"><title>Node5</title>
<g id="a_node5"><a xlink:href="class_ogre_1_1_e_t_c_codec.html" target="_top" xlink:title="Codec specialized in loading ETC (Ericsson Texture Compression) images. ">
<polygon fill="none" stroke="black" points="361,-152.5 361,-171.5 453,-171.5 453,-152.5 361,-152.5"/>
<text text-anchor="middle" x="407" y="-159.5" font-family="Helvetica,sans-Serif" font-size="10.00">Ogre::ETCCodec</text>
</a>
</g>
</g>
<!-- Node3&#45;&gt;Node5 -->
<g id="edge4" class="edge"><title>Node3&#45;&gt;Node5</title>
<path fill="none" stroke="midnightblue" d="M290.46,-119.027C306.613,-126.595 327.208,-135.827 346,-143 354.779,-146.351 364.431,-149.595 373.378,-152.425"/>
<polygon fill="midnightblue" stroke="midnightblue" points="291.569,-115.679 281.033,-114.563 288.573,-122.005 291.569,-115.679"/>
</g>
<!-- Node6 -->
<g id="node6" class="node"><title>Node6</title>
<g id="a_node6"><a xlink:href="class_ogre_1_1_e_x_r_codec.html" target="_top" xlink:title="Codec specialized in loading OpenEXR high dynamic range images. ">
<polygon fill="none" stroke="black" points="360.5,-114.5 360.5,-133.5 453.5,-133.5 453.5,-114.5 360.5,-114.5"/>
<text text-anchor="middle" x="407" y="-121.5" font-family="Helvetica,sans-Serif" font-size="10.00">Ogre::EXRCodec</text>
</a>
</g>
</g>
<!-- Node3&#45;&gt;Node6 -->
<g id="edge5" class="edge"><title>Node3&#45;&gt;Node6</title>
<path fill="none" stroke="midnightblue" d="M320.102,-112.705C333.495,-114.466 347.537,-116.313 360.296,-117.991"/>
<polygon fill="midnightblue" stroke="midnightblue" points="320.389,-109.213 310.018,-111.38 319.477,-116.153 320.389,-109.213"/>
</g>
<!-- Node7 -->
<g id="node7" class="node"><title>Node7</title>
<g id="a_node7"><a xlink:href="class_ogre_1_1_free_image_codec.html" target="_top" xlink:title="Codec specialized in images loaded using FreeImage. ">
<polygon fill="none" stroke="black" points="347.5,-76.5 347.5,-95.5 466.5,-95.5 466.5,-76.5 347.5,-76.5"/>
<text text-anchor="middle" x="407" y="-83.5" font-family="Helvetica,sans-Serif" font-size="10.00">Ogre::FreeImageCodec</text>
</a>
</g>
</g>
<!-- Node3&#45;&gt;Node7 -->
<g id="edge6" class="edge"><title>Node3&#45;&gt;Node7</title>
<path fill="none" stroke="midnightblue" d="M320.026,-97.3045C329.029,-96.1208 338.326,-94.8983 347.332,-93.7141"/>
<polygon fill="midnightblue" stroke="midnightblue" points="319.477,-93.8465 310.018,-98.6204 320.389,-100.787 319.477,-93.8465"/>
</g>
<!-- Node8 -->
<g id="node8" class="node"><title>Node8</title>
<g id="a_node8"><a xlink:href="class_ogre_1_1_p_v_r_t_c_codec.html" target="_top" xlink:title="Codec specialized in loading PVRTC (PowerVR) images. ">
<polygon fill="none" stroke="black" points="353.5,-38.5 353.5,-57.5 460.5,-57.5 460.5,-38.5 353.5,-38.5"/>
<text text-anchor="middle" x="407" y="-45.5" font-family="Helvetica,sans-Serif" font-size="10.00">Ogre::PVRTCCodec</text>
</a>
</g>
</g>
<!-- Node3&#45;&gt;Node8 -->
<g id="edge7" class="edge"><title>Node3&#45;&gt;Node8</title>
<path fill="none" stroke="midnightblue" d="M290.46,-90.9734C306.613,-83.4052 327.208,-74.173 346,-67 354.779,-63.649 364.431,-60.4052 373.378,-57.5748"/>
<polygon fill="midnightblue" stroke="midnightblue" points="288.573,-87.9946 281.033,-95.4374 291.569,-94.3212 288.573,-87.9946"/>
</g>
<!-- Node9 -->
<g id="node9" class="node"><title>Node9</title>
<g id="a_node9"><a xlink:href="class_ogre_1_1_s_t_b_i_image_codec.html" target="_top" xlink:title="Codec specialized in images loaded using stbi (https://github.com/nothings/stb). ">
<polygon fill="none" stroke="black" points="346,-0.5 346,-19.5 468,-19.5 468,-0.5 346,-0.5"/>
<text text-anchor="middle" x="407" y="-7.5" font-family="Helvetica,sans-Serif" font-size="10.00">Ogre::STBIImageCodec</text>
</a>
</g>
</g>
<!-- Node3&#45;&gt;Node9 -->
<g id="edge8" class="edge"><title>Node3&#45;&gt;Node9</title>
<path fill="none" stroke="midnightblue" d="M276.468,-87.7911C292.21,-70.6702 318.477,-44.7436 346,-29 352.639,-25.2024 360.134,-22.061 367.519,-19.5009"/>
<polygon fill="midnightblue" stroke="midnightblue" points="273.707,-85.6277 269.627,-95.4054 278.914,-90.3062 273.707,-85.6277"/>
</g>
</g>
</svg>
