<?xml version="1.0" encoding="UTF-8" standalone="no"?>
<!DOCTYPE svg PUBLIC "-//W3C//DTD SVG 1.1//EN"
 "http://www.w3.org/Graphics/SVG/1.1/DTD/svg11.dtd">
<!-- Generated by graphviz version 2.38.0 (20140413.2041)
 -->
<!-- Title: Ogre::GLRTTManager Pages: 1 -->
<svg width="533pt" height="218pt"
 viewBox="0.00 0.00 533.00 218.00" xmlns="http://www.w3.org/2000/svg" xmlns:xlink="http://www.w3.org/1999/xlink">
<g id="graph0" class="graph" transform="scale(1 1) rotate(0) translate(4 214)">
<title>Ogre::GLRTTManager</title>
<!-- Node1 -->
<g id="node1" class="node"><title>Node1</title>
<polygon fill="#bfbfbf" stroke="black" points="208,-95.5 208,-114.5 321,-114.5 321,-95.5 208,-95.5"/>
<text text-anchor="middle" x="264.5" y="-102.5" font-family="Helvetica,sans-Serif" font-size="10.00">Ogre::GLRTTManager</text>
</g>
<!-- Node3 -->
<g id="node3" class="node"><title>Node3</title>
<g id="a_node3"><a xlink:href="class_ogre_1_1_g_l3_plus_f_b_o_manager.html" target="_top" xlink:title="Factory for GL Frame Buffer Objects, and related things. ">
<polygon fill="none" stroke="black" points="371.5,-190.5 371.5,-209.5 510.5,-209.5 510.5,-190.5 371.5,-190.5"/>
<text text-anchor="middle" x="441" y="-197.5" font-family="Helvetica,sans-Serif" font-size="10.00">Ogre::GL3PlusFBOManager</text>
</a>
</g>
</g>
<!-- Node1&#45;&gt;Node3 -->
<g id="edge2" class="edge"><title>Node1&#45;&gt;Node3</title>
<path fill="none" stroke="midnightblue" d="M280.996,-121.887C297.97,-139.341 326.819,-166.081 357,-181 364.819,-184.865 373.442,-187.957 382.084,-190.428"/>
<polygon fill="midnightblue" stroke="midnightblue" points="283.496,-119.437 274.071,-114.597 278.421,-124.258 283.496,-119.437"/>
</g>
<!-- Node4 -->
<g id="node4" class="node"><title>Node4</title>
<g id="a_node4"><a xlink:href="class_ogre_1_1_g_l_copying_r_t_t_manager.html" target="_top" xlink:title="Simple, copying manager/factory for RenderTextures. ">
<polygon fill="none" stroke="black" points="366.5,-152.5 366.5,-171.5 515.5,-171.5 515.5,-152.5 366.5,-152.5"/>
<text text-anchor="middle" x="441" y="-159.5" font-family="Helvetica,sans-Serif" font-size="10.00">Ogre::GLCopyingRTTManager</text>
</a>
</g>
</g>
<!-- Node1&#45;&gt;Node4 -->
<g id="edge3" class="edge"><title>Node1&#45;&gt;Node4</title>
<path fill="none" stroke="midnightblue" d="M295.07,-118.773C312.762,-126.635 335.849,-136.24 357,-143 368.124,-146.555 380.286,-149.725 391.787,-152.41"/>
<polygon fill="midnightblue" stroke="midnightblue" points="296.398,-115.532 285.843,-114.614 293.521,-121.914 296.398,-115.532"/>
</g>
<!-- Node5 -->
<g id="node5" class="node"><title>Node5</title>
<g id="a_node5"><a xlink:href="class_ogre_1_1_g_l_e_s2_copying_r_t_t_manager.html" target="_top" xlink:title="Simple, copying manager/factory for RenderTextures. ">
<polygon fill="none" stroke="black" points="357,-114.5 357,-133.5 525,-133.5 525,-114.5 357,-114.5"/>
<text text-anchor="middle" x="441" y="-121.5" font-family="Helvetica,sans-Serif" font-size="10.00">Ogre::GLES2CopyingRTTManager</text>
</a>
</g>
</g>
<!-- Node1&#45;&gt;Node5 -->
<g id="edge4" class="edge"><title>Node1&#45;&gt;Node5</title>
<path fill="none" stroke="midnightblue" d="M331.238,-112.158C339.606,-113.069 348.256,-114.011 356.852,-114.947"/>
<polygon fill="midnightblue" stroke="midnightblue" points="331.513,-108.667 321.193,-111.064 330.755,-115.626 331.513,-108.667"/>
</g>
<!-- Node6 -->
<g id="node6" class="node"><title>Node6</title>
<g id="a_node6"><a xlink:href="class_ogre_1_1_g_l_e_s2_f_b_o_manager.html" target="_top" xlink:title="Factory for GL ES 2 Frame Buffer Objects, and related things. ">
<polygon fill="none" stroke="black" points="374.5,-76.5 374.5,-95.5 507.5,-95.5 507.5,-76.5 374.5,-76.5"/>
<text text-anchor="middle" x="441" y="-83.5" font-family="Helvetica,sans-Serif" font-size="10.00">Ogre::GLES2FBOManager</text>
</a>
</g>
</g>
<!-- Node1&#45;&gt;Node6 -->
<g id="edge5" class="edge"><title>Node1&#45;&gt;Node6</title>
<path fill="none" stroke="midnightblue" d="M331.315,-97.8339C345.443,-96.2956 360.369,-94.6704 374.485,-93.1334"/>
<polygon fill="midnightblue" stroke="midnightblue" points="330.755,-94.3741 321.193,-98.936 331.513,-101.333 330.755,-94.3741"/>
</g>
<!-- Node7 -->
<g id="node7" class="node"><title>Node7</title>
<g id="a_node7"><a xlink:href="class_ogre_1_1_g_l_f_b_o_manager.html" target="_top" xlink:title="Factory for GL Frame Buffer Objects, and related things. ">
<polygon fill="none" stroke="black" points="384,-38.5 384,-57.5 498,-57.5 498,-38.5 384,-38.5"/>
<text text-anchor="middle" x="441" y="-45.5" font-family="Helvetica,sans-Serif" font-size="10.00">Ogre::GLFBOManager</text>
</a>
</g>
</g>
<!-- Node1&#45;&gt;Node7 -->
<g id="edge6" class="edge"><title>Node1&#45;&gt;Node7</title>
<path fill="none" stroke="midnightblue" d="M295.07,-91.2271C312.762,-83.3651 335.849,-73.7598 357,-67 368.124,-63.4449 380.286,-60.2746 391.787,-57.5902"/>
<polygon fill="midnightblue" stroke="midnightblue" points="293.521,-88.086 285.843,-95.3864 296.398,-94.4677 293.521,-88.086"/>
</g>
<!-- Node8 -->
<g id="node8" class="node"><title>Node8</title>
<g id="a_node8"><a xlink:href="class_ogre_1_1_g_l_p_b_r_t_t_manager.html" target="_top" xlink:title="Manager for rendertextures and PBuffers (offscreen rendering contexts) ">
<polygon fill="none" stroke="black" points="377.5,-0.5 377.5,-19.5 504.5,-19.5 504.5,-0.5 377.5,-0.5"/>
<text text-anchor="middle" x="441" y="-7.5" font-family="Helvetica,sans-Serif" font-size="10.00">Ogre::GLPBRTTManager</text>
</a>
</g>
</g>
<!-- Node1&#45;&gt;Node8 -->
<g id="edge7" class="edge"><title>Node1&#45;&gt;Node8</title>
<path fill="none" stroke="midnightblue" d="M280.996,-88.1129C297.97,-70.6586 326.819,-43.9185 357,-29 364.819,-25.1352 373.442,-22.0427 382.084,-19.5717"/>
<polygon fill="midnightblue" stroke="midnightblue" points="278.421,-85.7424 274.071,-95.4032 283.496,-90.5633 278.421,-85.7424"/>
</g>
<!-- Node2 -->
<g id="node2" class="node"><title>Node2</title>
<g id="a_node2"><a xlink:href="class_ogre_1_1_singleton.html" target="_top" xlink:title="Ogre::Singleton\&lt; GLRTTManager \&gt;">
<polygon fill="none" stroke="black" points="0,-95.5 0,-114.5 172,-114.5 172,-95.5 0,-95.5"/>
<text text-anchor="middle" x="86" y="-102.5" font-family="Helvetica,sans-Serif" font-size="10.00">Ogre::Singleton&lt; GLRTTManager &gt;</text>
</a>
</g>
</g>
<!-- Node2&#45;&gt;Node1 -->
<g id="edge1" class="edge"><title>Node2&#45;&gt;Node1</title>
<path fill="none" stroke="midnightblue" d="M182.41,-105C191.133,-105 199.762,-105 207.953,-105"/>
<polygon fill="midnightblue" stroke="midnightblue" points="182.148,-101.5 172.148,-105 182.148,-108.5 182.148,-101.5"/>
</g>
</g>
</svg>
