<?xml version="1.0" encoding="UTF-8" standalone="no"?>
<!DOCTYPE svg PUBLIC "-//W3C//DTD SVG 1.1//EN"
 "http://www.w3.org/Graphics/SVG/1.1/DTD/svg11.dtd">
<!-- Generated by graphviz version 2.38.0 (20140413.2041)
 -->
<!-- Title: Ogre::VertexDeclaration Pages: 1 -->
<svg width="443pt" height="104pt"
 viewBox="0.00 0.00 443.00 104.00" xmlns="http://www.w3.org/2000/svg" xmlns:xlink="http://www.w3.org/1999/xlink">
<g id="graph0" class="graph" transform="scale(1 1) rotate(0) translate(4 100)">
<title>Ogre::VertexDeclaration</title>
<!-- Node1 -->
<g id="node1" class="node"><title>Node1</title>
<polygon fill="#bfbfbf" stroke="black" points="124,-38.5 124,-57.5 246,-57.5 246,-38.5 124,-38.5"/>
<text text-anchor="middle" x="185" y="-45.5" font-family="Helvetica,sans-Serif" font-size="10.00">Ogre::VertexDeclaration</text>
</g>
<!-- Node3 -->
<g id="node3" class="node"><title>Node3</title>
<g id="a_node3"><a xlink:href="class_ogre_1_1_d3_d11_vertex_declaration.html" target="_top" xlink:title="Specialisation of VertexDeclaration for D3D11. ">
<polygon fill="none" stroke="black" points="282.5,-76.5 282.5,-95.5 434.5,-95.5 434.5,-76.5 282.5,-76.5"/>
<text text-anchor="middle" x="358.5" y="-83.5" font-family="Helvetica,sans-Serif" font-size="10.00">Ogre::D3D11VertexDeclaration</text>
</a>
</g>
</g>
<!-- Node1&#45;&gt;Node3 -->
<g id="edge2" class="edge"><title>Node1&#45;&gt;Node3</title>
<path fill="none" stroke="midnightblue" d="M239.041,-59.7526C263.291,-65.1258 291.647,-71.4086 314.535,-76.4799"/>
<polygon fill="midnightblue" stroke="midnightblue" points="239.797,-56.3352 229.277,-57.589 238.283,-63.1695 239.797,-56.3352"/>
</g>
<!-- Node4 -->
<g id="node4" class="node"><title>Node4</title>
<g id="a_node4"><a xlink:href="class_ogre_1_1_d3_d9_vertex_declaration.html" target="_top" xlink:title="Specialisation of VertexDeclaration for D3D9. ">
<polygon fill="none" stroke="black" points="285,-38.5 285,-57.5 432,-57.5 432,-38.5 285,-38.5"/>
<text text-anchor="middle" x="358.5" y="-45.5" font-family="Helvetica,sans-Serif" font-size="10.00">Ogre::D3D9VertexDeclaration</text>
</a>
</g>
</g>
<!-- Node1&#45;&gt;Node4 -->
<g id="edge3" class="edge"><title>Node1&#45;&gt;Node4</title>
<path fill="none" stroke="midnightblue" d="M256.521,-48C265.9,-48 275.53,-48 284.942,-48"/>
<polygon fill="midnightblue" stroke="midnightblue" points="256.465,-44.5001 246.464,-48 256.464,-51.5001 256.465,-44.5001"/>
</g>
<!-- Node5 -->
<g id="node5" class="node"><title>Node5</title>
<g id="a_node5"><a xlink:href="class_ogre_1_1_g_l_e_s2_vertex_declaration.html" target="_top" xlink:title="Specialisation of VertexDeclaration for OpenGL ES 2 Vertex Array Object usage. ">
<polygon fill="none" stroke="black" points="282,-0.5 282,-19.5 435,-19.5 435,-0.5 282,-0.5"/>
<text text-anchor="middle" x="358.5" y="-7.5" font-family="Helvetica,sans-Serif" font-size="10.00">Ogre::GLES2VertexDeclaration</text>
</a>
</g>
</g>
<!-- Node1&#45;&gt;Node5 -->
<g id="edge4" class="edge"><title>Node1&#45;&gt;Node5</title>
<path fill="none" stroke="midnightblue" d="M239.041,-36.2474C263.291,-30.8742 291.647,-24.5914 314.535,-19.5201"/>
<polygon fill="midnightblue" stroke="midnightblue" points="238.283,-32.8305 229.277,-38.411 239.797,-39.6648 238.283,-32.8305"/>
</g>
<!-- Node2 -->
<g id="node2" class="node"><title>Node2</title>
<g id="a_node2"><a xlink:href="class_ogre_1_1_allocated_object.html" target="_top" xlink:title="Superclass for all objects that wish to use custom memory allocators when their new / delete operator...">
<polygon fill="none" stroke="black" points="0,-38.5 0,-57.5 88,-57.5 88,-38.5 0,-38.5"/>
<text text-anchor="middle" x="44" y="-45.5" font-family="Helvetica,sans-Serif" font-size="10.00">VertexDataAlloc</text>
</a>
</g>
</g>
<!-- Node2&#45;&gt;Node1 -->
<g id="edge1" class="edge"><title>Node2&#45;&gt;Node1</title>
<path fill="none" stroke="midnightblue" d="M98.2699,-48C106.676,-48 115.417,-48 123.964,-48"/>
<polygon fill="midnightblue" stroke="midnightblue" points="98.2186,-44.5001 88.2185,-48 98.2185,-51.5001 98.2186,-44.5001"/>
</g>
</g>
</svg>
