<?xml version="1.0" encoding="UTF-8" standalone="no"?>
<!DOCTYPE svg PUBLIC "-//W3C//DTD SVG 1.1//EN"
 "http://www.w3.org/Graphics/SVG/1.1/DTD/svg11.dtd">
<!-- Generated by graphviz version 2.38.0 (20140413.2041)
 -->
<!-- Title: Ogre::RenderTexture Pages: 1 -->
<svg width="755pt" height="192pt"
 viewBox="0.00 0.00 755.00 192.00" xmlns="http://www.w3.org/2000/svg" xmlns:xlink="http://www.w3.org/1999/xlink">
<g id="graph0" class="graph" transform="scale(1 1) rotate(0) translate(4 188)">
<title>Ogre::RenderTexture</title>
<!-- Node1 -->
<g id="node1" class="node"><title>Node1</title>
<polygon fill="#bfbfbf" stroke="black" points="262,-120.5 262,-139.5 370,-139.5 370,-120.5 262,-120.5"/>
<text text-anchor="middle" x="316" y="-127.5" font-family="Helvetica,sans-Serif" font-size="10.00">Ogre::RenderTexture</text>
</g>
<!-- Node4 -->
<g id="node4" class="node"><title>Node4</title>
<g id="a_node4"><a xlink:href="class_ogre_1_1_d3_d11_render_texture.html" target="_top" xlink:title="RenderTexture implementation for D3D11. ">
<polygon fill="none" stroke="black" points="406,-158.5 406,-177.5 545,-177.5 545,-158.5 406,-158.5"/>
<text text-anchor="middle" x="475.5" y="-165.5" font-family="Helvetica,sans-Serif" font-size="10.00">Ogre::D3D11RenderTexture</text>
</a>
</g>
</g>
<!-- Node1&#45;&gt;Node4 -->
<g id="edge3" class="edge"><title>Node1&#45;&gt;Node4</title>
<path fill="none" stroke="midnightblue" d="M366.604,-141.968C388.675,-147.293 414.303,-153.476 435.042,-158.48"/>
<polygon fill="midnightblue" stroke="midnightblue" points="367.286,-138.532 356.744,-139.589 365.644,-145.337 367.286,-138.532"/>
</g>
<!-- Node5 -->
<g id="node5" class="node"><title>Node5</title>
<g id="a_node5"><a xlink:href="class_ogre_1_1_d3_d9_render_texture.html" target="_top" xlink:title="RenderTexture implementation for D3D9. ">
<polygon fill="none" stroke="black" points="408.5,-120.5 408.5,-139.5 542.5,-139.5 542.5,-120.5 408.5,-120.5"/>
<text text-anchor="middle" x="475.5" y="-127.5" font-family="Helvetica,sans-Serif" font-size="10.00">Ogre::D3D9RenderTexture</text>
</a>
</g>
</g>
<!-- Node1&#45;&gt;Node5 -->
<g id="edge4" class="edge"><title>Node1&#45;&gt;Node5</title>
<path fill="none" stroke="midnightblue" d="M380.529,-130C389.702,-130 399.161,-130 408.383,-130"/>
<polygon fill="midnightblue" stroke="midnightblue" points="380.322,-126.5 370.322,-130 380.322,-133.5 380.322,-126.5"/>
</g>
<!-- Node6 -->
<g id="node6" class="node"><title>Node6</title>
<g id="a_node6"><a xlink:href="class_ogre_1_1_g_l_render_texture.html" target="_top" xlink:title="Base class for GL Render Textures. ">
<polygon fill="none" stroke="black" points="415,-82.5 415,-101.5 536,-101.5 536,-82.5 415,-82.5"/>
<text text-anchor="middle" x="475.5" y="-89.5" font-family="Helvetica,sans-Serif" font-size="10.00">Ogre::GLRenderTexture</text>
</a>
</g>
</g>
<!-- Node1&#45;&gt;Node6 -->
<g id="edge5" class="edge"><title>Node1&#45;&gt;Node6</title>
<path fill="none" stroke="midnightblue" d="M366.604,-118.032C388.675,-112.707 414.303,-106.524 435.042,-101.52"/>
<polygon fill="midnightblue" stroke="midnightblue" points="365.644,-114.663 356.744,-120.411 367.286,-121.468 365.644,-114.663"/>
</g>
<!-- Node2 -->
<g id="node2" class="node"><title>Node2</title>
<g id="a_node2"><a xlink:href="class_ogre_1_1_render_target.html" target="_top" xlink:title="A &#39;canvas&#39; which can receive the results of a rendering operation. ">
<polygon fill="none" stroke="black" points="123,-120.5 123,-139.5 226,-139.5 226,-120.5 123,-120.5"/>
<text text-anchor="middle" x="174.5" y="-127.5" font-family="Helvetica,sans-Serif" font-size="10.00">Ogre::RenderTarget</text>
</a>
</g>
</g>
<!-- Node2&#45;&gt;Node1 -->
<g id="edge1" class="edge"><title>Node2&#45;&gt;Node1</title>
<path fill="none" stroke="midnightblue" d="M236.41,-130C244.832,-130 253.429,-130 261.698,-130"/>
<polygon fill="midnightblue" stroke="midnightblue" points="236.257,-126.5 226.257,-130 236.257,-133.5 236.257,-126.5"/>
</g>
<!-- Node3 -->
<g id="node3" class="node"><title>Node3</title>
<g id="a_node3"><a xlink:href="class_ogre_1_1_allocated_object.html" target="_top" xlink:title="Superclass for all objects that wish to use custom memory allocators when their new / delete operator...">
<polygon fill="none" stroke="black" points="0,-120.5 0,-139.5 87,-139.5 87,-120.5 0,-120.5"/>
<text text-anchor="middle" x="43.5" y="-127.5" font-family="Helvetica,sans-Serif" font-size="10.00">RenderSysAlloc</text>
</a>
</g>
</g>
<!-- Node3&#45;&gt;Node2 -->
<g id="edge2" class="edge"><title>Node3&#45;&gt;Node2</title>
<path fill="none" stroke="midnightblue" d="M97.2458,-130C105.713,-130 114.461,-130 122.877,-130"/>
<polygon fill="midnightblue" stroke="midnightblue" points="97.097,-126.5 87.0969,-130 97.0969,-133.5 97.097,-126.5"/>
</g>
<!-- Node7 -->
<g id="node7" class="node"><title>Node7</title>
<g id="a_node7"><a xlink:href="class_ogre_1_1_g_l3_plus_f_b_o_render_texture.html" target="_top" xlink:title="RenderTexture for GL FBO. ">
<polygon fill="none" stroke="black" points="581,-164.5 581,-183.5 747,-183.5 747,-164.5 581,-164.5"/>
<text text-anchor="middle" x="664" y="-171.5" font-family="Helvetica,sans-Serif" font-size="10.00">Ogre::GL3PlusFBORenderTexture</text>
</a>
</g>
</g>
<!-- Node6&#45;&gt;Node7 -->
<g id="edge6" class="edge"><title>Node6&#45;&gt;Node7</title>
<path fill="none" stroke="midnightblue" d="M535.051,-105.505C538.521,-107.135 541.87,-108.959 545,-111 566.165,-124.801 559.544,-141.656 581,-155 587.205,-158.859 594.114,-161.935 601.215,-164.387"/>
<polygon fill="midnightblue" stroke="midnightblue" points="536.222,-102.202 525.642,-101.628 533.555,-108.674 536.222,-102.202"/>
</g>
<!-- Node8 -->
<g id="node8" class="node"><title>Node8</title>
<g id="a_node8"><a xlink:href="class_ogre_1_1_g_l_copying_render_texture.html" target="_top" xlink:title="Ogre::GLCopyingRenderTexture">
<polygon fill="none" stroke="black" points="585.5,-126.5 585.5,-145.5 742.5,-145.5 742.5,-126.5 585.5,-126.5"/>
<text text-anchor="middle" x="664" y="-133.5" font-family="Helvetica,sans-Serif" font-size="10.00">Ogre::GLCopyingRenderTexture</text>
</a>
</g>
</g>
<!-- Node6&#45;&gt;Node8 -->
<g id="edge7" class="edge"><title>Node6&#45;&gt;Node8</title>
<path fill="none" stroke="midnightblue" d="M526.84,-103.876C556.882,-110.964 594.524,-119.845 622.611,-126.471"/>
<polygon fill="midnightblue" stroke="midnightblue" points="527.504,-100.437 516.968,-101.547 525.897,-107.25 527.504,-100.437"/>
</g>
<!-- Node9 -->
<g id="node9" class="node"><title>Node9</title>
<g id="a_node9"><a xlink:href="class_ogre_1_1_g_l_e_s2_copying_render_texture.html" target="_top" xlink:title="Ogre::GLES2CopyingRender\lTexture">
<polygon fill="none" stroke="black" points="592.5,-77 592.5,-107 735.5,-107 735.5,-77 592.5,-77"/>
<text text-anchor="start" x="600.5" y="-95" font-family="Helvetica,sans-Serif" font-size="10.00">Ogre::GLES2CopyingRender</text>
<text text-anchor="middle" x="664" y="-84" font-family="Helvetica,sans-Serif" font-size="10.00">Texture</text>
</a>
</g>
</g>
<!-- Node6&#45;&gt;Node9 -->
<g id="edge8" class="edge"><title>Node6&#45;&gt;Node9</title>
<path fill="none" stroke="midnightblue" d="M546.278,-92C561.322,-92 577.239,-92 592.318,-92"/>
<polygon fill="midnightblue" stroke="midnightblue" points="546.023,-88.5001 536.023,-92 546.022,-95.5001 546.023,-88.5001"/>
</g>
<!-- Node10 -->
<g id="node10" class="node"><title>Node10</title>
<g id="a_node10"><a xlink:href="class_ogre_1_1_g_l_f_b_o_render_texture.html" target="_top" xlink:title="RenderTexture for GL FBO. ">
<polygon fill="none" stroke="black" points="593.5,-38.5 593.5,-57.5 734.5,-57.5 734.5,-38.5 593.5,-38.5"/>
<text text-anchor="middle" x="664" y="-45.5" font-family="Helvetica,sans-Serif" font-size="10.00">Ogre::GLFBORenderTexture</text>
</a>
</g>
</g>
<!-- Node6&#45;&gt;Node10 -->
<g id="edge9" class="edge"><title>Node6&#45;&gt;Node10</title>
<path fill="none" stroke="midnightblue" d="M526.109,-80.0553C543.466,-75.8965 563.089,-71.2174 581,-67 594.229,-63.8851 608.668,-60.5259 621.692,-57.5109"/>
<polygon fill="midnightblue" stroke="midnightblue" points="525.09,-76.7004 516.182,-82.4363 526.723,-83.5074 525.09,-76.7004"/>
</g>
<!-- Node11 -->
<g id="node11" class="node"><title>Node11</title>
<g id="a_node11"><a xlink:href="class_ogre_1_1_g_l_p_b_render_texture.html" target="_top" xlink:title="Ogre::GLPBRenderTexture">
<polygon fill="none" stroke="black" points="597,-0.5 597,-19.5 731,-19.5 731,-0.5 597,-0.5"/>
<text text-anchor="middle" x="664" y="-7.5" font-family="Helvetica,sans-Serif" font-size="10.00">Ogre::GLPBRenderTexture</text>
</a>
</g>
</g>
<!-- Node6&#45;&gt;Node11 -->
<g id="edge10" class="edge"><title>Node6&#45;&gt;Node11</title>
<path fill="none" stroke="midnightblue" d="M497.547,-76.5721C517.94,-62.3047 550.217,-41.478 581,-29 590.345,-25.2122 600.609,-22.0859 610.618,-19.5398"/>
<polygon fill="midnightblue" stroke="midnightblue" points="495.437,-73.7777 489.318,-82.4268 499.495,-79.4815 495.437,-73.7777"/>
</g>
</g>
</svg>
