<?xml version="1.0" encoding="UTF-8" standalone="no"?>
<!DOCTYPE svg PUBLIC "-//W3C//DTD SVG 1.1//EN"
 "http://www.w3.org/Graphics/SVG/1.1/DTD/svg11.dtd">
<!-- Generated by graphviz version 2.38.0 (20140413.2041)
 -->
<!-- Title: Ogre::HighLevelGpuProgram Pages: 1 -->
<svg width="721pt" height="154pt"
 viewBox="0.00 0.00 721.00 153.50" xmlns="http://www.w3.org/2000/svg" xmlns:xlink="http://www.w3.org/1999/xlink">
<g id="graph0" class="graph" transform="scale(1 1) rotate(0) translate(4 149.5)">
<title>Ogre::HighLevelGpuProgram</title>
<!-- Node1 -->
<g id="node1" class="node"><title>Node1</title>
<polygon fill="#bfbfbf" stroke="black" points="399,-69 399,-88 541,-88 541,-69 399,-69"/>
<text text-anchor="middle" x="470" y="-76" font-family="Helvetica,sans-Serif" font-size="10.00">Ogre::HighLevelGpuProgram</text>
</g>
<!-- Node6 -->
<g id="node6" class="node"><title>Node6</title>
<g id="a_node6"><a xlink:href="class_ogre_1_1_cg_program.html" target="_top" xlink:title="Specialisation of HighLevelGpuProgram to provide support for nVidia&#39;s CG language. ">
<polygon fill="none" stroke="black" points="598.5,-126 598.5,-145 691.5,-145 691.5,-126 598.5,-126"/>
<text text-anchor="middle" x="645" y="-133" font-family="Helvetica,sans-Serif" font-size="10.00">Ogre::CgProgram</text>
</a>
</g>
</g>
<!-- Node1&#45;&gt;Node6 -->
<g id="edge5" class="edge"><title>Node1&#45;&gt;Node6</title>
<path fill="none" stroke="midnightblue" d="M505.693,-91.609C526.296,-99.2253 553.003,-108.806 577,-116.5 587.247,-119.785 598.467,-123.083 608.745,-125.987"/>
<polygon fill="midnightblue" stroke="midnightblue" points="506.701,-88.2496 496.108,-88.0447 504.261,-94.8107 506.701,-88.2496"/>
</g>
<!-- Node7 -->
<g id="node7" class="node"><title>Node7</title>
<g id="a_node7"><a xlink:href="class_ogre_1_1_d3_d11_h_l_s_l_program.html" target="_top" xlink:title="Specialization of HighLevelGpuProgram to provide support for D3D11 High&#45;Level Shader Language (HLSL)...">
<polygon fill="none" stroke="black" points="577,-88 577,-107 713,-107 713,-88 577,-88"/>
<text text-anchor="middle" x="645" y="-95" font-family="Helvetica,sans-Serif" font-size="10.00">Ogre::D3D11HLSLProgram</text>
</a>
</g>
</g>
<!-- Node1&#45;&gt;Node7 -->
<g id="edge6" class="edge"><title>Node1&#45;&gt;Node7</title>
<path fill="none" stroke="midnightblue" d="M551.309,-87.32C559.827,-88.2556 568.426,-89.2 576.773,-90.1167"/>
<polygon fill="midnightblue" stroke="midnightblue" points="551.688,-83.8407 541.366,-86.228 550.924,-90.7989 551.688,-83.8407"/>
</g>
<!-- Node8 -->
<g id="node8" class="node"><title>Node8</title>
<g id="a_node8"><a xlink:href="class_ogre_1_1_d3_d9_h_l_s_l_program.html" target="_top" xlink:title="Specialisation of HighLevelGpuProgram to provide support for D3D9 High&#45;Level Shader Language (HLSL)...">
<polygon fill="none" stroke="black" points="579.5,-50 579.5,-69 710.5,-69 710.5,-50 579.5,-50"/>
<text text-anchor="middle" x="645" y="-57" font-family="Helvetica,sans-Serif" font-size="10.00">Ogre::D3D9HLSLProgram</text>
</a>
</g>
</g>
<!-- Node1&#45;&gt;Node8 -->
<g id="edge7" class="edge"><title>Node1&#45;&gt;Node8</title>
<path fill="none" stroke="midnightblue" d="M551.433,-69.6663C560.765,-68.6415 570.19,-67.6063 579.274,-66.6087"/>
<polygon fill="midnightblue" stroke="midnightblue" points="550.924,-66.2011 541.366,-70.772 551.688,-73.1593 550.924,-66.2011"/>
</g>
<!-- Node9 -->
<g id="node9" class="node"><title>Node9</title>
<g id="a_node9"><a xlink:href="class_ogre_1_1_unified_high_level_gpu_program.html" target="_top" xlink:title="Specialisation of HighLevelGpuProgram which just delegates its implementation to one other high level...">
<polygon fill="none" stroke="black" points="577,-0.5 577,-30.5 713,-30.5 713,-0.5 577,-0.5"/>
<text text-anchor="start" x="585" y="-18.5" font-family="Helvetica,sans-Serif" font-size="10.00">Ogre::UnifiedHighLevelGpu</text>
<text text-anchor="middle" x="645" y="-7.5" font-family="Helvetica,sans-Serif" font-size="10.00">Program</text>
</a>
</g>
</g>
<!-- Node1&#45;&gt;Node9 -->
<g id="edge8" class="edge"><title>Node1&#45;&gt;Node9</title>
<path fill="none" stroke="midnightblue" d="M507.017,-65.384C534.882,-55.2366 573.5,-41.1736 602.631,-30.565"/>
<polygon fill="midnightblue" stroke="midnightblue" points="505.474,-62.2211 497.275,-68.9317 507.869,-68.7985 505.474,-62.2211"/>
</g>
<!-- Node2 -->
<g id="node2" class="node"><title>Node2</title>
<g id="a_node2"><a xlink:href="class_ogre_1_1_gpu_program.html" target="_top" xlink:title="Defines a program which runs on the GPU such as a vertex or fragment program. ">
<polygon fill="none" stroke="black" points="265,-69 265,-88 363,-88 363,-69 265,-69"/>
<text text-anchor="middle" x="314" y="-76" font-family="Helvetica,sans-Serif" font-size="10.00">Ogre::GpuProgram</text>
</a>
</g>
</g>
<!-- Node2&#45;&gt;Node1 -->
<g id="edge1" class="edge"><title>Node2&#45;&gt;Node1</title>
<path fill="none" stroke="midnightblue" d="M373.307,-78.5C381.659,-78.5 390.322,-78.5 398.872,-78.5"/>
<polygon fill="midnightblue" stroke="midnightblue" points="373.304,-75.0001 363.304,-78.5 373.304,-82.0001 373.304,-75.0001"/>
</g>
<!-- Node3 -->
<g id="node3" class="node"><title>Node3</title>
<g id="a_node3"><a xlink:href="class_ogre_1_1_resource.html" target="_top" xlink:title="Abstract class representing a loadable resource (e.g. ">
<polygon fill="none" stroke="black" points="143,-69 143,-88 229,-88 229,-69 143,-69"/>
<text text-anchor="middle" x="186" y="-76" font-family="Helvetica,sans-Serif" font-size="10.00">Ogre::Resource</text>
</a>
</g>
</g>
<!-- Node3&#45;&gt;Node2 -->
<g id="edge2" class="edge"><title>Node3&#45;&gt;Node2</title>
<path fill="none" stroke="midnightblue" d="M239.441,-78.5C247.889,-78.5 256.599,-78.5 264.938,-78.5"/>
<polygon fill="midnightblue" stroke="midnightblue" points="239.307,-75.0001 229.307,-78.5 239.307,-82.0001 239.307,-75.0001"/>
</g>
<!-- Node4 -->
<g id="node4" class="node"><title>Node4</title>
<g id="a_node4"><a xlink:href="class_ogre_1_1_string_interface.html" target="_top" xlink:title="Class defining the common interface which classes can use to present a reflection&#45;style, self&#45;defining parameter set to callers. ">
<polygon fill="none" stroke="black" points="0,-88 0,-107 107,-107 107,-88 0,-88"/>
<text text-anchor="middle" x="53.5" y="-95" font-family="Helvetica,sans-Serif" font-size="10.00">Ogre::StringInterface</text>
</a>
</g>
</g>
<!-- Node4&#45;&gt;Node3 -->
<g id="edge3" class="edge"><title>Node4&#45;&gt;Node3</title>
<path fill="none" stroke="midnightblue" d="M117.331,-88.3523C126.011,-87.0884 134.749,-85.8162 142.929,-84.6253"/>
<polygon fill="midnightblue" stroke="midnightblue" points="116.595,-84.9224 107.203,-89.8267 117.603,-91.8494 116.595,-84.9224"/>
</g>
<!-- Node5 -->
<g id="node5" class="node"><title>Node5</title>
<g id="a_node5"><a xlink:href="class_ogre_1_1_allocated_object.html" target="_top" xlink:title="Superclass for all objects that wish to use custom memory allocators when their new / delete operator...">
<polygon fill="none" stroke="black" points="13.5,-50 13.5,-69 93.5,-69 93.5,-50 13.5,-50"/>
<text text-anchor="middle" x="53.5" y="-57" font-family="Helvetica,sans-Serif" font-size="10.00">ResourceAlloc</text>
</a>
</g>
</g>
<!-- Node5&#45;&gt;Node3 -->
<g id="edge4" class="edge"><title>Node5&#45;&gt;Node3</title>
<path fill="none" stroke="midnightblue" d="M103.713,-66.6651C116.542,-68.5329 130.253,-70.5291 142.69,-72.3399"/>
<polygon fill="midnightblue" stroke="midnightblue" points="104.054,-63.178 93.6543,-65.2006 103.046,-70.1049 104.054,-63.178"/>
</g>
</g>
</svg>
