<?xml version="1.0" encoding="UTF-8" standalone="no"?>
<!DOCTYPE svg PUBLIC "-//W3C//DTD SVG 1.1//EN"
 "http://www.w3.org/Graphics/SVG/1.1/DTD/svg11.dtd">
<!-- Generated by graphviz version 2.38.0 (20140413.2041)
 -->
<!-- Title: Ogre::HardwareBuffer Pages: 1 -->
<svg width="958pt" height="1371pt"
 viewBox="0.00 0.00 958.00 1370.50" xmlns="http://www.w3.org/2000/svg" xmlns:xlink="http://www.w3.org/1999/xlink">
<g id="graph0" class="graph" transform="scale(1 1) rotate(0) translate(4 1366.5)">
<title>Ogre::HardwareBuffer</title>
<!-- Node1 -->
<g id="node1" class="node"><title>Node1</title>
<polygon fill="#bfbfbf" stroke="black" points="101,-911.5 101,-930.5 213,-930.5 213,-911.5 101,-911.5"/>
<text text-anchor="middle" x="157" y="-918.5" font-family="Helvetica,sans-Serif" font-size="10.00">Ogre::HardwareBuffer</text>
</g>
<!-- Node3 -->
<g id="node3" class="node"><title>Node3</title>
<g id="a_node3"><a xlink:href="class_ogre_1_1_d3_d11_hardware_buffer.html" target="_top" xlink:title="Base implementation of a D3D11 buffer, dealing with all the common aspects. ">
<polygon fill="none" stroke="black" points="250.5,-1277.5 250.5,-1296.5 393.5,-1296.5 393.5,-1277.5 250.5,-1277.5"/>
<text text-anchor="middle" x="322" y="-1284.5" font-family="Helvetica,sans-Serif" font-size="10.00">Ogre::D3D11HardwareBuffer</text>
</a>
</g>
</g>
<!-- Node1&#45;&gt;Node3 -->
<g id="edge2" class="edge"><title>Node1&#45;&gt;Node3</title>
<path fill="none" stroke="midnightblue" d="M160.548,-940.712C169.504,-1007.02 201.578,-1220.5 249,-1268 252.836,-1271.84 257.352,-1274.94 262.221,-1277.42"/>
<polygon fill="midnightblue" stroke="midnightblue" points="164.01,-940.196 159.227,-930.742 157.071,-941.115 164.01,-940.196"/>
</g>
<!-- Node4 -->
<g id="node4" class="node"><title>Node4</title>
<g id="a_node4"><a xlink:href="class_ogre_1_1_hardware_counter_buffer.html" target="_top" xlink:title="Specialisation of HardwareBuffer for a counter buffer. ">
<polygon fill="none" stroke="black" points="249,-1239.5 249,-1258.5 395,-1258.5 395,-1239.5 249,-1239.5"/>
<text text-anchor="middle" x="322" y="-1246.5" font-family="Helvetica,sans-Serif" font-size="10.00">Ogre::HardwareCounterBuffer</text>
</a>
</g>
</g>
<!-- Node1&#45;&gt;Node4 -->
<g id="edge3" class="edge"><title>Node1&#45;&gt;Node4</title>
<path fill="none" stroke="midnightblue" d="M167.329,-939.773C197.755,-1001 293.451,-1193.56 316.141,-1239.22"/>
<polygon fill="midnightblue" stroke="midnightblue" points="170.463,-938.214 162.878,-930.816 164.194,-941.329 170.463,-938.214"/>
</g>
<!-- Node8 -->
<g id="node8" class="node"><title>Node8</title>
<g id="a_node8"><a xlink:href="class_ogre_1_1_hardware_index_buffer.html" target="_top" xlink:title="Specialisation of HardwareBuffer for vertex index buffers, still abstract. ">
<polygon fill="none" stroke="black" points="254,-1004.5 254,-1023.5 390,-1023.5 390,-1004.5 254,-1004.5"/>
<text text-anchor="middle" x="322" y="-1011.5" font-family="Helvetica,sans-Serif" font-size="10.00">Ogre::HardwareIndexBuffer</text>
</a>
</g>
</g>
<!-- Node1&#45;&gt;Node8 -->
<g id="edge7" class="edge"><title>Node1&#45;&gt;Node8</title>
<path fill="none" stroke="midnightblue" d="M183.621,-935.618C217.252,-954.806 275.362,-987.961 304.017,-1004.31"/>
<polygon fill="midnightblue" stroke="midnightblue" points="185.25,-932.518 174.83,-930.602 181.781,-938.598 185.25,-932.518"/>
</g>
<!-- Node17 -->
<g id="node17" class="node"><title>Node17</title>
<g id="a_node17"><a xlink:href="class_ogre_1_1_hardware_pixel_buffer.html" target="_top" xlink:title="Specialisation of HardwareBuffer for a pixel buffer. ">
<polygon fill="none" stroke="black" points="255,-796.5 255,-815.5 389,-815.5 389,-796.5 255,-796.5"/>
<text text-anchor="middle" x="322" y="-803.5" font-family="Helvetica,sans-Serif" font-size="10.00">Ogre::HardwarePixelBuffer</text>
</a>
</g>
</g>
<!-- Node1&#45;&gt;Node17 -->
<g id="edge16" class="edge"><title>Node1&#45;&gt;Node17</title>
<path fill="none" stroke="midnightblue" d="M179.976,-905.495C214.067,-881.444 278.717,-835.831 307.076,-815.823"/>
<polygon fill="midnightblue" stroke="midnightblue" points="177.77,-902.768 171.617,-911.393 181.806,-908.488 177.77,-902.768"/>
</g>
<!-- Node30 -->
<g id="node30" class="node"><title>Node30</title>
<g id="a_node30"><a xlink:href="class_ogre_1_1_hardware_uniform_buffer.html" target="_top" xlink:title="Specialisation of HardwareBuffer for a uniform buffer. ">
<polygon fill="none" stroke="black" points="249,-558.5 249,-577.5 395,-577.5 395,-558.5 249,-558.5"/>
<text text-anchor="middle" x="322" y="-565.5" font-family="Helvetica,sans-Serif" font-size="10.00">Ogre::HardwareUniformBuffer</text>
</a>
</g>
</g>
<!-- Node1&#45;&gt;Node30 -->
<g id="edge29" class="edge"><title>Node1&#45;&gt;Node30</title>
<path fill="none" stroke="midnightblue" d="M166.729,-902.096C196.665,-837.265 294.538,-625.308 316.569,-577.596"/>
<polygon fill="midnightblue" stroke="midnightblue" points="163.544,-900.644 162.53,-911.19 169.9,-903.579 163.544,-900.644"/>
</g>
<!-- Node38 -->
<g id="node38" class="node"><title>Node38</title>
<g id="a_node38"><a xlink:href="class_ogre_1_1_hardware_vertex_buffer.html" target="_top" xlink:title="Specialisation of HardwareBuffer for a vertex buffer. ">
<polygon fill="none" stroke="black" points="252,-191.5 252,-210.5 392,-210.5 392,-191.5 252,-191.5"/>
<text text-anchor="middle" x="322" y="-198.5" font-family="Helvetica,sans-Serif" font-size="10.00">Ogre::HardwareVertexBuffer</text>
</a>
</g>
</g>
<!-- Node1&#45;&gt;Node38 -->
<g id="edge37" class="edge"><title>Node1&#45;&gt;Node38</title>
<path fill="none" stroke="midnightblue" d="M162.449,-901.35C186.578,-794.766 301.309,-287.98 318.77,-210.851"/>
<polygon fill="midnightblue" stroke="midnightblue" points="158.975,-900.84 160.181,-911.366 165.803,-902.386 158.975,-900.84"/>
</g>
<!-- Node2 -->
<g id="node2" class="node"><title>Node2</title>
<g id="a_node2"><a xlink:href="class_ogre_1_1_allocated_object.html" target="_top" xlink:title="Superclass for all objects that wish to use custom memory allocators when their new / delete operator...">
<polygon fill="none" stroke="black" points="0,-911.5 0,-930.5 65,-930.5 65,-911.5 0,-911.5"/>
<text text-anchor="middle" x="32.5" y="-918.5" font-family="Helvetica,sans-Serif" font-size="10.00">BufferAlloc</text>
</a>
</g>
</g>
<!-- Node2&#45;&gt;Node1 -->
<g id="edge1" class="edge"><title>Node2&#45;&gt;Node1</title>
<path fill="none" stroke="midnightblue" d="M75.1571,-921C83.4035,-921 92.1796,-921 100.795,-921"/>
<polygon fill="midnightblue" stroke="midnightblue" points="75.0468,-917.5 65.0468,-921 75.0468,-924.5 75.0468,-917.5"/>
</g>
<!-- Node5 -->
<g id="node5" class="node"><title>Node5</title>
<g id="a_node5"><a xlink:href="class_ogre_1_1_default_hardware_counter_buffer.html" target="_top" xlink:title="Specialisation of HardwareCounterBuffer for emulation. ">
<polygon fill="none" stroke="black" points="435.5,-1332 435.5,-1362 587.5,-1362 587.5,-1332 435.5,-1332"/>
<text text-anchor="start" x="443.5" y="-1350" font-family="Helvetica,sans-Serif" font-size="10.00">Ogre::DefaultHardwareCounter</text>
<text text-anchor="middle" x="511.5" y="-1339" font-family="Helvetica,sans-Serif" font-size="10.00">Buffer</text>
</a>
</g>
</g>
<!-- Node4&#45;&gt;Node5 -->
<g id="edge4" class="edge"><title>Node4&#45;&gt;Node5</title>
<path fill="none" stroke="midnightblue" d="M386.3,-1262.72C389.343,-1264.29 392.265,-1266.05 395,-1268 418.469,-1284.77 407.929,-1304.69 431,-1322 436.092,-1325.82 441.782,-1329.07 447.714,-1331.82"/>
<polygon fill="midnightblue" stroke="midnightblue" points="387.434,-1259.39 376.875,-1258.52 384.585,-1265.79 387.434,-1259.39"/>
</g>
<!-- Node6 -->
<g id="node6" class="node"><title>Node6</title>
<g id="a_node6"><a xlink:href="class_ogre_1_1_g_l3_plus_default_hardware_counter_buffer.html" target="_top" xlink:title="Specialisation of HardwareCounterBuffer for emulation. ">
<polygon fill="none" stroke="black" points="434,-1283 434,-1313 589,-1313 589,-1283 434,-1283"/>
<text text-anchor="start" x="442" y="-1301" font-family="Helvetica,sans-Serif" font-size="10.00">Ogre::GL3PlusDefaultHardware</text>
<text text-anchor="middle" x="511.5" y="-1290" font-family="Helvetica,sans-Serif" font-size="10.00">CounterBuffer</text>
</a>
</g>
</g>
<!-- Node4&#45;&gt;Node6 -->
<g id="edge5" class="edge"><title>Node4&#45;&gt;Node6</title>
<path fill="none" stroke="midnightblue" d="M369.308,-1261.1C394.587,-1267.71 426.114,-1275.95 452.961,-1282.96"/>
<polygon fill="midnightblue" stroke="midnightblue" points="370.157,-1257.71 359.597,-1258.56 368.387,-1264.48 370.157,-1257.71"/>
</g>
<!-- Node7 -->
<g id="node7" class="node"><title>Node7</title>
<g id="a_node7"><a xlink:href="class_ogre_1_1_g_l3_plus_hardware_counter_buffer.html" target="_top" xlink:title="Specialisation of HardwareCounterBuffer for OpenGL. ">
<polygon fill="none" stroke="black" points="432.5,-1234 432.5,-1264 590.5,-1264 590.5,-1234 432.5,-1234"/>
<text text-anchor="start" x="440.5" y="-1252" font-family="Helvetica,sans-Serif" font-size="10.00">Ogre::GL3PlusHardwareCounter</text>
<text text-anchor="middle" x="511.5" y="-1241" font-family="Helvetica,sans-Serif" font-size="10.00">Buffer</text>
</a>
</g>
</g>
<!-- Node4&#45;&gt;Node7 -->
<g id="edge6" class="edge"><title>Node4&#45;&gt;Node7</title>
<path fill="none" stroke="midnightblue" d="M405.307,-1249C414.307,-1249 423.45,-1249 432.397,-1249"/>
<polygon fill="midnightblue" stroke="midnightblue" points="405.224,-1245.5 395.224,-1249 405.224,-1252.5 405.224,-1245.5"/>
</g>
<!-- Node9 -->
<g id="node9" class="node"><title>Node9</title>
<g id="a_node9"><a xlink:href="class_ogre_1_1_d3_d11_hardware_index_buffer.html" target="_top" xlink:title="Ogre::D3D11HardwareIndex\lBuffer">
<polygon fill="none" stroke="black" points="441.5,-1185 441.5,-1215 581.5,-1215 581.5,-1185 441.5,-1185"/>
<text text-anchor="start" x="449.5" y="-1203" font-family="Helvetica,sans-Serif" font-size="10.00">Ogre::D3D11HardwareIndex</text>
<text text-anchor="middle" x="511.5" y="-1192" font-family="Helvetica,sans-Serif" font-size="10.00">Buffer</text>
</a>
</g>
</g>
<!-- Node8&#45;&gt;Node9 -->
<g id="edge8" class="edge"><title>Node8&#45;&gt;Node9</title>
<path fill="none" stroke="midnightblue" d="M330.74,-1033.22C345.292,-1066.94 379.931,-1136.79 431,-1175 436.213,-1178.9 442.05,-1182.2 448.131,-1184.99"/>
<polygon fill="midnightblue" stroke="midnightblue" points="333.815,-1031.5 326.726,-1023.63 327.358,-1034.2 333.815,-1031.5"/>
</g>
<!-- Node10 -->
<g id="node10" class="node"><title>Node10</title>
<g id="a_node10"><a xlink:href="class_ogre_1_1_d3_d9_hardware_index_buffer.html" target="_top" xlink:title="Ogre::D3D9HardwareIndexBuffer">
<polygon fill="none" stroke="black" points="431,-1146.5 431,-1165.5 592,-1165.5 592,-1146.5 431,-1146.5"/>
<text text-anchor="middle" x="511.5" y="-1153.5" font-family="Helvetica,sans-Serif" font-size="10.00">Ogre::D3D9HardwareIndexBuffer</text>
</a>
</g>
</g>
<!-- Node8&#45;&gt;Node10 -->
<g id="edge9" class="edge"><title>Node8&#45;&gt;Node10</title>
<path fill="none" stroke="midnightblue" d="M334.171,-1032.52C351.459,-1059.54 387.302,-1109.43 431,-1136 438.175,-1140.36 446.265,-1143.78 454.468,-1146.45"/>
<polygon fill="midnightblue" stroke="midnightblue" points="336.923,-1030.32 328.661,-1023.69 330.984,-1034.02 336.923,-1030.32"/>
</g>
<!-- Node11 -->
<g id="node11" class="node"><title>Node11</title>
<g id="a_node11"><a xlink:href="class_ogre_1_1_default_hardware_index_buffer.html" target="_top" xlink:title="Specialisation of HardwareIndexBuffer for emulation. ">
<polygon fill="none" stroke="black" points="441,-1097 441,-1127 582,-1127 582,-1097 441,-1097"/>
<text text-anchor="start" x="449" y="-1115" font-family="Helvetica,sans-Serif" font-size="10.00">Ogre::DefaultHardwareIndex</text>
<text text-anchor="middle" x="511.5" y="-1104" font-family="Helvetica,sans-Serif" font-size="10.00">Buffer</text>
</a>
</g>
</g>
<!-- Node8&#45;&gt;Node11 -->
<g id="edge10" class="edge"><title>Node8&#45;&gt;Node11</title>
<path fill="none" stroke="midnightblue" d="M342.683,-1029.89C363.555,-1046.11 398.005,-1071.08 431,-1087 438.688,-1090.71 447.055,-1094.04 455.38,-1096.96"/>
<polygon fill="midnightblue" stroke="midnightblue" points="344.633,-1026.97 334.612,-1023.53 340.3,-1032.47 344.633,-1026.97"/>
</g>
<!-- Node12 -->
<g id="node12" class="node"><title>Node12</title>
<g id="a_node12"><a xlink:href="class_ogre_1_1_g_l3_plus_default_hardware_index_buffer.html" target="_top" xlink:title="Specialisation of HardwareIndexBuffer for emulation. ">
<polygon fill="none" stroke="black" points="434,-1048 434,-1078 589,-1078 589,-1048 434,-1048"/>
<text text-anchor="start" x="442" y="-1066" font-family="Helvetica,sans-Serif" font-size="10.00">Ogre::GL3PlusDefaultHardware</text>
<text text-anchor="middle" x="511.5" y="-1055" font-family="Helvetica,sans-Serif" font-size="10.00">IndexBuffer</text>
</a>
</g>
</g>
<!-- Node8&#45;&gt;Node12 -->
<g id="edge11" class="edge"><title>Node8&#45;&gt;Node12</title>
<path fill="none" stroke="midnightblue" d="M369.308,-1026.1C394.587,-1032.71 426.114,-1040.95 452.961,-1047.96"/>
<polygon fill="midnightblue" stroke="midnightblue" points="370.157,-1022.71 359.597,-1023.56 368.387,-1029.48 370.157,-1022.71"/>
</g>
<!-- Node13 -->
<g id="node13" class="node"><title>Node13</title>
<g id="a_node13"><a xlink:href="class_ogre_1_1_g_l3_plus_hardware_index_buffer.html" target="_top" xlink:title="Ogre::GL3PlusHardwareIndex\lBuffer">
<polygon fill="none" stroke="black" points="438,-999 438,-1029 585,-1029 585,-999 438,-999"/>
<text text-anchor="start" x="446" y="-1017" font-family="Helvetica,sans-Serif" font-size="10.00">Ogre::GL3PlusHardwareIndex</text>
<text text-anchor="middle" x="511.5" y="-1006" font-family="Helvetica,sans-Serif" font-size="10.00">Buffer</text>
</a>
</g>
</g>
<!-- Node8&#45;&gt;Node13 -->
<g id="edge12" class="edge"><title>Node8&#45;&gt;Node13</title>
<path fill="none" stroke="midnightblue" d="M400.43,-1014C412.787,-1014 425.534,-1014 437.776,-1014"/>
<polygon fill="midnightblue" stroke="midnightblue" points="400.162,-1010.5 390.162,-1014 400.162,-1017.5 400.162,-1010.5"/>
</g>
<!-- Node14 -->
<g id="node14" class="node"><title>Node14</title>
<g id="a_node14"><a xlink:href="class_ogre_1_1_g_l_default_hardware_index_buffer.html" target="_top" xlink:title="Specialisation of HardwareIndexBuffer for emulation. ">
<polygon fill="none" stroke="black" points="434.5,-950 434.5,-980 588.5,-980 588.5,-950 434.5,-950"/>
<text text-anchor="start" x="442.5" y="-968" font-family="Helvetica,sans-Serif" font-size="10.00">Ogre::GLDefaultHardwareIndex</text>
<text text-anchor="middle" x="511.5" y="-957" font-family="Helvetica,sans-Serif" font-size="10.00">Buffer</text>
</a>
</g>
</g>
<!-- Node8&#45;&gt;Node14 -->
<g id="edge13" class="edge"><title>Node8&#45;&gt;Node14</title>
<path fill="none" stroke="midnightblue" d="M369.308,-1001.9C394.587,-995.292 426.114,-987.053 452.961,-980.037"/>
<polygon fill="midnightblue" stroke="midnightblue" points="368.387,-998.521 359.597,-1004.44 370.157,-1005.29 368.387,-998.521"/>
</g>
<!-- Node15 -->
<g id="node15" class="node"><title>Node15</title>
<g id="a_node15"><a xlink:href="class_ogre_1_1_g_l_e_s2_default_hardware_index_buffer.html" target="_top" xlink:title="Specialisation of HardwareIndexBuffer for emulation. ">
<polygon fill="none" stroke="black" points="437,-901 437,-931 586,-931 586,-901 437,-901"/>
<text text-anchor="start" x="445" y="-919" font-family="Helvetica,sans-Serif" font-size="10.00">Ogre::GLES2DefaultHardware</text>
<text text-anchor="middle" x="511.5" y="-908" font-family="Helvetica,sans-Serif" font-size="10.00">IndexBuffer</text>
</a>
</g>
</g>
<!-- Node8&#45;&gt;Node15 -->
<g id="edge14" class="edge"><title>Node8&#45;&gt;Node15</title>
<path fill="none" stroke="midnightblue" d="M342.608,-997.794C363.42,-981.282 397.821,-955.902 431,-940 437.891,-936.697 445.336,-933.734 452.81,-931.11"/>
<polygon fill="midnightblue" stroke="midnightblue" points="340.155,-995.276 334.564,-1004.28 344.547,-1000.73 340.155,-995.276"/>
</g>
<!-- Node16 -->
<g id="node16" class="node"><title>Node16</title>
<g id="a_node16"><a xlink:href="class_ogre_1_1_g_l_hardware_index_buffer.html" target="_top" xlink:title="Ogre::GLHardwareIndexBuffer">
<polygon fill="none" stroke="black" points="437,-862.5 437,-881.5 586,-881.5 586,-862.5 437,-862.5"/>
<text text-anchor="middle" x="511.5" y="-869.5" font-family="Helvetica,sans-Serif" font-size="10.00">Ogre::GLHardwareIndexBuffer</text>
</a>
</g>
</g>
<!-- Node8&#45;&gt;Node16 -->
<g id="edge15" class="edge"><title>Node8&#45;&gt;Node16</title>
<path fill="none" stroke="midnightblue" d="M333.867,-995.617C350.966,-968.374 386.803,-917.638 431,-891 437.442,-887.118 444.623,-884.028 451.963,-881.57"/>
<polygon fill="midnightblue" stroke="midnightblue" points="330.852,-993.839 328.617,-1004.2 336.823,-997.493 330.852,-993.839"/>
</g>
<!-- Node18 -->
<g id="node18" class="node"><title>Node18</title>
<g id="a_node18"><a xlink:href="class_ogre_1_1_d3_d11_hardware_pixel_buffer.html" target="_top" xlink:title="Ogre::D3D11HardwarePixel\lBuffer">
<polygon fill="none" stroke="black" points="442.5,-813 442.5,-843 580.5,-843 580.5,-813 442.5,-813"/>
<text text-anchor="start" x="450.5" y="-831" font-family="Helvetica,sans-Serif" font-size="10.00">Ogre::D3D11HardwarePixel</text>
<text text-anchor="middle" x="511.5" y="-820" font-family="Helvetica,sans-Serif" font-size="10.00">Buffer</text>
</a>
</g>
</g>
<!-- Node17&#45;&gt;Node18 -->
<g id="edge17" class="edge"><title>Node17&#45;&gt;Node18</title>
<path fill="none" stroke="midnightblue" d="M399.375,-814.961C413.641,-816.635 428.462,-818.374 442.456,-820.016"/>
<polygon fill="midnightblue" stroke="midnightblue" points="399.445,-811.446 389.105,-813.756 398.629,-818.398 399.445,-811.446"/>
</g>
<!-- Node19 -->
<g id="node19" class="node"><title>Node19</title>
<g id="a_node19"><a xlink:href="class_ogre_1_1_d3_d9_hardware_pixel_buffer.html" target="_top" xlink:title="Ogre::D3D9HardwarePixelBuffer">
<polygon fill="none" stroke="black" points="432,-774.5 432,-793.5 591,-793.5 591,-774.5 432,-774.5"/>
<text text-anchor="middle" x="511.5" y="-781.5" font-family="Helvetica,sans-Serif" font-size="10.00">Ogre::D3D9HardwarePixelBuffer</text>
</a>
</g>
</g>
<!-- Node17&#45;&gt;Node19 -->
<g id="edge18" class="edge"><title>Node17&#45;&gt;Node19</title>
<path fill="none" stroke="midnightblue" d="M399.276,-797.05C410.006,-795.791 421.051,-794.495 431.825,-793.231"/>
<polygon fill="midnightblue" stroke="midnightblue" points="398.629,-793.602 389.105,-798.244 399.445,-800.554 398.629,-793.602"/>
</g>
<!-- Node20 -->
<g id="node20" class="node"><title>Node20</title>
<g id="a_node20"><a xlink:href="class_ogre_1_1_g_l_hardware_pixel_buffer_common.html" target="_top" xlink:title="Ogre::GLHardwarePixelBuffer\lCommon">
<polygon fill="none" stroke="black" points="438.5,-725 438.5,-755 584.5,-755 584.5,-725 438.5,-725"/>
<text text-anchor="start" x="446.5" y="-743" font-family="Helvetica,sans-Serif" font-size="10.00">Ogre::GLHardwarePixelBuffer</text>
<text text-anchor="middle" x="511.5" y="-732" font-family="Helvetica,sans-Serif" font-size="10.00">Common</text>
</a>
</g>
</g>
<!-- Node17&#45;&gt;Node20 -->
<g id="edge19" class="edge"><title>Node17&#45;&gt;Node20</title>
<path fill="none" stroke="midnightblue" d="M356.41,-792.742C377.655,-784.454 405.808,-773.734 431,-765 440.706,-761.635 451.143,-758.213 461.159,-755.025"/>
<polygon fill="midnightblue" stroke="midnightblue" points="354.909,-789.571 346.875,-796.479 357.463,-796.088 354.909,-789.571"/>
</g>
<!-- Node21 -->
<g id="node21" class="node"><title>Node21</title>
<g id="a_node21"><a xlink:href="class_ogre_1_1_g_l3_plus_hardware_pixel_buffer.html" target="_top" xlink:title="Ogre::GL3PlusHardwarePixel\lBuffer">
<polygon fill="none" stroke="black" points="628.5,-784 628.5,-814 773.5,-814 773.5,-784 628.5,-784"/>
<text text-anchor="start" x="636.5" y="-802" font-family="Helvetica,sans-Serif" font-size="10.00">Ogre::GL3PlusHardwarePixel</text>
<text text-anchor="middle" x="701" y="-791" font-family="Helvetica,sans-Serif" font-size="10.00">Buffer</text>
</a>
</g>
</g>
<!-- Node20&#45;&gt;Node21 -->
<g id="edge20" class="edge"><title>Node20&#45;&gt;Node21</title>
<path fill="none" stroke="midnightblue" d="M570.305,-758.175C577.608,-760.472 584.979,-762.791 592,-765 611.688,-771.195 633.395,-778.028 652.152,-783.933"/>
<polygon fill="midnightblue" stroke="midnightblue" points="571.015,-754.73 560.426,-755.068 568.915,-761.407 571.015,-754.73"/>
</g>
<!-- Node24 -->
<g id="node24" class="node"><title>Node24</title>
<g id="a_node24"><a xlink:href="class_ogre_1_1_g_l_e_s2_hardware_pixel_buffer.html" target="_top" xlink:title="Ogre::GLES2HardwarePixel\lBuffer">
<polygon fill="none" stroke="black" points="631.5,-725 631.5,-755 770.5,-755 770.5,-725 631.5,-725"/>
<text text-anchor="start" x="639.5" y="-743" font-family="Helvetica,sans-Serif" font-size="10.00">Ogre::GLES2HardwarePixel</text>
<text text-anchor="middle" x="701" y="-732" font-family="Helvetica,sans-Serif" font-size="10.00">Buffer</text>
</a>
</g>
</g>
<!-- Node20&#45;&gt;Node24 -->
<g id="edge23" class="edge"><title>Node20&#45;&gt;Node24</title>
<path fill="none" stroke="midnightblue" d="M594.841,-740C606.98,-740 619.377,-740 631.203,-740"/>
<polygon fill="midnightblue" stroke="midnightblue" points="594.724,-736.5 584.724,-740 594.724,-743.5 594.724,-736.5"/>
</g>
<!-- Node27 -->
<g id="node27" class="node"><title>Node27</title>
<g id="a_node27"><a xlink:href="class_ogre_1_1_g_l_hardware_pixel_buffer.html" target="_top" xlink:title="Ogre::GLHardwarePixelBuffer">
<polygon fill="none" stroke="black" points="628,-675.5 628,-694.5 774,-694.5 774,-675.5 628,-675.5"/>
<text text-anchor="middle" x="701" y="-682.5" font-family="Helvetica,sans-Serif" font-size="10.00">Ogre::GLHardwarePixelBuffer</text>
</a>
</g>
</g>
<!-- Node20&#45;&gt;Node27 -->
<g id="edge26" class="edge"><title>Node20&#45;&gt;Node27</title>
<path fill="none" stroke="midnightblue" d="M573.659,-722.06C604.886,-712.9 641.622,-702.124 667.407,-694.561"/>
<polygon fill="midnightblue" stroke="midnightblue" points="572.346,-718.798 563.735,-724.971 574.316,-725.515 572.346,-718.798"/>
</g>
<!-- Node22 -->
<g id="node22" class="node"><title>Node22</title>
<g id="a_node22"><a xlink:href="class_ogre_1_1_g_l3_plus_render_buffer.html" target="_top" xlink:title="Renderbuffer surface. ">
<polygon fill="none" stroke="black" points="810.5,-827.5 810.5,-846.5 949.5,-846.5 949.5,-827.5 810.5,-827.5"/>
<text text-anchor="middle" x="880" y="-834.5" font-family="Helvetica,sans-Serif" font-size="10.00">Ogre::GL3PlusRenderBuffer</text>
</a>
</g>
</g>
<!-- Node21&#45;&gt;Node22 -->
<g id="edge21" class="edge"><title>Node21&#45;&gt;Node22</title>
<path fill="none" stroke="midnightblue" d="M781.964,-816.167C800.104,-820.062 818.727,-824.06 834.746,-827.499"/>
<polygon fill="midnightblue" stroke="midnightblue" points="782.467,-812.696 771.955,-814.019 780.998,-819.54 782.467,-812.696"/>
</g>
<!-- Node23 -->
<g id="node23" class="node"><title>Node23</title>
<g id="a_node23"><a xlink:href="class_ogre_1_1_g_l3_plus_texture_buffer.html" target="_top" xlink:title="Texture surface. ">
<polygon fill="none" stroke="black" points="810,-789.5 810,-808.5 950,-808.5 950,-789.5 810,-789.5"/>
<text text-anchor="middle" x="880" y="-796.5" font-family="Helvetica,sans-Serif" font-size="10.00">Ogre::GL3PlusTextureBuffer</text>
</a>
</g>
</g>
<!-- Node21&#45;&gt;Node23 -->
<g id="edge22" class="edge"><title>Node21&#45;&gt;Node23</title>
<path fill="none" stroke="midnightblue" d="M783.843,-799C792.502,-799 801.246,-799 809.741,-799"/>
<polygon fill="midnightblue" stroke="midnightblue" points="783.738,-795.5 773.738,-799 783.737,-802.5 783.738,-795.5"/>
</g>
<!-- Node25 -->
<g id="node25" class="node"><title>Node25</title>
<g id="a_node25"><a xlink:href="class_ogre_1_1_g_l_e_s2_render_buffer.html" target="_top" xlink:title="Renderbuffer surface. ">
<polygon fill="none" stroke="black" points="813.5,-751.5 813.5,-770.5 946.5,-770.5 946.5,-751.5 813.5,-751.5"/>
<text text-anchor="middle" x="880" y="-758.5" font-family="Helvetica,sans-Serif" font-size="10.00">Ogre::GLES2RenderBuffer</text>
</a>
</g>
</g>
<!-- Node24&#45;&gt;Node25 -->
<g id="edge24" class="edge"><title>Node24&#45;&gt;Node25</title>
<path fill="none" stroke="midnightblue" d="M780.621,-749.328C791.521,-750.621 802.624,-751.938 813.257,-753.2"/>
<polygon fill="midnightblue" stroke="midnightblue" points="781.029,-745.852 770.686,-748.149 780.204,-752.803 781.029,-745.852"/>
</g>
<!-- Node26 -->
<g id="node26" class="node"><title>Node26</title>
<g id="a_node26"><a xlink:href="class_ogre_1_1_g_l_e_s2_texture_buffer.html" target="_top" xlink:title="Texture surface. ">
<polygon fill="none" stroke="black" points="813,-713.5 813,-732.5 947,-732.5 947,-713.5 813,-713.5"/>
<text text-anchor="middle" x="880" y="-720.5" font-family="Helvetica,sans-Serif" font-size="10.00">Ogre::GLES2TextureBuffer</text>
</a>
</g>
</g>
<!-- Node24&#45;&gt;Node26 -->
<g id="edge25" class="edge"><title>Node24&#45;&gt;Node26</title>
<path fill="none" stroke="midnightblue" d="M780.882,-732.424C791.6,-731.394 802.508,-730.347 812.967,-729.342"/>
<polygon fill="midnightblue" stroke="midnightblue" points="780.306,-728.963 770.686,-733.403 780.975,-735.931 780.306,-728.963"/>
</g>
<!-- Node28 -->
<g id="node28" class="node"><title>Node28</title>
<g id="a_node28"><a xlink:href="class_ogre_1_1_g_l_render_buffer.html" target="_top" xlink:title="Renderbuffer surface. ">
<polygon fill="none" stroke="black" points="823,-675.5 823,-694.5 937,-694.5 937,-675.5 823,-675.5"/>
<text text-anchor="middle" x="880" y="-682.5" font-family="Helvetica,sans-Serif" font-size="10.00">Ogre::GLRenderBuffer</text>
</a>
</g>
</g>
<!-- Node27&#45;&gt;Node28 -->
<g id="edge27" class="edge"><title>Node27&#45;&gt;Node28</title>
<path fill="none" stroke="midnightblue" d="M784.611,-685C797.605,-685 810.769,-685 822.976,-685"/>
<polygon fill="midnightblue" stroke="midnightblue" points="784.248,-681.5 774.248,-685 784.248,-688.5 784.248,-681.5"/>
</g>
<!-- Node29 -->
<g id="node29" class="node"><title>Node29</title>
<g id="a_node29"><a xlink:href="class_ogre_1_1_g_l_texture_buffer.html" target="_top" xlink:title="Texture surface. ">
<polygon fill="none" stroke="black" points="822,-637.5 822,-656.5 938,-656.5 938,-637.5 822,-637.5"/>
<text text-anchor="middle" x="880" y="-644.5" font-family="Helvetica,sans-Serif" font-size="10.00">Ogre::GLTextureBuffer</text>
</a>
</g>
</g>
<!-- Node27&#45;&gt;Node29 -->
<g id="edge28" class="edge"><title>Node27&#45;&gt;Node29</title>
<path fill="none" stroke="midnightblue" d="M756.742,-673.247C781.77,-667.874 811.035,-661.591 834.657,-656.52"/>
<polygon fill="midnightblue" stroke="midnightblue" points="755.707,-669.89 746.665,-675.411 757.176,-676.734 755.707,-669.89"/>
</g>
<!-- Node31 -->
<g id="node31" class="node"><title>Node31</title>
<g id="a_node31"><a xlink:href="class_ogre_1_1_d3_d11_hardware_uniform_buffer.html" target="_top" xlink:title="Specialisation of HardwareBuffer for D3D11. ">
<polygon fill="none" stroke="black" points="436,-676 436,-706 587,-706 587,-676 436,-676"/>
<text text-anchor="start" x="444" y="-694" font-family="Helvetica,sans-Serif" font-size="10.00">Ogre::D3D11HardwareUniform</text>
<text text-anchor="middle" x="511.5" y="-683" font-family="Helvetica,sans-Serif" font-size="10.00">Buffer</text>
</a>
</g>
</g>
<!-- Node30&#45;&gt;Node31 -->
<g id="edge30" class="edge"><title>Node30&#45;&gt;Node31</title>
<path fill="none" stroke="midnightblue" d="M337.704,-585.34C357.028,-607.1 392.999,-644.202 431,-666 437.652,-669.815 444.957,-673.123 452.359,-675.968"/>
<polygon fill="midnightblue" stroke="midnightblue" points="340.131,-582.798 330.923,-577.557 334.854,-587.396 340.131,-582.798"/>
</g>
<!-- Node32 -->
<g id="node32" class="node"><title>Node32</title>
<g id="a_node32"><a xlink:href="class_ogre_1_1_default_hardware_uniform_buffer.html" target="_top" xlink:title="Specialisation of HardwareUniformBuffer for emulation. ">
<polygon fill="none" stroke="black" points="435.5,-627 435.5,-657 587.5,-657 587.5,-627 435.5,-627"/>
<text text-anchor="start" x="443.5" y="-645" font-family="Helvetica,sans-Serif" font-size="10.00">Ogre::DefaultHardwareUniform</text>
<text text-anchor="middle" x="511.5" y="-634" font-family="Helvetica,sans-Serif" font-size="10.00">Buffer</text>
</a>
</g>
</g>
<!-- Node30&#45;&gt;Node32 -->
<g id="edge31" class="edge"><title>Node30&#45;&gt;Node32</title>
<path fill="none" stroke="midnightblue" d="M351.438,-582.046C372.987,-592.408 403.483,-606.476 431,-617 440.054,-620.463 449.815,-623.826 459.291,-626.903"/>
<polygon fill="midnightblue" stroke="midnightblue" points="352.735,-578.786 342.21,-577.572 349.681,-585.084 352.735,-578.786"/>
</g>
<!-- Node33 -->
<g id="node33" class="node"><title>Node33</title>
<g id="a_node33"><a xlink:href="class_ogre_1_1_g_l3_plus_default_hardware_uniform_buffer.html" target="_top" xlink:title="Specialisation of HardwareUniformBuffer for emulation. ">
<polygon fill="none" stroke="black" points="434,-578 434,-608 589,-608 589,-578 434,-578"/>
<text text-anchor="start" x="442" y="-596" font-family="Helvetica,sans-Serif" font-size="10.00">Ogre::GL3PlusDefaultHardware</text>
<text text-anchor="middle" x="511.5" y="-585" font-family="Helvetica,sans-Serif" font-size="10.00">UniformBuffer</text>
</a>
</g>
</g>
<!-- Node30&#45;&gt;Node33 -->
<g id="edge32" class="edge"><title>Node30&#45;&gt;Node33</title>
<path fill="none" stroke="midnightblue" d="M404.528,-578.87C414.307,-580.174 424.267,-581.502 433.971,-582.796"/>
<polygon fill="midnightblue" stroke="midnightblue" points="404.795,-575.375 394.421,-577.523 403.87,-582.314 404.795,-575.375"/>
</g>
<!-- Node34 -->
<g id="node34" class="node"><title>Node34</title>
<g id="a_node34"><a xlink:href="class_ogre_1_1_g_l3_plus_hardware_shader_storage_buffer.html" target="_top" xlink:title="Specialisation of HardwareUniformBuffer for the OpenGL Shader Storage Buffer. ">
<polygon fill="none" stroke="black" points="434.5,-529 434.5,-559 588.5,-559 588.5,-529 434.5,-529"/>
<text text-anchor="start" x="442.5" y="-547" font-family="Helvetica,sans-Serif" font-size="10.00">Ogre::GL3PlusHardwareShader</text>
<text text-anchor="middle" x="511.5" y="-536" font-family="Helvetica,sans-Serif" font-size="10.00">StorageBuffer</text>
</a>
</g>
</g>
<!-- Node30&#45;&gt;Node34 -->
<g id="edge33" class="edge"><title>Node30&#45;&gt;Node34</title>
<path fill="none" stroke="midnightblue" d="M405.213,-557.477C414.873,-556.24 424.699,-554.982 434.272,-553.757"/>
<polygon fill="midnightblue" stroke="midnightblue" points="404.699,-554.014 395.224,-558.755 405.588,-560.957 404.699,-554.014"/>
</g>
<!-- Node35 -->
<g id="node35" class="node"><title>Node35</title>
<g id="a_node35"><a xlink:href="class_ogre_1_1_g_l3_plus_hardware_uniform_buffer.html" target="_top" xlink:title="Specialisation of HardwareUniformBuffer for OpenGL. ">
<polygon fill="none" stroke="black" points="432.5,-480 432.5,-510 590.5,-510 590.5,-480 432.5,-480"/>
<text text-anchor="start" x="440.5" y="-498" font-family="Helvetica,sans-Serif" font-size="10.00">Ogre::GL3PlusHardwareUniform</text>
<text text-anchor="middle" x="511.5" y="-487" font-family="Helvetica,sans-Serif" font-size="10.00">Buffer</text>
</a>
</g>
</g>
<!-- Node30&#45;&gt;Node35 -->
<g id="edge34" class="edge"><title>Node30&#45;&gt;Node35</title>
<path fill="none" stroke="midnightblue" d="M351.403,-553.861C372.934,-543.452 403.423,-529.366 431,-519 439.367,-515.855 448.344,-512.825 457.146,-510.04"/>
<polygon fill="midnightblue" stroke="midnightblue" points="349.637,-550.829 342.183,-558.359 352.706,-557.12 349.637,-550.829"/>
</g>
<!-- Node36 -->
<g id="node36" class="node"><title>Node36</title>
<g id="a_node36"><a xlink:href="class_ogre_1_1_g_l_e_s2_default_hardware_uniform_buffer.html" target="_top" xlink:title="Specialisation of HardwareUniformBuffer for emulation. ">
<polygon fill="none" stroke="black" points="437,-431 437,-461 586,-461 586,-431 437,-431"/>
<text text-anchor="start" x="445" y="-449" font-family="Helvetica,sans-Serif" font-size="10.00">Ogre::GLES2DefaultHardware</text>
<text text-anchor="middle" x="511.5" y="-438" font-family="Helvetica,sans-Serif" font-size="10.00">UniformBuffer</text>
</a>
</g>
</g>
<!-- Node30&#45;&gt;Node36 -->
<g id="edge35" class="edge"><title>Node30&#45;&gt;Node36</title>
<path fill="none" stroke="midnightblue" d="M337.665,-550.591C356.948,-528.758 392.874,-491.579 431,-470 437.023,-466.591 443.582,-463.617 450.264,-461.034"/>
<polygon fill="midnightblue" stroke="midnightblue" points="334.801,-548.551 330.9,-558.402 340.093,-553.134 334.801,-548.551"/>
</g>
<!-- Node37 -->
<g id="node37" class="node"><title>Node37</title>
<g id="a_node37"><a xlink:href="class_ogre_1_1_g_l_e_s2_hardware_uniform_buffer.html" target="_top" xlink:title="Specialisation of HardwareUniformBuffer for OpenGL. ">
<polygon fill="none" stroke="black" points="435.5,-382 435.5,-412 587.5,-412 587.5,-382 435.5,-382"/>
<text text-anchor="start" x="443.5" y="-400" font-family="Helvetica,sans-Serif" font-size="10.00">Ogre::GLES2HardwareUniform</text>
<text text-anchor="middle" x="511.5" y="-389" font-family="Helvetica,sans-Serif" font-size="10.00">Buffer</text>
</a>
</g>
</g>
<!-- Node30&#45;&gt;Node37 -->
<g id="edge36" class="edge"><title>Node30&#45;&gt;Node37</title>
<path fill="none" stroke="midnightblue" d="M331.799,-549.105C347.349,-517.776 382.669,-455.153 431,-421 435.827,-417.589 441.148,-414.654 446.679,-412.132"/>
<polygon fill="midnightblue" stroke="midnightblue" points="328.487,-547.916 327.293,-558.443 334.791,-550.958 328.487,-547.916"/>
</g>
<!-- Node39 -->
<g id="node39" class="node"><title>Node39</title>
<g id="a_node39"><a xlink:href="class_ogre_1_1_d3_d11_hardware_vertex_buffer.html" target="_top" xlink:title="Specialisation of HardwareVertexBuffer for D3D11. ">
<polygon fill="none" stroke="black" points="439,-333 439,-363 584,-363 584,-333 439,-333"/>
<text text-anchor="start" x="447" y="-351" font-family="Helvetica,sans-Serif" font-size="10.00">Ogre::D3D11HardwareVertex</text>
<text text-anchor="middle" x="511.5" y="-340" font-family="Helvetica,sans-Serif" font-size="10.00">Buffer</text>
</a>
</g>
</g>
<!-- Node38&#45;&gt;Node39 -->
<g id="edge38" class="edge"><title>Node38&#45;&gt;Node39</title>
<path fill="none" stroke="midnightblue" d="M334.376,-219.194C351.924,-245.798 388.093,-295.168 431,-323 436.948,-326.858 443.531,-330.155 450.289,-332.965"/>
<polygon fill="midnightblue" stroke="midnightblue" points="337.135,-217.013 328.776,-210.504 331.251,-220.806 337.135,-217.013"/>
</g>
<!-- Node40 -->
<g id="node40" class="node"><title>Node40</title>
<g id="a_node40"><a xlink:href="class_ogre_1_1_d3_d9_hardware_vertex_buffer.html" target="_top" xlink:title="Specialisation of HardwareVertexBuffer for D3D9. ">
<polygon fill="none" stroke="black" points="441.5,-284 441.5,-314 581.5,-314 581.5,-284 441.5,-284"/>
<text text-anchor="start" x="449.5" y="-302" font-family="Helvetica,sans-Serif" font-size="10.00">Ogre::D3D9HardwareVertex</text>
<text text-anchor="middle" x="511.5" y="-291" font-family="Helvetica,sans-Serif" font-size="10.00">Buffer</text>
</a>
</g>
</g>
<!-- Node38&#45;&gt;Node40 -->
<g id="edge39" class="edge"><title>Node38&#45;&gt;Node40</title>
<path fill="none" stroke="midnightblue" d="M342.683,-216.893C363.555,-233.106 398.005,-258.081 431,-274 438.688,-277.709 447.055,-281.037 455.38,-283.962"/>
<polygon fill="midnightblue" stroke="midnightblue" points="344.633,-213.973 334.612,-210.532 340.3,-219.471 344.633,-213.973"/>
</g>
<!-- Node41 -->
<g id="node41" class="node"><title>Node41</title>
<g id="a_node41"><a xlink:href="class_ogre_1_1_default_hardware_vertex_buffer.html" target="_top" xlink:title="Specialisation of HardwareVertexBuffer for emulation. ">
<polygon fill="none" stroke="black" points="438.5,-235 438.5,-265 584.5,-265 584.5,-235 438.5,-235"/>
<text text-anchor="start" x="446.5" y="-253" font-family="Helvetica,sans-Serif" font-size="10.00">Ogre::DefaultHardwareVertex</text>
<text text-anchor="middle" x="511.5" y="-242" font-family="Helvetica,sans-Serif" font-size="10.00">Buffer</text>
</a>
</g>
</g>
<!-- Node38&#45;&gt;Node41 -->
<g id="edge40" class="edge"><title>Node38&#45;&gt;Node41</title>
<path fill="none" stroke="midnightblue" d="M369.308,-213.102C394.587,-219.708 426.114,-227.947 452.961,-234.963"/>
<polygon fill="midnightblue" stroke="midnightblue" points="370.157,-209.706 359.597,-210.564 368.387,-216.479 370.157,-209.706"/>
</g>
<!-- Node42 -->
<g id="node42" class="node"><title>Node42</title>
<g id="a_node42"><a xlink:href="class_ogre_1_1_g_l3_plus_default_hardware_vertex_buffer.html" target="_top" xlink:title="Specialisation of HardwareVertexBuffer for emulation. ">
<polygon fill="none" stroke="black" points="434,-186 434,-216 589,-216 589,-186 434,-186"/>
<text text-anchor="start" x="442" y="-204" font-family="Helvetica,sans-Serif" font-size="10.00">Ogre::GL3PlusDefaultHardware</text>
<text text-anchor="middle" x="511.5" y="-193" font-family="Helvetica,sans-Serif" font-size="10.00">VertexBuffer</text>
</a>
</g>
</g>
<!-- Node38&#45;&gt;Node42 -->
<g id="edge41" class="edge"><title>Node38&#45;&gt;Node42</title>
<path fill="none" stroke="midnightblue" d="M402.32,-201C412.722,-201 423.366,-201 433.724,-201"/>
<polygon fill="midnightblue" stroke="midnightblue" points="402.019,-197.5 392.019,-201 402.019,-204.5 402.019,-197.5"/>
</g>
<!-- Node43 -->
<g id="node43" class="node"><title>Node43</title>
<g id="a_node43"><a xlink:href="class_ogre_1_1_g_l3_plus_hardware_vertex_buffer.html" target="_top" xlink:title="Specialisation of HardwareVertexBuffer for OpenGL. ">
<polygon fill="none" stroke="black" points="435.5,-137 435.5,-167 587.5,-167 587.5,-137 435.5,-137"/>
<text text-anchor="start" x="443.5" y="-155" font-family="Helvetica,sans-Serif" font-size="10.00">Ogre::GL3PlusHardwareVertex</text>
<text text-anchor="middle" x="511.5" y="-144" font-family="Helvetica,sans-Serif" font-size="10.00">Buffer</text>
</a>
</g>
</g>
<!-- Node38&#45;&gt;Node43 -->
<g id="edge42" class="edge"><title>Node38&#45;&gt;Node43</title>
<path fill="none" stroke="midnightblue" d="M369.308,-188.898C394.587,-182.292 426.114,-174.053 452.961,-167.037"/>
<polygon fill="midnightblue" stroke="midnightblue" points="368.387,-185.521 359.597,-191.436 370.157,-192.294 368.387,-185.521"/>
</g>
<!-- Node44 -->
<g id="node44" class="node"><title>Node44</title>
<g id="a_node44"><a xlink:href="class_ogre_1_1_g_l_default_hardware_vertex_buffer.html" target="_top" xlink:title="Specialisation of HardwareVertexBuffer for emulation. ">
<polygon fill="none" stroke="black" points="432.5,-88 432.5,-118 590.5,-118 590.5,-88 432.5,-88"/>
<text text-anchor="start" x="440.5" y="-106" font-family="Helvetica,sans-Serif" font-size="10.00">Ogre::GLDefaultHardwareVertex</text>
<text text-anchor="middle" x="511.5" y="-95" font-family="Helvetica,sans-Serif" font-size="10.00">Buffer</text>
</a>
</g>
</g>
<!-- Node38&#45;&gt;Node44 -->
<g id="edge43" class="edge"><title>Node38&#45;&gt;Node44</title>
<path fill="none" stroke="midnightblue" d="M342.608,-184.794C363.42,-168.282 397.821,-142.902 431,-127 437.891,-123.697 445.336,-120.734 452.81,-118.11"/>
<polygon fill="midnightblue" stroke="midnightblue" points="340.155,-182.276 334.564,-191.275 344.547,-187.727 340.155,-182.276"/>
</g>
<!-- Node45 -->
<g id="node45" class="node"><title>Node45</title>
<g id="a_node45"><a xlink:href="class_ogre_1_1_g_l_e_s2_default_hardware_vertex_buffer.html" target="_top" xlink:title="Specialisation of HardwareVertexBuffer for emulation. ">
<polygon fill="none" stroke="black" points="437,-39 437,-69 586,-69 586,-39 437,-39"/>
<text text-anchor="start" x="445" y="-57" font-family="Helvetica,sans-Serif" font-size="10.00">Ogre::GLES2DefaultHardware</text>
<text text-anchor="middle" x="511.5" y="-46" font-family="Helvetica,sans-Serif" font-size="10.00">VertexBuffer</text>
</a>
</g>
</g>
<!-- Node38&#45;&gt;Node45 -->
<g id="edge44" class="edge"><title>Node38&#45;&gt;Node45</title>
<path fill="none" stroke="midnightblue" d="M334.298,-182.59C351.747,-155.682 387.792,-105.799 431,-78 436.335,-74.5676 442.184,-71.6062 448.214,-69.0551"/>
<polygon fill="midnightblue" stroke="midnightblue" points="331.125,-181.059 328.732,-191.38 337.039,-184.804 331.125,-181.059"/>
</g>
<!-- Node46 -->
<g id="node46" class="node"><title>Node46</title>
<g id="a_node46"><a xlink:href="class_ogre_1_1_g_l_hardware_vertex_buffer.html" target="_top" xlink:title="Specialisation of HardwareVertexBuffer for OpenGL. ">
<polygon fill="none" stroke="black" points="435,-0.5 435,-19.5 588,-19.5 588,-0.5 435,-0.5"/>
<text text-anchor="middle" x="511.5" y="-7.5" font-family="Helvetica,sans-Serif" font-size="10.00">Ogre::GLHardwareVertexBuffer</text>
</a>
</g>
</g>
<!-- Node38&#45;&gt;Node46 -->
<g id="edge45" class="edge"><title>Node38&#45;&gt;Node46</title>
<path fill="none" stroke="midnightblue" d="M329.536,-181.595C342.704,-145.583 375.958,-68.4905 431,-29 436.419,-25.1119 442.528,-22.0111 448.891,-19.5395"/>
<polygon fill="midnightblue" stroke="midnightblue" points="326.115,-180.77 326.092,-191.365 332.717,-183.097 326.115,-180.77"/>
</g>
</g>
</svg>
