<?xml version="1.0" encoding="UTF-8" standalone="no"?>
<!DOCTYPE svg PUBLIC "-//W3C//DTD SVG 1.1//EN"
 "http://www.w3.org/Graphics/SVG/1.1/DTD/svg11.dtd">
<!-- Generated by graphviz version 2.38.0 (20140413.2041)
 -->
<!-- Title: Ogre::Texture Pages: 1 -->
<svg width="422pt" height="252pt"
 viewBox="0.00 0.00 422.00 252.00" xmlns="http://www.w3.org/2000/svg" xmlns:xlink="http://www.w3.org/1999/xlink">
<g id="graph0" class="graph" transform="scale(1 1) rotate(0) translate(4 248)">
<title>Ogre::Texture</title>
<!-- Node1 -->
<g id="node1" class="node"><title>Node1</title>
<polygon fill="#bfbfbf" stroke="black" points="137,-112.5 137,-131.5 214,-131.5 214,-112.5 137,-112.5"/>
<text text-anchor="middle" x="175.5" y="-119.5" font-family="Helvetica,sans-Serif" font-size="10.00">Ogre::Texture</text>
</g>
<!-- Node5 -->
<g id="node5" class="node"><title>Node5</title>
<g id="a_node5"><a xlink:href="class_ogre_1_1_d3_d11_texture.html" target="_top" xlink:title="Specialisation of Texture for D3D11. ">
<polygon fill="none" stroke="black" points="0,-56.5 0,-75.5 107,-75.5 107,-56.5 0,-56.5"/>
<text text-anchor="middle" x="53.5" y="-63.5" font-family="Helvetica,sans-Serif" font-size="10.00">Ogre::D3D11Texture</text>
</a>
</g>
</g>
<!-- Node1&#45;&gt;Node5 -->
<g id="edge4" class="edge"><title>Node1&#45;&gt;Node5</title>
<path fill="none" stroke="midnightblue" d="M146.961,-108.368C124.114,-98.2553 92.6949,-84.3486 72.7408,-75.5164"/>
<polygon fill="midnightblue" stroke="midnightblue" points="145.608,-111.597 156.169,-112.444 148.441,-105.196 145.608,-111.597"/>
</g>
<!-- Node6 -->
<g id="node6" class="node"><title>Node6</title>
<g id="a_node6"><a xlink:href="class_ogre_1_1_d3_d9_texture.html" target="_top" xlink:title="Ogre::D3D9Texture">
<polygon fill="none" stroke="black" points="124.5,-56.5 124.5,-75.5 226.5,-75.5 226.5,-56.5 124.5,-56.5"/>
<text text-anchor="middle" x="175.5" y="-63.5" font-family="Helvetica,sans-Serif" font-size="10.00">Ogre::D3D9Texture</text>
</a>
</g>
</g>
<!-- Node1&#45;&gt;Node6 -->
<g id="edge5" class="edge"><title>Node1&#45;&gt;Node6</title>
<path fill="none" stroke="midnightblue" d="M175.5,-101.805C175.5,-92.9102 175.5,-82.7798 175.5,-75.7511"/>
<polygon fill="midnightblue" stroke="midnightblue" points="172,-102.083 175.5,-112.083 179,-102.083 172,-102.083"/>
</g>
<!-- Node7 -->
<g id="node7" class="node"><title>Node7</title>
<g id="a_node7"><a xlink:href="class_ogre_1_1_g_l_texture_common.html" target="_top" xlink:title="Ogre::GLTextureCommon">
<polygon fill="none" stroke="black" points="245,-56.5 245,-75.5 374,-75.5 374,-56.5 245,-56.5"/>
<text text-anchor="middle" x="309.5" y="-63.5" font-family="Helvetica,sans-Serif" font-size="10.00">Ogre::GLTextureCommon</text>
</a>
</g>
</g>
<!-- Node1&#45;&gt;Node7 -->
<g id="edge6" class="edge"><title>Node1&#45;&gt;Node7</title>
<path fill="none" stroke="midnightblue" d="M206.177,-108.638C231.323,-98.504 266.254,-84.4274 288.367,-75.5164"/>
<polygon fill="midnightblue" stroke="midnightblue" points="204.7,-105.459 196.733,-112.444 207.316,-111.952 204.7,-105.459"/>
</g>
<!-- Node2 -->
<g id="node2" class="node"><title>Node2</title>
<g id="a_node2"><a xlink:href="class_ogre_1_1_resource.html" target="_top" xlink:title="Abstract class representing a loadable resource (e.g. ">
<polygon fill="none" stroke="black" points="132.5,-168.5 132.5,-187.5 218.5,-187.5 218.5,-168.5 132.5,-168.5"/>
<text text-anchor="middle" x="175.5" y="-175.5" font-family="Helvetica,sans-Serif" font-size="10.00">Ogre::Resource</text>
</a>
</g>
</g>
<!-- Node2&#45;&gt;Node1 -->
<g id="edge1" class="edge"><title>Node2&#45;&gt;Node1</title>
<path fill="none" stroke="midnightblue" d="M175.5,-157.805C175.5,-148.91 175.5,-138.78 175.5,-131.751"/>
<polygon fill="midnightblue" stroke="midnightblue" points="172,-158.083 175.5,-168.083 179,-158.083 172,-158.083"/>
</g>
<!-- Node3 -->
<g id="node3" class="node"><title>Node3</title>
<g id="a_node3"><a xlink:href="class_ogre_1_1_string_interface.html" target="_top" xlink:title="Class defining the common interface which classes can use to present a reflection&#45;style, self&#45;defining parameter set to callers. ">
<polygon fill="none" stroke="black" points="66,-224.5 66,-243.5 173,-243.5 173,-224.5 66,-224.5"/>
<text text-anchor="middle" x="119.5" y="-231.5" font-family="Helvetica,sans-Serif" font-size="10.00">Ogre::StringInterface</text>
</a>
</g>
</g>
<!-- Node3&#45;&gt;Node2 -->
<g id="edge2" class="edge"><title>Node3&#45;&gt;Node2</title>
<path fill="none" stroke="midnightblue" d="M135.83,-217.253C145.765,-207.673 158.088,-195.791 166.339,-187.834"/>
<polygon fill="midnightblue" stroke="midnightblue" points="133.266,-214.863 128.497,-224.324 138.125,-219.902 133.266,-214.863"/>
</g>
<!-- Node4 -->
<g id="node4" class="node"><title>Node4</title>
<g id="a_node4"><a xlink:href="class_ogre_1_1_allocated_object.html" target="_top" xlink:title="Superclass for all objects that wish to use custom memory allocators when their new / delete operator...">
<polygon fill="none" stroke="black" points="191.5,-224.5 191.5,-243.5 271.5,-243.5 271.5,-224.5 191.5,-224.5"/>
<text text-anchor="middle" x="231.5" y="-231.5" font-family="Helvetica,sans-Serif" font-size="10.00">ResourceAlloc</text>
</a>
</g>
</g>
<!-- Node4&#45;&gt;Node2 -->
<g id="edge3" class="edge"><title>Node4&#45;&gt;Node2</title>
<path fill="none" stroke="midnightblue" d="M215.17,-217.253C205.235,-207.673 192.912,-195.791 184.661,-187.834"/>
<polygon fill="midnightblue" stroke="midnightblue" points="212.875,-219.902 222.503,-224.324 217.734,-214.863 212.875,-219.902"/>
</g>
<!-- Node8 -->
<g id="node8" class="node"><title>Node8</title>
<g id="a_node8"><a xlink:href="class_ogre_1_1_g_l3_plus_texture.html" target="_top" xlink:title="Ogre::GL3PlusTexture">
<polygon fill="none" stroke="black" points="192.5,-0.5 192.5,-19.5 306.5,-19.5 306.5,-0.5 192.5,-0.5"/>
<text text-anchor="middle" x="249.5" y="-7.5" font-family="Helvetica,sans-Serif" font-size="10.00">Ogre::GL3PlusTexture</text>
</a>
</g>
</g>
<!-- Node7&#45;&gt;Node8 -->
<g id="edge7" class="edge"><title>Node7&#45;&gt;Node8</title>
<path fill="none" stroke="midnightblue" d="M292.319,-49.5372C281.621,-39.9087 268.244,-27.8694 259.315,-19.8339"/>
<polygon fill="midnightblue" stroke="midnightblue" points="290.086,-52.2358 299.86,-56.324 294.768,-47.0327 290.086,-52.2358"/>
</g>
<!-- Node9 -->
<g id="node9" class="node"><title>Node9</title>
<g id="a_node9"><a xlink:href="class_ogre_1_1_g_l_texture.html" target="_top" xlink:title="Ogre::GLTexture">
<polygon fill="none" stroke="black" points="325,-0.5 325,-19.5 414,-19.5 414,-0.5 325,-0.5"/>
<text text-anchor="middle" x="369.5" y="-7.5" font-family="Helvetica,sans-Serif" font-size="10.00">Ogre::GLTexture</text>
</a>
</g>
</g>
<!-- Node7&#45;&gt;Node9 -->
<g id="edge8" class="edge"><title>Node7&#45;&gt;Node9</title>
<path fill="none" stroke="midnightblue" d="M326.681,-49.5372C337.379,-39.9087 350.756,-27.8694 359.685,-19.8339"/>
<polygon fill="midnightblue" stroke="midnightblue" points="324.232,-47.0327 319.14,-56.324 328.914,-52.2358 324.232,-47.0327"/>
</g>
</g>
</svg>
