<?xml version="1.0" encoding="UTF-8" standalone="no"?>
<!DOCTYPE svg PUBLIC "-//W3C//DTD SVG 1.1//EN"
 "http://www.w3.org/Graphics/SVG/1.1/DTD/svg11.dtd">
<!-- Generated by graphviz version 2.38.0 (20140413.2041)
 -->
<!-- Title: Ogre::HardwareUniformBuffer Pages: 1 -->
<svg width="597pt" height="333pt"
 viewBox="0.00 0.00 597.00 333.00" xmlns="http://www.w3.org/2000/svg" xmlns:xlink="http://www.w3.org/1999/xlink">
<g id="graph0" class="graph" transform="scale(1 1) rotate(0) translate(4 329)">
<title>Ogre::HardwareUniformBuffer</title>
<!-- Node1 -->
<g id="node1" class="node"><title>Node1</title>
<polygon fill="#bfbfbf" stroke="black" points="249,-153 249,-172 395,-172 395,-153 249,-153"/>
<text text-anchor="middle" x="322" y="-160" font-family="Helvetica,sans-Serif" font-size="10.00">Ogre::HardwareUniformBuffer</text>
</g>
<!-- Node4 -->
<g id="node4" class="node"><title>Node4</title>
<g id="a_node4"><a xlink:href="class_ogre_1_1_d3_d11_hardware_uniform_buffer.html" target="_top" xlink:title="Specialisation of HardwareBuffer for D3D11. ">
<polygon fill="none" stroke="black" points="434.5,-294.5 434.5,-324.5 585.5,-324.5 585.5,-294.5 434.5,-294.5"/>
<text text-anchor="start" x="442.5" y="-312.5" font-family="Helvetica,sans-Serif" font-size="10.00">Ogre::D3D11HardwareUniform</text>
<text text-anchor="middle" x="510" y="-301.5" font-family="Helvetica,sans-Serif" font-size="10.00">Buffer</text>
</a>
</g>
</g>
<!-- Node1&#45;&gt;Node4 -->
<g id="edge3" class="edge"><title>Node1&#45;&gt;Node4</title>
<path fill="none" stroke="midnightblue" d="M334.317,-180.88C351.79,-207.751 387.866,-257.586 431,-285.5 436.234,-288.887 441.972,-291.819 447.888,-294.352"/>
<polygon fill="midnightblue" stroke="midnightblue" points="337.059,-178.668 328.743,-172.103 331.15,-182.421 337.059,-178.668"/>
</g>
<!-- Node5 -->
<g id="node5" class="node"><title>Node5</title>
<g id="a_node5"><a xlink:href="class_ogre_1_1_default_hardware_uniform_buffer.html" target="_top" xlink:title="Specialisation of HardwareUniformBuffer for emulation. ">
<polygon fill="none" stroke="black" points="434,-245.5 434,-275.5 586,-275.5 586,-245.5 434,-245.5"/>
<text text-anchor="start" x="442" y="-263.5" font-family="Helvetica,sans-Serif" font-size="10.00">Ogre::DefaultHardwareUniform</text>
<text text-anchor="middle" x="510" y="-252.5" font-family="Helvetica,sans-Serif" font-size="10.00">Buffer</text>
</a>
</g>
</g>
<!-- Node1&#45;&gt;Node5 -->
<g id="edge4" class="edge"><title>Node1&#45;&gt;Node5</title>
<path fill="none" stroke="midnightblue" d="M342.625,-178.67C363.451,-195.154 397.864,-220.509 431,-236.5 437.89,-239.825 445.345,-242.815 452.818,-245.464"/>
<polygon fill="midnightblue" stroke="midnightblue" points="344.563,-175.737 334.575,-172.202 340.178,-181.194 344.563,-175.737"/>
</g>
<!-- Node6 -->
<g id="node6" class="node"><title>Node6</title>
<g id="a_node6"><a xlink:href="class_ogre_1_1_g_l3_plus_default_hardware_uniform_buffer.html" target="_top" xlink:title="Specialisation of HardwareUniformBuffer for emulation. ">
<polygon fill="none" stroke="black" points="432.5,-196.5 432.5,-226.5 587.5,-226.5 587.5,-196.5 432.5,-196.5"/>
<text text-anchor="start" x="440.5" y="-214.5" font-family="Helvetica,sans-Serif" font-size="10.00">Ogre::GL3PlusDefaultHardware</text>
<text text-anchor="middle" x="510" y="-203.5" font-family="Helvetica,sans-Serif" font-size="10.00">UniformBuffer</text>
</a>
</g>
</g>
<!-- Node1&#45;&gt;Node6 -->
<g id="edge5" class="edge"><title>Node1&#45;&gt;Node6</title>
<path fill="none" stroke="midnightblue" d="M369.271,-174.69C394.291,-181.281 425.407,-189.478 451.921,-196.463"/>
<polygon fill="midnightblue" stroke="midnightblue" points="369.866,-171.227 359.304,-172.064 368.083,-177.996 369.866,-171.227"/>
</g>
<!-- Node7 -->
<g id="node7" class="node"><title>Node7</title>
<g id="a_node7"><a xlink:href="class_ogre_1_1_g_l3_plus_hardware_shader_storage_buffer.html" target="_top" xlink:title="Specialisation of HardwareUniformBuffer for the OpenGL Shader Storage Buffer. ">
<polygon fill="none" stroke="black" points="433,-147.5 433,-177.5 587,-177.5 587,-147.5 433,-147.5"/>
<text text-anchor="start" x="441" y="-165.5" font-family="Helvetica,sans-Serif" font-size="10.00">Ogre::GL3PlusHardwareShader</text>
<text text-anchor="middle" x="510" y="-154.5" font-family="Helvetica,sans-Serif" font-size="10.00">StorageBuffer</text>
</a>
</g>
</g>
<!-- Node1&#45;&gt;Node7 -->
<g id="edge6" class="edge"><title>Node1&#45;&gt;Node7</title>
<path fill="none" stroke="midnightblue" d="M405.411,-162.5C414.543,-162.5 423.813,-162.5 432.863,-162.5"/>
<polygon fill="midnightblue" stroke="midnightblue" points="405.179,-159 395.179,-162.5 405.179,-166 405.179,-159"/>
</g>
<!-- Node8 -->
<g id="node8" class="node"><title>Node8</title>
<g id="a_node8"><a xlink:href="class_ogre_1_1_g_l3_plus_hardware_uniform_buffer.html" target="_top" xlink:title="Specialisation of HardwareUniformBuffer for OpenGL. ">
<polygon fill="none" stroke="black" points="431,-98.5 431,-128.5 589,-128.5 589,-98.5 431,-98.5"/>
<text text-anchor="start" x="439" y="-116.5" font-family="Helvetica,sans-Serif" font-size="10.00">Ogre::GL3PlusHardwareUniform</text>
<text text-anchor="middle" x="510" y="-105.5" font-family="Helvetica,sans-Serif" font-size="10.00">Buffer</text>
</a>
</g>
</g>
<!-- Node1&#45;&gt;Node8 -->
<g id="edge7" class="edge"><title>Node1&#45;&gt;Node8</title>
<path fill="none" stroke="midnightblue" d="M369.271,-150.31C394.291,-143.719 425.407,-135.522 451.921,-128.537"/>
<polygon fill="midnightblue" stroke="midnightblue" points="368.083,-147.004 359.304,-152.936 369.866,-153.773 368.083,-147.004"/>
</g>
<!-- Node9 -->
<g id="node9" class="node"><title>Node9</title>
<g id="a_node9"><a xlink:href="class_ogre_1_1_g_l_e_s2_default_hardware_uniform_buffer.html" target="_top" xlink:title="Specialisation of HardwareUniformBuffer for emulation. ">
<polygon fill="none" stroke="black" points="435.5,-49.5 435.5,-79.5 584.5,-79.5 584.5,-49.5 435.5,-49.5"/>
<text text-anchor="start" x="443.5" y="-67.5" font-family="Helvetica,sans-Serif" font-size="10.00">Ogre::GLES2DefaultHardware</text>
<text text-anchor="middle" x="510" y="-56.5" font-family="Helvetica,sans-Serif" font-size="10.00">UniformBuffer</text>
</a>
</g>
</g>
<!-- Node1&#45;&gt;Node9 -->
<g id="edge8" class="edge"><title>Node1&#45;&gt;Node9</title>
<path fill="none" stroke="midnightblue" d="M342.625,-146.33C363.451,-129.846 397.864,-104.491 431,-88.5 437.89,-85.1749 445.345,-82.1847 452.818,-79.536"/>
<polygon fill="midnightblue" stroke="midnightblue" points="340.178,-143.806 334.575,-152.798 344.563,-149.263 340.178,-143.806"/>
</g>
<!-- Node10 -->
<g id="node10" class="node"><title>Node10</title>
<g id="a_node10"><a xlink:href="class_ogre_1_1_g_l_e_s2_hardware_uniform_buffer.html" target="_top" xlink:title="Specialisation of HardwareUniformBuffer for OpenGL. ">
<polygon fill="none" stroke="black" points="434,-0.5 434,-30.5 586,-30.5 586,-0.5 434,-0.5"/>
<text text-anchor="start" x="442" y="-18.5" font-family="Helvetica,sans-Serif" font-size="10.00">Ogre::GLES2HardwareUniform</text>
<text text-anchor="middle" x="510" y="-7.5" font-family="Helvetica,sans-Serif" font-size="10.00">Buffer</text>
</a>
</g>
</g>
<!-- Node1&#45;&gt;Node10 -->
<g id="edge9" class="edge"><title>Node1&#45;&gt;Node10</title>
<path fill="none" stroke="midnightblue" d="M334.317,-144.12C351.79,-117.249 387.866,-67.4141 431,-39.5 436.234,-36.113 441.972,-33.1813 447.888,-30.6485"/>
<polygon fill="midnightblue" stroke="midnightblue" points="331.15,-142.579 328.743,-152.897 337.059,-146.332 331.15,-142.579"/>
</g>
<!-- Node2 -->
<g id="node2" class="node"><title>Node2</title>
<g id="a_node2"><a xlink:href="class_ogre_1_1_hardware_buffer.html" target="_top" xlink:title="Abstract class defining common features of hardware buffers. ">
<polygon fill="none" stroke="black" points="101,-153 101,-172 213,-172 213,-153 101,-153"/>
<text text-anchor="middle" x="157" y="-160" font-family="Helvetica,sans-Serif" font-size="10.00">Ogre::HardwareBuffer</text>
</a>
</g>
</g>
<!-- Node2&#45;&gt;Node1 -->
<g id="edge1" class="edge"><title>Node2&#45;&gt;Node1</title>
<path fill="none" stroke="midnightblue" d="M223.285,-162.5C231.684,-162.5 240.322,-162.5 248.824,-162.5"/>
<polygon fill="midnightblue" stroke="midnightblue" points="223.184,-159 213.184,-162.5 223.184,-166 223.184,-159"/>
</g>
<!-- Node3 -->
<g id="node3" class="node"><title>Node3</title>
<g id="a_node3"><a xlink:href="class_ogre_1_1_allocated_object.html" target="_top" xlink:title="Superclass for all objects that wish to use custom memory allocators when their new / delete operator...">
<polygon fill="none" stroke="black" points="0,-153 0,-172 65,-172 65,-153 0,-153"/>
<text text-anchor="middle" x="32.5" y="-160" font-family="Helvetica,sans-Serif" font-size="10.00">BufferAlloc</text>
</a>
</g>
</g>
<!-- Node3&#45;&gt;Node2 -->
<g id="edge2" class="edge"><title>Node3&#45;&gt;Node2</title>
<path fill="none" stroke="midnightblue" d="M75.1571,-162.5C83.4035,-162.5 92.1796,-162.5 100.795,-162.5"/>
<polygon fill="midnightblue" stroke="midnightblue" points="75.0468,-159 65.0468,-162.5 75.0468,-166 75.0468,-159"/>
</g>
</g>
</svg>
