<?xml version="1.0" encoding="UTF-8" standalone="no"?>
<!DOCTYPE svg PUBLIC "-//W3C//DTD SVG 1.1//EN"
 "http://www.w3.org/Graphics/SVG/1.1/DTD/svg11.dtd">
<!-- Generated by graphviz version 2.38.0 (20140413.2041)
 -->
<!-- Title: Ogre::HardwareOcclusionQuery Pages: 1 -->
<svg width="489pt" height="186pt"
 viewBox="0.00 0.00 489.00 186.00" xmlns="http://www.w3.org/2000/svg" xmlns:xlink="http://www.w3.org/1999/xlink">
<g id="graph0" class="graph" transform="scale(1 1) rotate(0) translate(4 182)">
<title>Ogre::HardwareOcclusionQuery</title>
<!-- Node1 -->
<g id="node1" class="node"><title>Node1</title>
<polygon fill="#bfbfbf" stroke="black" points="123,-79 123,-98 278,-98 278,-79 123,-79"/>
<text text-anchor="middle" x="200.5" y="-86" font-family="Helvetica,sans-Serif" font-size="10.00">Ogre::HardwareOcclusionQuery</text>
</g>
<!-- Node3 -->
<g id="node3" class="node"><title>Node3</title>
<g id="a_node3"><a xlink:href="class_ogre_1_1_d3_d11_hardware_occlusion_query.html" target="_top" xlink:title="This is a class that is the DirectX9 implementation of hardware occlusion testing. ">
<polygon fill="none" stroke="black" points="317.5,-147.5 317.5,-177.5 477.5,-177.5 477.5,-147.5 317.5,-147.5"/>
<text text-anchor="start" x="325.5" y="-165.5" font-family="Helvetica,sans-Serif" font-size="10.00">Ogre::D3D11HardwareOcclusion</text>
<text text-anchor="middle" x="397.5" y="-154.5" font-family="Helvetica,sans-Serif" font-size="10.00">Query</text>
</a>
</g>
</g>
<!-- Node1&#45;&gt;Node3 -->
<g id="edge2" class="edge"><title>Node1&#45;&gt;Node3</title>
<path fill="none" stroke="midnightblue" d="M230.38,-102.632C252.845,-113.307 284.975,-127.883 314,-138.5 322.545,-141.626 331.703,-144.625 340.695,-147.379"/>
<polygon fill="midnightblue" stroke="midnightblue" points="231.612,-99.3422 221.082,-98.1751 228.586,-105.654 231.612,-99.3422"/>
</g>
<!-- Node4 -->
<g id="node4" class="node"><title>Node4</title>
<g id="a_node4"><a xlink:href="class_ogre_1_1_d3_d9_hardware_occlusion_query.html" target="_top" xlink:title="This is a class that is the DirectX9 implementation of hardware occlusion testing. ">
<polygon fill="none" stroke="black" points="320,-98.5 320,-128.5 475,-128.5 475,-98.5 320,-98.5"/>
<text text-anchor="start" x="328" y="-116.5" font-family="Helvetica,sans-Serif" font-size="10.00">Ogre::D3D9HardwareOcclusion</text>
<text text-anchor="middle" x="397.5" y="-105.5" font-family="Helvetica,sans-Serif" font-size="10.00">Query</text>
</a>
</g>
</g>
<!-- Node1&#45;&gt;Node4 -->
<g id="edge3" class="edge"><title>Node1&#45;&gt;Node4</title>
<path fill="none" stroke="midnightblue" d="M286.019,-99.3358C297.262,-100.777 308.74,-102.249 319.84,-103.672"/>
<polygon fill="midnightblue" stroke="midnightblue" points="286.141,-95.8229 275.777,-98.0227 285.251,-102.766 286.141,-95.8229"/>
</g>
<!-- Node5 -->
<g id="node5" class="node"><title>Node5</title>
<g id="a_node5"><a xlink:href="class_ogre_1_1_g_l3_plus_hardware_occlusion_query.html" target="_top" xlink:title="This is a class that is the base class of the query class for hardware occlusion. ...">
<polygon fill="none" stroke="black" points="314,-49.5 314,-79.5 481,-79.5 481,-49.5 314,-49.5"/>
<text text-anchor="start" x="322" y="-67.5" font-family="Helvetica,sans-Serif" font-size="10.00">Ogre::GL3PlusHardwareOcclusion</text>
<text text-anchor="middle" x="397.5" y="-56.5" font-family="Helvetica,sans-Serif" font-size="10.00">Query</text>
</a>
</g>
</g>
<!-- Node1&#45;&gt;Node5 -->
<g id="edge4" class="edge"><title>Node1&#45;&gt;Node5</title>
<path fill="none" stroke="midnightblue" d="M287.998,-77.8541C296.565,-76.7997 305.246,-75.7312 313.774,-74.6817"/>
<polygon fill="midnightblue" stroke="midnightblue" points="287.507,-74.388 278.009,-79.0834 288.362,-81.3356 287.507,-74.388"/>
</g>
<!-- Node6 -->
<g id="node6" class="node"><title>Node6</title>
<g id="a_node6"><a xlink:href="class_ogre_1_1_g_l_hardware_occlusion_query.html" target="_top" xlink:title="This is a class that is the base class of the query class for hardware occlusion. ...">
<polygon fill="none" stroke="black" points="326.5,-0.5 326.5,-30.5 468.5,-30.5 468.5,-0.5 326.5,-0.5"/>
<text text-anchor="start" x="334.5" y="-18.5" font-family="Helvetica,sans-Serif" font-size="10.00">Ogre::GLHardwareOcclusion</text>
<text text-anchor="middle" x="397.5" y="-7.5" font-family="Helvetica,sans-Serif" font-size="10.00">Query</text>
</a>
</g>
</g>
<!-- Node1&#45;&gt;Node6 -->
<g id="edge5" class="edge"><title>Node1&#45;&gt;Node6</title>
<path fill="none" stroke="midnightblue" d="M230.819,-74.5008C253.281,-64.0777 285.205,-49.9112 314,-39.5 322.697,-36.3554 332.021,-33.3262 341.157,-30.5411"/>
<polygon fill="midnightblue" stroke="midnightblue" points="229.082,-71.4489 221.509,-78.8578 232.05,-77.7889 229.082,-71.4489"/>
</g>
<!-- Node2 -->
<g id="node2" class="node"><title>Node2</title>
<g id="a_node2"><a xlink:href="class_ogre_1_1_allocated_object.html" target="_top" xlink:title="Superclass for all objects that wish to use custom memory allocators when their new / delete operator...">
<polygon fill="none" stroke="black" points="0,-79 0,-98 87,-98 87,-79 0,-79"/>
<text text-anchor="middle" x="43.5" y="-86" font-family="Helvetica,sans-Serif" font-size="10.00">RenderSysAlloc</text>
</a>
</g>
</g>
<!-- Node2&#45;&gt;Node1 -->
<g id="edge1" class="edge"><title>Node2&#45;&gt;Node1</title>
<path fill="none" stroke="midnightblue" d="M97.4461,-88.5C105.684,-88.5 114.334,-88.5 122.968,-88.5"/>
<polygon fill="midnightblue" stroke="midnightblue" points="97.2648,-85.0001 87.2647,-88.5 97.2647,-92.0001 97.2648,-85.0001"/>
</g>
</g>
</svg>
