<?xml version="1.0" encoding="UTF-8" standalone="no"?>
<!DOCTYPE svg PUBLIC "-//W3C//DTD SVG 1.1//EN"
 "http://www.w3.org/Graphics/SVG/1.1/DTD/svg11.dtd">
<!-- Generated by graphviz version 2.38.0 (20140413.2041)
 -->
<!-- Title: Ogre::HardwareIndexBuffer Pages: 1 -->
<svg width="590pt" height="362pt"
 viewBox="0.00 0.00 590.00 361.50" xmlns="http://www.w3.org/2000/svg" xmlns:xlink="http://www.w3.org/1999/xlink">
<g id="graph0" class="graph" transform="scale(1 1) rotate(0) translate(4 357.5)">
<title>Ogre::HardwareIndexBuffer</title>
<!-- Node1 -->
<g id="node1" class="node"><title>Node1</title>
<polygon fill="#bfbfbf" stroke="black" points="249,-166.5 249,-185.5 385,-185.5 385,-166.5 249,-166.5"/>
<text text-anchor="middle" x="317" y="-173.5" font-family="Helvetica,sans-Serif" font-size="10.00">Ogre::HardwareIndexBuffer</text>
</g>
<!-- Node4 -->
<g id="node4" class="node"><title>Node4</title>
<g id="a_node4"><a xlink:href="class_ogre_1_1_d3_d11_hardware_index_buffer.html" target="_top" xlink:title="Ogre::D3D11HardwareIndex\lBuffer">
<polygon fill="none" stroke="black" points="431.5,-323 431.5,-353 571.5,-353 571.5,-323 431.5,-323"/>
<text text-anchor="start" x="439.5" y="-341" font-family="Helvetica,sans-Serif" font-size="10.00">Ogre::D3D11HardwareIndex</text>
<text text-anchor="middle" x="501.5" y="-330" font-family="Helvetica,sans-Serif" font-size="10.00">Buffer</text>
</a>
</g>
</g>
<!-- Node1&#45;&gt;Node4 -->
<g id="edge3" class="edge"><title>Node1&#45;&gt;Node4</title>
<path fill="none" stroke="midnightblue" d="M327.182,-194.783C342.542,-224.277 376.226,-281.345 421,-313 426.434,-316.842 432.483,-320.111 438.749,-322.888"/>
<polygon fill="midnightblue" stroke="midnightblue" points="330.165,-192.927 322.524,-185.587 323.92,-196.09 330.165,-192.927"/>
</g>
<!-- Node5 -->
<g id="node5" class="node"><title>Node5</title>
<g id="a_node5"><a xlink:href="class_ogre_1_1_d3_d9_hardware_index_buffer.html" target="_top" xlink:title="Ogre::D3D9HardwareIndexBuffer">
<polygon fill="none" stroke="black" points="421,-284.5 421,-303.5 582,-303.5 582,-284.5 421,-284.5"/>
<text text-anchor="middle" x="501.5" y="-291.5" font-family="Helvetica,sans-Serif" font-size="10.00">Ogre::D3D9HardwareIndexBuffer</text>
</a>
</g>
</g>
<!-- Node1&#45;&gt;Node5 -->
<g id="edge4" class="edge"><title>Node1&#45;&gt;Node5</title>
<path fill="none" stroke="midnightblue" d="M331.303,-193.629C349.189,-216.045 383.147,-254.316 421,-275 428.098,-278.879 435.977,-281.972 443.936,-284.438"/>
<polygon fill="midnightblue" stroke="midnightblue" points="333.967,-191.353 325.059,-185.618 328.446,-195.657 333.967,-191.353"/>
</g>
<!-- Node6 -->
<g id="node6" class="node"><title>Node6</title>
<g id="a_node6"><a xlink:href="class_ogre_1_1_default_hardware_index_buffer.html" target="_top" xlink:title="Specialisation of HardwareIndexBuffer for emulation. ">
<polygon fill="none" stroke="black" points="431,-235 431,-265 572,-265 572,-235 431,-235"/>
<text text-anchor="start" x="439" y="-253" font-family="Helvetica,sans-Serif" font-size="10.00">Ogre::DefaultHardwareIndex</text>
<text text-anchor="middle" x="501.5" y="-242" font-family="Helvetica,sans-Serif" font-size="10.00">Buffer</text>
</a>
</g>
</g>
<!-- Node1&#45;&gt;Node6 -->
<g id="edge5" class="edge"><title>Node1&#45;&gt;Node6</title>
<path fill="none" stroke="midnightblue" d="M344.514,-190.317C365.014,-201.029 394.309,-215.569 421,-226 429.057,-229.149 437.704,-232.14 446.223,-234.874"/>
<polygon fill="midnightblue" stroke="midnightblue" points="345.958,-187.121 335.48,-185.547 342.689,-193.311 345.958,-187.121"/>
</g>
<!-- Node7 -->
<g id="node7" class="node"><title>Node7</title>
<g id="a_node7"><a xlink:href="class_ogre_1_1_g_l3_plus_default_hardware_index_buffer.html" target="_top" xlink:title="Specialisation of HardwareIndexBuffer for emulation. ">
<polygon fill="none" stroke="black" points="424,-186 424,-216 579,-216 579,-186 424,-186"/>
<text text-anchor="start" x="432" y="-204" font-family="Helvetica,sans-Serif" font-size="10.00">Ogre::GL3PlusDefaultHardware</text>
<text text-anchor="middle" x="501.5" y="-193" font-family="Helvetica,sans-Serif" font-size="10.00">IndexBuffer</text>
</a>
</g>
</g>
<!-- Node1&#45;&gt;Node7 -->
<g id="edge6" class="edge"><title>Node1&#45;&gt;Node7</title>
<path fill="none" stroke="midnightblue" d="M395.341,-186.595C404.799,-187.89 414.461,-189.214 423.907,-190.508"/>
<polygon fill="midnightblue" stroke="midnightblue" points="395.561,-183.092 385.179,-185.203 394.611,-190.027 395.561,-183.092"/>
</g>
<!-- Node8 -->
<g id="node8" class="node"><title>Node8</title>
<g id="a_node8"><a xlink:href="class_ogre_1_1_g_l3_plus_hardware_index_buffer.html" target="_top" xlink:title="Ogre::GL3PlusHardwareIndex\lBuffer">
<polygon fill="none" stroke="black" points="428,-137 428,-167 575,-167 575,-137 428,-137"/>
<text text-anchor="start" x="436" y="-155" font-family="Helvetica,sans-Serif" font-size="10.00">Ogre::GL3PlusHardwareIndex</text>
<text text-anchor="middle" x="501.5" y="-144" font-family="Helvetica,sans-Serif" font-size="10.00">Buffer</text>
</a>
</g>
</g>
<!-- Node1&#45;&gt;Node8 -->
<g id="edge7" class="edge"><title>Node1&#45;&gt;Node8</title>
<path fill="none" stroke="midnightblue" d="M395.417,-165.819C406.201,-164.401 417.248,-162.948 427.938,-161.542"/>
<polygon fill="midnightblue" stroke="midnightblue" points="394.637,-162.391 385.179,-167.166 395.55,-169.332 394.637,-162.391"/>
</g>
<!-- Node9 -->
<g id="node9" class="node"><title>Node9</title>
<g id="a_node9"><a xlink:href="class_ogre_1_1_g_l_default_hardware_index_buffer.html" target="_top" xlink:title="Specialisation of HardwareIndexBuffer for emulation. ">
<polygon fill="none" stroke="black" points="424.5,-88 424.5,-118 578.5,-118 578.5,-88 424.5,-88"/>
<text text-anchor="start" x="432.5" y="-106" font-family="Helvetica,sans-Serif" font-size="10.00">Ogre::GLDefaultHardwareIndex</text>
<text text-anchor="middle" x="501.5" y="-95" font-family="Helvetica,sans-Serif" font-size="10.00">Buffer</text>
</a>
</g>
</g>
<!-- Node1&#45;&gt;Node9 -->
<g id="edge8" class="edge"><title>Node1&#45;&gt;Node9</title>
<path fill="none" stroke="midnightblue" d="M344.918,-161.818C365.418,-151.357 394.529,-137.225 421,-127 429.204,-123.831 438.012,-120.81 446.67,-118.045"/>
<polygon fill="midnightblue" stroke="midnightblue" points="343.155,-158.789 335.87,-166.481 346.363,-165.011 343.155,-158.789"/>
</g>
<!-- Node10 -->
<g id="node10" class="node"><title>Node10</title>
<g id="a_node10"><a xlink:href="class_ogre_1_1_g_l_e_s2_default_hardware_index_buffer.html" target="_top" xlink:title="Specialisation of HardwareIndexBuffer for emulation. ">
<polygon fill="none" stroke="black" points="427,-39 427,-69 576,-69 576,-39 427,-39"/>
<text text-anchor="start" x="435" y="-57" font-family="Helvetica,sans-Serif" font-size="10.00">Ogre::GLES2DefaultHardware</text>
<text text-anchor="middle" x="501.5" y="-46" font-family="Helvetica,sans-Serif" font-size="10.00">IndexBuffer</text>
</a>
</g>
</g>
<!-- Node1&#45;&gt;Node10 -->
<g id="edge9" class="edge"><title>Node1&#45;&gt;Node10</title>
<path fill="none" stroke="midnightblue" d="M331.811,-158.558C350.015,-136.691 384.083,-99.4748 421,-78 426.857,-74.5928 433.243,-71.6278 439.767,-69.0573"/>
<polygon fill="midnightblue" stroke="midnightblue" points="329.038,-156.42 325.43,-166.382 334.463,-160.844 329.038,-156.42"/>
</g>
<!-- Node11 -->
<g id="node11" class="node"><title>Node11</title>
<g id="a_node11"><a xlink:href="class_ogre_1_1_g_l_hardware_index_buffer.html" target="_top" xlink:title="Ogre::GLHardwareIndexBuffer">
<polygon fill="none" stroke="black" points="427,-0.5 427,-19.5 576,-19.5 576,-0.5 427,-0.5"/>
<text text-anchor="middle" x="501.5" y="-7.5" font-family="Helvetica,sans-Serif" font-size="10.00">Ogre::GLHardwareIndexBuffer</text>
</a>
</g>
</g>
<!-- Node1&#45;&gt;Node11 -->
<g id="edge10" class="edge"><title>Node1&#45;&gt;Node11</title>
<path fill="none" stroke="midnightblue" d="M325.94,-156.796C340.107,-125.014 372.842,-61.7421 421,-29 426.75,-25.0904 433.212,-21.9814 439.902,-19.5096"/>
<polygon fill="midnightblue" stroke="midnightblue" points="322.597,-155.709 321.852,-166.278 329.025,-158.481 322.597,-155.709"/>
</g>
<!-- Node2 -->
<g id="node2" class="node"><title>Node2</title>
<g id="a_node2"><a xlink:href="class_ogre_1_1_hardware_buffer.html" target="_top" xlink:title="Abstract class defining common features of hardware buffers. ">
<polygon fill="none" stroke="black" points="101,-166.5 101,-185.5 213,-185.5 213,-166.5 101,-166.5"/>
<text text-anchor="middle" x="157" y="-173.5" font-family="Helvetica,sans-Serif" font-size="10.00">Ogre::HardwareBuffer</text>
</a>
</g>
</g>
<!-- Node2&#45;&gt;Node1 -->
<g id="edge1" class="edge"><title>Node2&#45;&gt;Node1</title>
<path fill="none" stroke="midnightblue" d="M223.374,-176C231.773,-176 240.384,-176 248.811,-176"/>
<polygon fill="midnightblue" stroke="midnightblue" points="223.261,-172.5 213.261,-176 223.261,-179.5 223.261,-172.5"/>
</g>
<!-- Node3 -->
<g id="node3" class="node"><title>Node3</title>
<g id="a_node3"><a xlink:href="class_ogre_1_1_allocated_object.html" target="_top" xlink:title="Superclass for all objects that wish to use custom memory allocators when their new / delete operator...">
<polygon fill="none" stroke="black" points="0,-166.5 0,-185.5 65,-185.5 65,-166.5 0,-166.5"/>
<text text-anchor="middle" x="32.5" y="-173.5" font-family="Helvetica,sans-Serif" font-size="10.00">BufferAlloc</text>
</a>
</g>
</g>
<!-- Node3&#45;&gt;Node2 -->
<g id="edge2" class="edge"><title>Node3&#45;&gt;Node2</title>
<path fill="none" stroke="midnightblue" d="M75.1571,-176C83.4035,-176 92.1796,-176 100.795,-176"/>
<polygon fill="midnightblue" stroke="midnightblue" points="75.0468,-172.5 65.0468,-176 75.0468,-179.5 75.0468,-172.5"/>
</g>
</g>
</svg>
