<?xml version="1.0" encoding="UTF-8" standalone="no"?>
<!DOCTYPE svg PUBLIC "-//W3C//DTD SVG 1.1//EN"
 "http://www.w3.org/Graphics/SVG/1.1/DTD/svg11.dtd">
<!-- Generated by graphviz version 2.38.0 (20140413.2041)
 -->
<!-- Title: Ogre::GLRenderTexture Pages: 1 -->
<svg width="737pt" height="192pt"
 viewBox="0.00 0.00 737.00 192.00" xmlns="http://www.w3.org/2000/svg" xmlns:xlink="http://www.w3.org/1999/xlink">
<g id="graph0" class="graph" transform="scale(1 1) rotate(0) translate(4 188)">
<title>Ogre::GLRenderTexture</title>
<!-- Node1 -->
<g id="node1" class="node"><title>Node1</title>
<polygon fill="#bfbfbf" stroke="black" points="406,-82.5 406,-101.5 527,-101.5 527,-82.5 406,-82.5"/>
<text text-anchor="middle" x="466.5" y="-89.5" font-family="Helvetica,sans-Serif" font-size="10.00">Ogre::GLRenderTexture</text>
</g>
<!-- Node5 -->
<g id="node5" class="node"><title>Node5</title>
<g id="a_node5"><a xlink:href="class_ogre_1_1_g_l3_plus_f_b_o_render_texture.html" target="_top" xlink:title="RenderTexture for GL FBO. ">
<polygon fill="none" stroke="black" points="563,-164.5 563,-183.5 729,-183.5 729,-164.5 563,-164.5"/>
<text text-anchor="middle" x="646" y="-171.5" font-family="Helvetica,sans-Serif" font-size="10.00">Ogre::GL3PlusFBORenderTexture</text>
</a>
</g>
</g>
<!-- Node1&#45;&gt;Node5 -->
<g id="edge4" class="edge"><title>Node1&#45;&gt;Node5</title>
<path fill="none" stroke="midnightblue" d="M487.015,-107.903C505.52,-122.22 534.637,-142.827 563,-155 571.863,-158.804 581.606,-161.909 591.187,-164.424"/>
<polygon fill="midnightblue" stroke="midnightblue" points="489.085,-105.078 479.066,-101.632 484.75,-110.574 489.085,-105.078"/>
</g>
<!-- Node6 -->
<g id="node6" class="node"><title>Node6</title>
<g id="a_node6"><a xlink:href="class_ogre_1_1_g_l_copying_render_texture.html" target="_top" xlink:title="Ogre::GLCopyingRenderTexture">
<polygon fill="none" stroke="black" points="567.5,-126.5 567.5,-145.5 724.5,-145.5 724.5,-126.5 567.5,-126.5"/>
<text text-anchor="middle" x="646" y="-133.5" font-family="Helvetica,sans-Serif" font-size="10.00">Ogre::GLCopyingRenderTexture</text>
</a>
</g>
</g>
<!-- Node1&#45;&gt;Node6 -->
<g id="edge5" class="edge"><title>Node1&#45;&gt;Node6</title>
<path fill="none" stroke="midnightblue" d="M513.28,-104.266C529.015,-108.407 546.757,-112.993 563,-117 575.911,-120.185 590.004,-123.507 602.808,-126.465"/>
<polygon fill="midnightblue" stroke="midnightblue" points="513.827,-100.79 503.265,-101.619 512.039,-107.558 513.827,-100.79"/>
</g>
<!-- Node7 -->
<g id="node7" class="node"><title>Node7</title>
<g id="a_node7"><a xlink:href="class_ogre_1_1_g_l_e_s2_copying_render_texture.html" target="_top" xlink:title="Ogre::GLES2CopyingRender\lTexture">
<polygon fill="none" stroke="black" points="574.5,-77 574.5,-107 717.5,-107 717.5,-77 574.5,-77"/>
<text text-anchor="start" x="582.5" y="-95" font-family="Helvetica,sans-Serif" font-size="10.00">Ogre::GLES2CopyingRender</text>
<text text-anchor="middle" x="646" y="-84" font-family="Helvetica,sans-Serif" font-size="10.00">Texture</text>
</a>
</g>
</g>
<!-- Node1&#45;&gt;Node7 -->
<g id="edge6" class="edge"><title>Node1&#45;&gt;Node7</title>
<path fill="none" stroke="midnightblue" d="M537.241,-92C549.484,-92 562.233,-92 574.496,-92"/>
<polygon fill="midnightblue" stroke="midnightblue" points="537.099,-88.5001 527.099,-92 537.099,-95.5001 537.099,-88.5001"/>
</g>
<!-- Node8 -->
<g id="node8" class="node"><title>Node8</title>
<g id="a_node8"><a xlink:href="class_ogre_1_1_g_l_f_b_o_render_texture.html" target="_top" xlink:title="RenderTexture for GL FBO. ">
<polygon fill="none" stroke="black" points="575.5,-38.5 575.5,-57.5 716.5,-57.5 716.5,-38.5 575.5,-38.5"/>
<text text-anchor="middle" x="646" y="-45.5" font-family="Helvetica,sans-Serif" font-size="10.00">Ogre::GLFBORenderTexture</text>
</a>
</g>
</g>
<!-- Node1&#45;&gt;Node8 -->
<g id="edge7" class="edge"><title>Node1&#45;&gt;Node8</title>
<path fill="none" stroke="midnightblue" d="M513.28,-79.7343C529.015,-75.5933 546.757,-71.0071 563,-67 575.911,-63.815 590.004,-60.4935 602.808,-57.535"/>
<polygon fill="midnightblue" stroke="midnightblue" points="512.039,-76.442 503.265,-82.3807 513.827,-83.2097 512.039,-76.442"/>
</g>
<!-- Node9 -->
<g id="node9" class="node"><title>Node9</title>
<g id="a_node9"><a xlink:href="class_ogre_1_1_g_l_p_b_render_texture.html" target="_top" xlink:title="Ogre::GLPBRenderTexture">
<polygon fill="none" stroke="black" points="579,-0.5 579,-19.5 713,-19.5 713,-0.5 579,-0.5"/>
<text text-anchor="middle" x="646" y="-7.5" font-family="Helvetica,sans-Serif" font-size="10.00">Ogre::GLPBRenderTexture</text>
</a>
</g>
</g>
<!-- Node1&#45;&gt;Node9 -->
<g id="edge8" class="edge"><title>Node1&#45;&gt;Node9</title>
<path fill="none" stroke="midnightblue" d="M487.015,-76.0972C505.52,-61.7801 534.637,-41.1732 563,-29 571.863,-25.196 581.606,-22.0906 591.187,-19.5764"/>
<polygon fill="midnightblue" stroke="midnightblue" points="484.75,-73.4262 479.066,-82.3677 489.085,-78.922 484.75,-73.4262"/>
</g>
<!-- Node2 -->
<g id="node2" class="node"><title>Node2</title>
<g id="a_node2"><a xlink:href="class_ogre_1_1_render_texture.html" target="_top" xlink:title="This class represents a RenderTarget that renders to a Texture. ">
<polygon fill="none" stroke="black" points="262,-82.5 262,-101.5 370,-101.5 370,-82.5 262,-82.5"/>
<text text-anchor="middle" x="316" y="-89.5" font-family="Helvetica,sans-Serif" font-size="10.00">Ogre::RenderTexture</text>
</a>
</g>
</g>
<!-- Node2&#45;&gt;Node1 -->
<g id="edge1" class="edge"><title>Node2&#45;&gt;Node1</title>
<path fill="none" stroke="midnightblue" d="M380.38,-92C388.835,-92 397.483,-92 405.871,-92"/>
<polygon fill="midnightblue" stroke="midnightblue" points="380.192,-88.5001 370.192,-92 380.192,-95.5001 380.192,-88.5001"/>
</g>
<!-- Node3 -->
<g id="node3" class="node"><title>Node3</title>
<g id="a_node3"><a xlink:href="class_ogre_1_1_render_target.html" target="_top" xlink:title="A &#39;canvas&#39; which can receive the results of a rendering operation. ">
<polygon fill="none" stroke="black" points="123,-82.5 123,-101.5 226,-101.5 226,-82.5 123,-82.5"/>
<text text-anchor="middle" x="174.5" y="-89.5" font-family="Helvetica,sans-Serif" font-size="10.00">Ogre::RenderTarget</text>
</a>
</g>
</g>
<!-- Node3&#45;&gt;Node2 -->
<g id="edge2" class="edge"><title>Node3&#45;&gt;Node2</title>
<path fill="none" stroke="midnightblue" d="M236.41,-92C244.832,-92 253.429,-92 261.698,-92"/>
<polygon fill="midnightblue" stroke="midnightblue" points="236.257,-88.5001 226.257,-92 236.257,-95.5001 236.257,-88.5001"/>
</g>
<!-- Node4 -->
<g id="node4" class="node"><title>Node4</title>
<g id="a_node4"><a xlink:href="class_ogre_1_1_allocated_object.html" target="_top" xlink:title="Superclass for all objects that wish to use custom memory allocators when their new / delete operator...">
<polygon fill="none" stroke="black" points="0,-82.5 0,-101.5 87,-101.5 87,-82.5 0,-82.5"/>
<text text-anchor="middle" x="43.5" y="-89.5" font-family="Helvetica,sans-Serif" font-size="10.00">RenderSysAlloc</text>
</a>
</g>
</g>
<!-- Node4&#45;&gt;Node3 -->
<g id="edge3" class="edge"><title>Node4&#45;&gt;Node3</title>
<path fill="none" stroke="midnightblue" d="M97.2458,-92C105.713,-92 114.461,-92 122.877,-92"/>
<polygon fill="midnightblue" stroke="midnightblue" points="97.097,-88.5001 87.0969,-92 97.0969,-95.5001 97.097,-88.5001"/>
</g>
</g>
</svg>
