<?xml version="1.0" encoding="UTF-8" standalone="no"?>
<!DOCTYPE svg PUBLIC "-//W3C//DTD SVG 1.1//EN"
 "http://www.w3.org/Graphics/SVG/1.1/DTD/svg11.dtd">
<!-- Generated by graphviz version 2.38.0 (20140413.2041)
 -->
<!-- Title: Ogre::Renderable Pages: 1 -->
<svg width="828pt" height="517pt"
 viewBox="0.00 0.00 828.00 517.00" xmlns="http://www.w3.org/2000/svg" xmlns:xlink="http://www.w3.org/1999/xlink">
<g id="graph0" class="graph" transform="scale(1 1) rotate(0) translate(4 513)">
<title>Ogre::Renderable</title>
<!-- Node1 -->
<g id="node1" class="node"><title>Node1</title>
<polygon fill="#bfbfbf" stroke="black" points="0,-271.5 0,-290.5 93,-290.5 93,-271.5 0,-271.5"/>
<text text-anchor="middle" x="46.5" y="-278.5" font-family="Helvetica,sans-Serif" font-size="10.00">Ogre::Renderable</text>
</g>
<!-- Node2 -->
<g id="node2" class="node"><title>Node2</title>
<g id="a_node2"><a xlink:href="class_ogre_1_1_billboard_chain.html" target="_top" xlink:title="Allows the rendering of a chain of connected billboards. ">
<polygon fill="none" stroke="black" points="151,-489.5 151,-508.5 258,-508.5 258,-489.5 151,-489.5"/>
<text text-anchor="middle" x="204.5" y="-496.5" font-family="Helvetica,sans-Serif" font-size="10.00">Ogre::BillboardChain</text>
</a>
</g>
</g>
<!-- Node1&#45;&gt;Node2 -->
<g id="edge1" class="edge"><title>Node1&#45;&gt;Node2</title>
<path fill="none" stroke="midnightblue" d="M49.725,-300.693C55.3269,-340.742 73.7606,-431.951 129,-480 135.244,-485.431 142.834,-489.346 150.75,-492.161"/>
<polygon fill="midnightblue" stroke="midnightblue" points="53.1781,-300.102 48.4416,-290.624 46.2342,-300.987 53.1781,-300.102"/>
</g>
<!-- Node4 -->
<g id="node4" class="node"><title>Node4</title>
<g id="a_node4"><a xlink:href="class_ogre_1_1_billboard_set.html" target="_top" xlink:title="A collection of billboards (faces which are always facing the given direction) with the same (default...">
<polygon fill="none" stroke="black" points="156.5,-451.5 156.5,-470.5 252.5,-470.5 252.5,-451.5 156.5,-451.5"/>
<text text-anchor="middle" x="204.5" y="-458.5" font-family="Helvetica,sans-Serif" font-size="10.00">Ogre::BillboardSet</text>
</a>
</g>
</g>
<!-- Node1&#45;&gt;Node4 -->
<g id="edge3" class="edge"><title>Node1&#45;&gt;Node4</title>
<path fill="none" stroke="midnightblue" d="M51.8782,-300.877C60.4773,-335.098 82.8889,-405.019 129,-442 136.81,-448.263 146.438,-452.487 156.149,-455.33"/>
<polygon fill="midnightblue" stroke="midnightblue" points="55.1878,-299.664 49.4773,-290.74 48.3762,-301.277 55.1878,-299.664"/>
</g>
<!-- Node5 -->
<g id="node5" class="node"><title>Node5</title>
<g id="a_node5"><a xlink:href="class_ogre_1_1_border_renderable.html" target="_top" xlink:title="Class for rendering the border of a BorderPanelOverlayElement. ">
<polygon fill="none" stroke="black" points="143.5,-413.5 143.5,-432.5 265.5,-432.5 265.5,-413.5 143.5,-413.5"/>
<text text-anchor="middle" x="204.5" y="-420.5" font-family="Helvetica,sans-Serif" font-size="10.00">Ogre::BorderRenderable</text>
</a>
</g>
</g>
<!-- Node1&#45;&gt;Node5 -->
<g id="edge4" class="edge"><title>Node1&#45;&gt;Node5</title>
<path fill="none" stroke="midnightblue" d="M54.9976,-300.385C66.6081,-327.773 91.5746,-377.414 129,-404 134.441,-407.865 140.598,-410.945 146.985,-413.4"/>
<polygon fill="midnightblue" stroke="midnightblue" points="58.0926,-298.705 51.0821,-290.761 51.6086,-301.342 58.0926,-298.705"/>
</g>
<!-- Node6 -->
<g id="node6" class="node"><title>Node6</title>
<g id="a_node6"><a xlink:href="class_ogre_1_1_frustum.html" target="_top" xlink:title="A frustum represents a pyramid, capped at the near and far end which is used to represent either a vi...">
<polygon fill="none" stroke="black" points="164.5,-375.5 164.5,-394.5 244.5,-394.5 244.5,-375.5 164.5,-375.5"/>
<text text-anchor="middle" x="204.5" y="-382.5" font-family="Helvetica,sans-Serif" font-size="10.00">Ogre::Frustum</text>
</a>
</g>
</g>
<!-- Node1&#45;&gt;Node6 -->
<g id="edge5" class="edge"><title>Node1&#45;&gt;Node6</title>
<path fill="none" stroke="midnightblue" d="M59.832,-298.878C74.1967,-318.329 99.7294,-348.926 129,-366 139.723,-372.255 152.487,-376.473 164.394,-379.308"/>
<polygon fill="midnightblue" stroke="midnightblue" points="62.5486,-296.66 53.877,-290.573 56.8599,-300.739 62.5486,-296.66"/>
</g>
<!-- Node10 -->
<g id="node10" class="node"><title>Node10</title>
<g id="a_node10"><a xlink:href="class_ogre_1_1_instance_batch.html" target="_top" xlink:title="InstanceBatch forms part of the new Instancing system This is an abstract class that must be derived ...">
<polygon fill="none" stroke="black" points="151,-337.5 151,-356.5 258,-356.5 258,-337.5 151,-337.5"/>
<text text-anchor="middle" x="204.5" y="-344.5" font-family="Helvetica,sans-Serif" font-size="10.00">Ogre::InstanceBatch</text>
</a>
</g>
</g>
<!-- Node1&#45;&gt;Node10 -->
<g id="edge9" class="edge"><title>Node1&#45;&gt;Node10</title>
<path fill="none" stroke="midnightblue" d="M69.9127,-296.168C85.8251,-306.367 108.006,-319.458 129,-328 138.149,-331.722 148.234,-334.88 157.949,-337.489"/>
<polygon fill="midnightblue" stroke="midnightblue" points="71.6097,-293.096 61.3244,-290.554 67.7794,-298.955 71.6097,-293.096"/>
</g>
<!-- Node16 -->
<g id="node16" class="node"><title>Node16</title>
<g id="a_node16"><a xlink:href="class_ogre_1_1_manual_object_1_1_manual_object_section.html" target="_top" xlink:title="Built, renderable section of geometry. ">
<polygon fill="none" stroke="black" points="146.5,-288 146.5,-318 262.5,-318 262.5,-288 146.5,-288"/>
<text text-anchor="start" x="154.5" y="-306" font-family="Helvetica,sans-Serif" font-size="10.00">Ogre::ManualObject</text>
<text text-anchor="middle" x="204.5" y="-295" font-family="Helvetica,sans-Serif" font-size="10.00">::ManualObjectSection</text>
</a>
</g>
</g>
<!-- Node1&#45;&gt;Node16 -->
<g id="edge15" class="edge"><title>Node1&#45;&gt;Node16</title>
<path fill="none" stroke="midnightblue" d="M103.035,-288.832C117.057,-290.809 132.138,-292.936 146.243,-294.925"/>
<polygon fill="midnightblue" stroke="midnightblue" points="103.432,-285.353 93.041,-287.422 102.454,-292.285 103.432,-285.353"/>
</g>
<!-- Node17 -->
<g id="node17" class="node"><title>Node17</title>
<g id="a_node17"><a xlink:href="class_ogre_1_1_node_1_1_debug_renderable.html" target="_top" xlink:title="Inner class for displaying debug renderable for Node. ">
<polygon fill="none" stroke="black" points="129,-249.5 129,-268.5 280,-268.5 280,-249.5 129,-249.5"/>
<text text-anchor="middle" x="204.5" y="-256.5" font-family="Helvetica,sans-Serif" font-size="10.00">Ogre::Node::DebugRenderable</text>
</a>
</g>
</g>
<!-- Node1&#45;&gt;Node17 -->
<g id="edge16" class="edge"><title>Node1&#45;&gt;Node17</title>
<path fill="none" stroke="midnightblue" d="M103.022,-273.17C113.657,-271.67 124.901,-270.084 135.867,-268.538"/>
<polygon fill="midnightblue" stroke="midnightblue" points="102.454,-269.715 93.041,-274.578 103.432,-276.647 102.454,-269.715"/>
</g>
<!-- Node18 -->
<g id="node18" class="node"><title>Node18</title>
<g id="a_node18"><a xlink:href="class_ogre_1_1_overlay_element.html" target="_top" xlink:title="Abstract definition of a 2D element to be displayed in an Overlay. ">
<polygon fill="none" stroke="black" points="148,-211.5 148,-230.5 261,-230.5 261,-211.5 148,-211.5"/>
<text text-anchor="middle" x="204.5" y="-218.5" font-family="Helvetica,sans-Serif" font-size="10.00">Ogre::OverlayElement</text>
</a>
</g>
</g>
<!-- Node1&#45;&gt;Node18 -->
<g id="edge17" class="edge"><title>Node1&#45;&gt;Node18</title>
<path fill="none" stroke="midnightblue" d="M72.9737,-266.389C88.7299,-257.809 109.589,-247.26 129,-240 138.627,-236.399 149.202,-233.246 159.285,-230.596"/>
<polygon fill="midnightblue" stroke="midnightblue" points="70.9303,-263.52 63.8812,-271.429 74.3242,-269.642 70.9303,-263.52"/>
</g>
<!-- Node23 -->
<g id="node23" class="node"><title>Node23</title>
<g id="a_node23"><a xlink:href="class_ogre_1_1_shadow_renderable.html" target="_top" xlink:title="Class which represents the renderable aspects of a set of shadow volume faces. ">
<polygon fill="none" stroke="black" points="140.5,-173.5 140.5,-192.5 268.5,-192.5 268.5,-173.5 140.5,-173.5"/>
<text text-anchor="middle" x="204.5" y="-180.5" font-family="Helvetica,sans-Serif" font-size="10.00">Ogre::ShadowRenderable</text>
</a>
</g>
</g>
<!-- Node1&#45;&gt;Node23 -->
<g id="edge22" class="edge"><title>Node1&#45;&gt;Node23</title>
<path fill="none" stroke="midnightblue" d="M61.0097,-263.31C75.7689,-245.219 101.063,-217.618 129,-202 135.874,-198.157 143.537,-195.076 151.259,-192.61"/>
<polygon fill="midnightblue" stroke="midnightblue" points="58.118,-261.324 54.6452,-271.333 63.602,-265.674 58.118,-261.324"/>
</g>
<!-- Node25 -->
<g id="node25" class="node"><title>Node25</title>
<g id="a_node25"><a xlink:href="class_ogre_1_1_simple_renderable.html" target="_top" xlink:title="Simple implementation of MovableObject and Renderable for single&#45;part custom objects. ">
<polygon fill="none" stroke="black" points="143,-120.5 143,-139.5 266,-139.5 266,-120.5 143,-120.5"/>
<text text-anchor="middle" x="204.5" y="-127.5" font-family="Helvetica,sans-Serif" font-size="10.00">Ogre::SimpleRenderable</text>
</a>
</g>
</g>
<!-- Node1&#45;&gt;Node25 -->
<g id="edge24" class="edge"><title>Node1&#45;&gt;Node25</title>
<path fill="none" stroke="midnightblue" d="M56.6495,-261.946C69.6332,-236.633 95.5858,-191.874 129,-164 141.882,-153.253 158.717,-145.19 173.124,-139.62"/>
<polygon fill="midnightblue" stroke="midnightblue" points="53.3625,-260.695 52.0358,-271.206 59.628,-263.816 53.3625,-260.695"/>
</g>
<!-- Node30 -->
<g id="node30" class="node"><title>Node30</title>
<g id="a_node30"><a xlink:href="class_ogre_1_1_static_geometry_1_1_geometry_bucket.html" target="_top" xlink:title="A GeometryBucket is a the lowest level bucket where geometry with the same vertex &amp; index format is s...">
<polygon fill="none" stroke="black" points="148.5,-71 148.5,-101 260.5,-101 260.5,-71 148.5,-71"/>
<text text-anchor="start" x="156.5" y="-89" font-family="Helvetica,sans-Serif" font-size="10.00">Ogre::StaticGeometry</text>
<text text-anchor="middle" x="204.5" y="-78" font-family="Helvetica,sans-Serif" font-size="10.00">::GeometryBucket</text>
</a>
</g>
</g>
<!-- Node1&#45;&gt;Node30 -->
<g id="edge29" class="edge"><title>Node1&#45;&gt;Node30</title>
<path fill="none" stroke="midnightblue" d="M51.614,-261.359C59.9864,-226.183 82.3047,-152.266 129,-111 134.623,-106.031 141.268,-102.043 148.237,-98.8445"/>
<polygon fill="midnightblue" stroke="midnightblue" points="48.1516,-260.803 49.3725,-271.327 54.9811,-262.339 48.1516,-260.803"/>
</g>
<!-- Node31 -->
<g id="node31" class="node"><title>Node31</title>
<g id="a_node31"><a xlink:href="class_ogre_1_1_sub_entity.html" target="_top" xlink:title="Utility class which defines the sub&#45;parts of an Entity. ">
<polygon fill="none" stroke="black" points="161.5,-32.5 161.5,-51.5 247.5,-51.5 247.5,-32.5 161.5,-32.5"/>
<text text-anchor="middle" x="204.5" y="-39.5" font-family="Helvetica,sans-Serif" font-size="10.00">Ogre::SubEntity</text>
</a>
</g>
</g>
<!-- Node1&#45;&gt;Node31 -->
<g id="edge30" class="edge"><title>Node1&#45;&gt;Node31</title>
<path fill="none" stroke="midnightblue" d="M48.8498,-261.331C52.8931,-218.291 68.6948,-115.28 129,-61 137.929,-52.9631 149.788,-48.2289 161.413,-45.4684"/>
<polygon fill="midnightblue" stroke="midnightblue" points="45.3569,-261.101 48.0242,-271.355 52.3333,-261.676 45.3569,-261.101"/>
</g>
<!-- Node3 -->
<g id="node3" class="node"><title>Node3</title>
<g id="a_node3"><a xlink:href="class_ogre_1_1_ribbon_trail.html" target="_top" xlink:title="Subclass of BillboardChain which automatically leaves a trail behind one or more Node instances...">
<polygon fill="none" stroke="black" points="346,-489.5 346,-508.5 439,-508.5 439,-489.5 346,-489.5"/>
<text text-anchor="middle" x="392.5" y="-496.5" font-family="Helvetica,sans-Serif" font-size="10.00">Ogre::RibbonTrail</text>
</a>
</g>
</g>
<!-- Node2&#45;&gt;Node3 -->
<g id="edge2" class="edge"><title>Node2&#45;&gt;Node3</title>
<path fill="none" stroke="midnightblue" d="M268.565,-499C293.904,-499 322.563,-499 345.832,-499"/>
<polygon fill="midnightblue" stroke="midnightblue" points="268.303,-495.5 258.303,-499 268.303,-502.5 268.303,-495.5"/>
</g>
<!-- Node7 -->
<g id="node7" class="node"><title>Node7</title>
<g id="a_node7"><a xlink:href="class_ogre_1_1_camera.html" target="_top" xlink:title="A viewpoint from which the scene will be rendered. ">
<polygon fill="none" stroke="black" points="353.5,-413.5 353.5,-432.5 431.5,-432.5 431.5,-413.5 353.5,-413.5"/>
<text text-anchor="middle" x="392.5" y="-420.5" font-family="Helvetica,sans-Serif" font-size="10.00">Ogre::Camera</text>
</a>
</g>
</g>
<!-- Node6&#45;&gt;Node7 -->
<g id="edge6" class="edge"><title>Node6&#45;&gt;Node7</title>
<path fill="none" stroke="midnightblue" d="M255.063,-395.126C285.905,-401.427 324.966,-409.407 353.383,-415.213"/>
<polygon fill="midnightblue" stroke="midnightblue" points="255.444,-391.631 244.946,-393.059 254.043,-398.49 255.444,-391.631"/>
</g>
<!-- Node8 -->
<g id="node8" class="node"><title>Node8</title>
<g id="a_node8"><a xlink:href="class_ogre_1_1_octree_camera.html" target="_top" xlink:title="Specialized viewpoint from which an Octree can be rendered. ">
<polygon fill="none" stroke="black" points="525.5,-451.5 525.5,-470.5 632.5,-470.5 632.5,-451.5 525.5,-451.5"/>
<text text-anchor="middle" x="579" y="-458.5" font-family="Helvetica,sans-Serif" font-size="10.00">Ogre::OctreeCamera</text>
</a>
</g>
</g>
<!-- Node7&#45;&gt;Node8 -->
<g id="edge7" class="edge"><title>Node7&#45;&gt;Node8</title>
<path fill="none" stroke="midnightblue" d="M441.622,-432.911C469.404,-438.633 504.172,-445.794 531.649,-451.454"/>
<polygon fill="midnightblue" stroke="midnightblue" points="442.229,-429.463 431.729,-430.874 440.817,-436.319 442.229,-429.463"/>
</g>
<!-- Node9 -->
<g id="node9" class="node"><title>Node9</title>
<g id="a_node9"><a xlink:href="class_ogre_1_1_p_c_z_camera.html" target="_top" xlink:title="Specialized viewpoint from which an PCZone Scene can be rendered. ">
<polygon fill="none" stroke="black" points="530,-413.5 530,-432.5 628,-432.5 628,-413.5 530,-413.5"/>
<text text-anchor="middle" x="579" y="-420.5" font-family="Helvetica,sans-Serif" font-size="10.00">Ogre::PCZCamera</text>
</a>
</g>
</g>
<!-- Node7&#45;&gt;Node9 -->
<g id="edge8" class="edge"><title>Node7&#45;&gt;Node9</title>
<path fill="none" stroke="midnightblue" d="M441.795,-423C468.98,-423 502.813,-423 529.958,-423"/>
<polygon fill="midnightblue" stroke="midnightblue" points="441.729,-419.5 431.729,-423 441.728,-426.5 441.729,-419.5"/>
</g>
<!-- Node11 -->
<g id="node11" class="node"><title>Node11</title>
<g id="a_node11"><a xlink:href="class_ogre_1_1_base_instance_batch_v_t_f.html" target="_top" xlink:title="Instancing implementation using vertex texture through Vertex Texture Fetch (VTF) This implementation...">
<polygon fill="none" stroke="black" points="318.5,-375.5 318.5,-394.5 466.5,-394.5 466.5,-375.5 318.5,-375.5"/>
<text text-anchor="middle" x="392.5" y="-382.5" font-family="Helvetica,sans-Serif" font-size="10.00">Ogre::BaseInstanceBatchVTF</text>
</a>
</g>
</g>
<!-- Node10&#45;&gt;Node11 -->
<g id="edge10" class="edge"><title>Node10&#45;&gt;Node11</title>
<path fill="none" stroke="midnightblue" d="M262.325,-358.61C288.779,-364.014 319.858,-370.364 344.902,-375.48"/>
<polygon fill="midnightblue" stroke="midnightblue" points="262.934,-355.162 252.436,-356.589 261.533,-362.02 262.934,-355.162"/>
</g>
<!-- Node14 -->
<g id="node14" class="node"><title>Node14</title>
<g id="a_node14"><a xlink:href="class_ogre_1_1_instance_batch_h_w.html" target="_top" xlink:title="This is technique requires true instancing hardware support. ">
<polygon fill="none" stroke="black" points="330.5,-337.5 330.5,-356.5 454.5,-356.5 454.5,-337.5 330.5,-337.5"/>
<text text-anchor="middle" x="392.5" y="-344.5" font-family="Helvetica,sans-Serif" font-size="10.00">Ogre::InstanceBatchHW</text>
</a>
</g>
</g>
<!-- Node10&#45;&gt;Node14 -->
<g id="edge13" class="edge"><title>Node10&#45;&gt;Node14</title>
<path fill="none" stroke="midnightblue" d="M268.532,-347C288.495,-347 310.522,-347 330.351,-347"/>
<polygon fill="midnightblue" stroke="midnightblue" points="268.303,-343.5 258.303,-347 268.303,-350.5 268.303,-343.5"/>
</g>
<!-- Node15 -->
<g id="node15" class="node"><title>Node15</title>
<g id="a_node15"><a xlink:href="class_ogre_1_1_instance_batch_shader.html" target="_top" xlink:title="This is the same technique the old &quot;InstancedGeometry&quot; implementation used (with improvements). ">
<polygon fill="none" stroke="black" points="324,-299.5 324,-318.5 461,-318.5 461,-299.5 324,-299.5"/>
<text text-anchor="middle" x="392.5" y="-306.5" font-family="Helvetica,sans-Serif" font-size="10.00">Ogre::InstanceBatchShader</text>
</a>
</g>
</g>
<!-- Node10&#45;&gt;Node15 -->
<g id="edge14" class="edge"><title>Node10&#45;&gt;Node15</title>
<path fill="none" stroke="midnightblue" d="M262.325,-335.39C288.779,-329.986 319.858,-323.636 344.902,-318.52"/>
<polygon fill="midnightblue" stroke="midnightblue" points="261.533,-331.98 252.436,-337.411 262.934,-338.838 261.533,-331.98"/>
</g>
<!-- Node12 -->
<g id="node12" class="node"><title>Node12</title>
<g id="a_node12"><a xlink:href="class_ogre_1_1_instance_batch_h_w___v_t_f.html" target="_top" xlink:title="Instancing implementation using vertex texture through Vertex Texture Fetch (VTF) and hardware instan...">
<polygon fill="none" stroke="black" points="505,-375.5 505,-394.5 653,-394.5 653,-375.5 505,-375.5"/>
<text text-anchor="middle" x="579" y="-382.5" font-family="Helvetica,sans-Serif" font-size="10.00">Ogre::InstanceBatchHW_VTF</text>
</a>
</g>
</g>
<!-- Node11&#45;&gt;Node12 -->
<g id="edge11" class="edge"><title>Node11&#45;&gt;Node12</title>
<path fill="none" stroke="midnightblue" d="M476.792,-385C486.169,-385 495.67,-385 504.904,-385"/>
<polygon fill="midnightblue" stroke="midnightblue" points="476.684,-381.5 466.684,-385 476.684,-388.5 476.684,-381.5"/>
</g>
<!-- Node13 -->
<g id="node13" class="node"><title>Node13</title>
<g id="a_node13"><a xlink:href="class_ogre_1_1_instance_batch_v_t_f.html" target="_top" xlink:title="Ogre::InstanceBatchVTF">
<polygon fill="none" stroke="black" points="516.5,-337.5 516.5,-356.5 641.5,-356.5 641.5,-337.5 516.5,-337.5"/>
<text text-anchor="middle" x="579" y="-344.5" font-family="Helvetica,sans-Serif" font-size="10.00">Ogre::InstanceBatchVTF</text>
</a>
</g>
</g>
<!-- Node11&#45;&gt;Node13 -->
<g id="edge12" class="edge"><title>Node11&#45;&gt;Node13</title>
<path fill="none" stroke="midnightblue" d="M449.867,-373.39C476.107,-367.986 506.936,-361.636 531.778,-356.52"/>
<polygon fill="midnightblue" stroke="midnightblue" points="449.145,-369.966 440.057,-375.411 450.558,-376.822 449.145,-369.966"/>
</g>
<!-- Node19 -->
<g id="node19" class="node"><title>Node19</title>
<g id="a_node19"><a xlink:href="class_ogre_1_1_overlay_container.html" target="_top" xlink:title="A 2D element which contains other OverlayElement instances. ">
<polygon fill="none" stroke="black" points="333,-261.5 333,-280.5 452,-280.5 452,-261.5 333,-261.5"/>
<text text-anchor="middle" x="392.5" y="-268.5" font-family="Helvetica,sans-Serif" font-size="10.00">Ogre::OverlayContainer</text>
</a>
</g>
</g>
<!-- Node18&#45;&gt;Node19 -->
<g id="edge18" class="edge"><title>Node18&#45;&gt;Node19</title>
<path fill="none" stroke="midnightblue" d="M254.828,-233.047C263.254,-235.257 271.9,-237.62 280,-240 296.182,-244.754 299.811,-247.272 316,-252 327.417,-255.334 339.907,-258.622 351.382,-261.5"/>
<polygon fill="midnightblue" stroke="midnightblue" points="255.639,-229.641 245.082,-230.531 253.889,-236.419 255.639,-229.641"/>
</g>
<!-- Node22 -->
<g id="node22" class="node"><title>Node22</title>
<g id="a_node22"><a xlink:href="class_ogre_1_1_text_area_overlay_element.html" target="_top" xlink:title="This class implements an overlay element which contains simple unformatted text. ">
<polygon fill="none" stroke="black" points="316,-223.5 316,-242.5 469,-242.5 469,-223.5 316,-223.5"/>
<text text-anchor="middle" x="392.5" y="-230.5" font-family="Helvetica,sans-Serif" font-size="10.00">Ogre::TextAreaOverlayElement</text>
</a>
</g>
</g>
<!-- Node18&#45;&gt;Node22 -->
<g id="edge21" class="edge"><title>Node18&#45;&gt;Node22</title>
<path fill="none" stroke="midnightblue" d="M271.366,-225.249C285.79,-226.18 301.168,-227.172 315.937,-228.125"/>
<polygon fill="midnightblue" stroke="midnightblue" points="271.259,-221.735 261.054,-224.584 270.808,-228.721 271.259,-221.735"/>
</g>
<!-- Node20 -->
<g id="node20" class="node"><title>Node20</title>
<g id="a_node20"><a xlink:href="class_ogre_1_1_panel_overlay_element.html" target="_top" xlink:title="OverlayElement representing a flat, single&#45;material (or transparent) panel which can contain other el...">
<polygon fill="none" stroke="black" points="510,-261.5 510,-280.5 648,-280.5 648,-261.5 510,-261.5"/>
<text text-anchor="middle" x="579" y="-268.5" font-family="Helvetica,sans-Serif" font-size="10.00">Ogre::PanelOverlayElement</text>
</a>
</g>
</g>
<!-- Node19&#45;&gt;Node20 -->
<g id="edge19" class="edge"><title>Node19&#45;&gt;Node20</title>
<path fill="none" stroke="midnightblue" d="M462.206,-271C477.781,-271 494.315,-271 509.865,-271"/>
<polygon fill="midnightblue" stroke="midnightblue" points="462.13,-267.5 452.13,-271 462.13,-274.5 462.13,-267.5"/>
</g>
<!-- Node21 -->
<g id="node21" class="node"><title>Node21</title>
<g id="a_node21"><a xlink:href="class_ogre_1_1_border_panel_overlay_element.html" target="_top" xlink:title="A specialisation of the PanelOverlayElement to provide a panel with a border. ">
<polygon fill="none" stroke="black" points="689,-256 689,-286 820,-286 820,-256 689,-256"/>
<text text-anchor="start" x="697" y="-274" font-family="Helvetica,sans-Serif" font-size="10.00">Ogre::BorderPanelOverlay</text>
<text text-anchor="middle" x="754.5" y="-263" font-family="Helvetica,sans-Serif" font-size="10.00">Element</text>
</a>
</g>
</g>
<!-- Node20&#45;&gt;Node21 -->
<g id="edge20" class="edge"><title>Node20&#45;&gt;Node21</title>
<path fill="none" stroke="midnightblue" d="M658.209,-271C668.418,-271 678.787,-271 688.742,-271"/>
<polygon fill="midnightblue" stroke="midnightblue" points="658.074,-267.5 648.074,-271 658.074,-274.5 658.074,-267.5"/>
</g>
<!-- Node24 -->
<g id="node24" class="node"><title>Node24</title>
<g id="a_node24"><a xlink:href="class_ogre_1_1_manual_object_1_1_manual_object_section_shadow_renderable.html" target="_top" xlink:title="Nested class to allow shadows. ">
<polygon fill="none" stroke="black" points="317,-163.5 317,-204.5 468,-204.5 468,-163.5 317,-163.5"/>
<text text-anchor="start" x="325" y="-192.5" font-family="Helvetica,sans-Serif" font-size="10.00">Ogre::ManualObject</text>
<text text-anchor="start" x="325" y="-181.5" font-family="Helvetica,sans-Serif" font-size="10.00">::ManualObjectSectionShadow</text>
<text text-anchor="middle" x="392.5" y="-170.5" font-family="Helvetica,sans-Serif" font-size="10.00">Renderable</text>
</a>
</g>
</g>
<!-- Node23&#45;&gt;Node24 -->
<g id="edge23" class="edge"><title>Node23&#45;&gt;Node24</title>
<path fill="none" stroke="midnightblue" d="M279.046,-183.395C291.487,-183.462 304.415,-183.532 316.883,-183.599"/>
<polygon fill="midnightblue" stroke="midnightblue" points="278.749,-179.894 268.731,-183.34 278.712,-186.894 278.749,-179.894"/>
</g>
<!-- Node26 -->
<g id="node26" class="node"><title>Node26</title>
<g id="a_node26"><a xlink:href="class_ogre_1_1_instanced_geometry_1_1_geometry_bucket.html" target="_top" xlink:title="A GeometryBucket is a the lowest level bucket where geometry with the same vertex &amp; index format is s...">
<polygon fill="none" stroke="black" points="328,-115 328,-145 457,-145 457,-115 328,-115"/>
<text text-anchor="start" x="336" y="-133" font-family="Helvetica,sans-Serif" font-size="10.00">Ogre::InstancedGeometry</text>
<text text-anchor="middle" x="392.5" y="-122" font-family="Helvetica,sans-Serif" font-size="10.00">::GeometryBucket</text>
</a>
</g>
</g>
<!-- Node25&#45;&gt;Node26 -->
<g id="edge25" class="edge"><title>Node25&#45;&gt;Node26</title>
<path fill="none" stroke="midnightblue" d="M276.488,-130C293.346,-130 311.226,-130 327.738,-130"/>
<polygon fill="midnightblue" stroke="midnightblue" points="276.146,-126.5 266.146,-130 276.146,-133.5 276.146,-126.5"/>
</g>
<!-- Node27 -->
<g id="node27" class="node"><title>Node27</title>
<g id="a_node27"><a xlink:href="class_ogre_1_1_rectangle2_d.html" target="_top" xlink:title="Allows the rendering of a simple 2D rectangle This class renders a simple 2D rectangle; this rectangl...">
<polygon fill="none" stroke="black" points="342,-76.5 342,-95.5 443,-95.5 443,-76.5 342,-76.5"/>
<text text-anchor="middle" x="392.5" y="-83.5" font-family="Helvetica,sans-Serif" font-size="10.00">Ogre::Rectangle2D</text>
</a>
</g>
</g>
<!-- Node25&#45;&gt;Node27 -->
<g id="edge26" class="edge"><title>Node25&#45;&gt;Node27</title>
<path fill="none" stroke="midnightblue" d="M255.705,-118.124C285.667,-111.036 323.208,-102.155 351.22,-95.5287"/>
<polygon fill="midnightblue" stroke="midnightblue" points="254.785,-114.745 245.859,-120.453 256.396,-121.557 254.785,-114.745"/>
</g>
<!-- Node28 -->
<g id="node28" class="node"><title>Node28</title>
<g id="a_node28"><a xlink:href="class_ogre_1_1_volume_1_1_chunk.html" target="_top" xlink:title="A single volume chunk mesh. ">
<polygon fill="none" stroke="black" points="337,-38.5 337,-57.5 448,-57.5 448,-38.5 337,-38.5"/>
<text text-anchor="middle" x="392.5" y="-45.5" font-family="Helvetica,sans-Serif" font-size="10.00">Ogre::Volume::Chunk</text>
</a>
</g>
</g>
<!-- Node25&#45;&gt;Node28 -->
<g id="edge27" class="edge"><title>Node25&#45;&gt;Node28</title>
<path fill="none" stroke="midnightblue" d="M267.133,-116.76C271.633,-114.806 275.978,-112.567 280,-110 301.011,-96.5914 294.885,-80.2429 316,-67 322.412,-62.9784 329.632,-59.807 336.999,-57.3064"/>
<polygon fill="midnightblue" stroke="midnightblue" points="265.803,-113.521 257.73,-120.383 268.32,-120.053 265.803,-113.521"/>
</g>
<!-- Node29 -->
<g id="node29" class="node"><title>Node29</title>
<g id="a_node29"><a xlink:href="class_ogre_1_1_wire_bounding_box.html" target="_top" xlink:title="Allows the rendering of a wireframe bounding box. ">
<polygon fill="none" stroke="black" points="331.5,-0.5 331.5,-19.5 453.5,-19.5 453.5,-0.5 331.5,-0.5"/>
<text text-anchor="middle" x="392.5" y="-7.5" font-family="Helvetica,sans-Serif" font-size="10.00">Ogre::WireBoundingBox</text>
</a>
</g>
</g>
<!-- Node25&#45;&gt;Node29 -->
<g id="edge28" class="edge"><title>Node25&#45;&gt;Node29</title>
<path fill="none" stroke="midnightblue" d="M271.792,-115.85C274.697,-114.117 277.455,-112.176 280,-110 309.942,-84.3978 285.857,-54.3658 316,-29 320.55,-25.1707 325.767,-22.0965 331.286,-19.6309"/>
<polygon fill="midnightblue" stroke="midnightblue" points="270.045,-112.811 262.698,-120.444 273.202,-119.058 270.045,-112.811"/>
</g>
</g>
</svg>
