<?xml version="1.0" encoding="UTF-8" standalone="no"?>
<!DOCTYPE svg PUBLIC "-//W3C//DTD SVG 1.1//EN"
 "http://www.w3.org/Graphics/SVG/1.1/DTD/svg11.dtd">
<!-- Generated by graphviz version 2.38.0 (20140413.2041)
 -->
<!-- Title: Ogre::HardwareVertexBuffer Pages: 1 -->
<svg width="591pt" height="372pt"
 viewBox="0.00 0.00 591.00 371.50" xmlns="http://www.w3.org/2000/svg" xmlns:xlink="http://www.w3.org/1999/xlink">
<g id="graph0" class="graph" transform="scale(1 1) rotate(0) translate(4 367.5)">
<title>Ogre::HardwareVertexBuffer</title>
<!-- Node1 -->
<g id="node1" class="node"><title>Node1</title>
<polygon fill="#bfbfbf" stroke="black" points="249,-166.5 249,-185.5 389,-185.5 389,-166.5 249,-166.5"/>
<text text-anchor="middle" x="319" y="-173.5" font-family="Helvetica,sans-Serif" font-size="10.00">Ogre::HardwareVertexBuffer</text>
</g>
<!-- Node4 -->
<g id="node4" class="node"><title>Node4</title>
<g id="a_node4"><a xlink:href="class_ogre_1_1_d3_d11_hardware_vertex_buffer.html" target="_top" xlink:title="Specialisation of HardwareVertexBuffer for D3D11. ">
<polygon fill="none" stroke="black" points="431.5,-333 431.5,-363 576.5,-363 576.5,-333 431.5,-333"/>
<text text-anchor="start" x="439.5" y="-351" font-family="Helvetica,sans-Serif" font-size="10.00">Ogre::D3D11HardwareVertex</text>
<text text-anchor="middle" x="504" y="-340" font-family="Helvetica,sans-Serif" font-size="10.00">Buffer</text>
</a>
</g>
</g>
<!-- Node1&#45;&gt;Node4 -->
<g id="edge3" class="edge"><title>Node1&#45;&gt;Node4</title>
<path fill="none" stroke="midnightblue" d="M328.398,-194.999C343.286,-226.504 377.295,-289.5 425,-324 429.707,-327.404 434.907,-330.333 440.321,-332.853"/>
<polygon fill="midnightblue" stroke="midnightblue" points="331.441,-193.238 324.09,-185.608 325.078,-196.157 331.441,-193.238"/>
</g>
<!-- Node5 -->
<g id="node5" class="node"><title>Node5</title>
<g id="a_node5"><a xlink:href="class_ogre_1_1_d3_d9_hardware_vertex_buffer.html" target="_top" xlink:title="Specialisation of HardwareVertexBuffer for D3D9. ">
<polygon fill="none" stroke="black" points="434,-284 434,-314 574,-314 574,-284 434,-284"/>
<text text-anchor="start" x="442" y="-302" font-family="Helvetica,sans-Serif" font-size="10.00">Ogre::D3D9HardwareVertex</text>
<text text-anchor="middle" x="504" y="-291" font-family="Helvetica,sans-Serif" font-size="10.00">Buffer</text>
</a>
</g>
</g>
<!-- Node1&#45;&gt;Node5 -->
<g id="edge4" class="edge"><title>Node1&#45;&gt;Node5</title>
<path fill="none" stroke="midnightblue" d="M334.133,-193.583C352.747,-215.634 387.536,-253.187 425,-275 430.877,-278.422 437.293,-281.404 443.838,-283.992"/>
<polygon fill="midnightblue" stroke="midnightblue" points="336.677,-191.168 327.606,-185.694 331.284,-195.63 336.677,-191.168"/>
</g>
<!-- Node6 -->
<g id="node6" class="node"><title>Node6</title>
<g id="a_node6"><a xlink:href="class_ogre_1_1_default_hardware_vertex_buffer.html" target="_top" xlink:title="Specialisation of HardwareVertexBuffer for emulation. ">
<polygon fill="none" stroke="black" points="431,-235 431,-265 577,-265 577,-235 431,-235"/>
<text text-anchor="start" x="439" y="-253" font-family="Helvetica,sans-Serif" font-size="10.00">Ogre::DefaultHardwareVertex</text>
<text text-anchor="middle" x="504" y="-242" font-family="Helvetica,sans-Serif" font-size="10.00">Buffer</text>
</a>
</g>
</g>
<!-- Node1&#45;&gt;Node6 -->
<g id="edge5" class="edge"><title>Node1&#45;&gt;Node6</title>
<path fill="none" stroke="midnightblue" d="M347.172,-190.287C368.092,-200.955 397.917,-215.45 425,-226 433.053,-229.137 441.697,-232.142 450.193,-234.899"/>
<polygon fill="midnightblue" stroke="midnightblue" points="348.721,-187.149 338.228,-185.683 345.517,-193.372 348.721,-187.149"/>
</g>
<!-- Node7 -->
<g id="node7" class="node"><title>Node7</title>
<g id="a_node7"><a xlink:href="class_ogre_1_1_g_l3_plus_default_hardware_vertex_buffer.html" target="_top" xlink:title="Specialisation of HardwareVertexBuffer for emulation. ">
<polygon fill="none" stroke="black" points="426.5,-186 426.5,-216 581.5,-216 581.5,-186 426.5,-186"/>
<text text-anchor="start" x="434.5" y="-204" font-family="Helvetica,sans-Serif" font-size="10.00">Ogre::GL3PlusDefaultHardware</text>
<text text-anchor="middle" x="504" y="-193" font-family="Helvetica,sans-Serif" font-size="10.00">VertexBuffer</text>
</a>
</g>
</g>
<!-- Node1&#45;&gt;Node7 -->
<g id="edge6" class="edge"><title>Node1&#45;&gt;Node7</title>
<path fill="none" stroke="midnightblue" d="M399.254,-186.827C408.25,-188.056 417.408,-189.307 426.369,-190.531"/>
<polygon fill="midnightblue" stroke="midnightblue" points="399.566,-183.337 389.184,-185.451 398.619,-190.273 399.566,-183.337"/>
</g>
<!-- Node8 -->
<g id="node8" class="node"><title>Node8</title>
<g id="a_node8"><a xlink:href="class_ogre_1_1_g_l3_plus_hardware_vertex_buffer.html" target="_top" xlink:title="Specialisation of HardwareVertexBuffer for OpenGL. ">
<polygon fill="none" stroke="black" points="428,-137 428,-167 580,-167 580,-137 428,-137"/>
<text text-anchor="start" x="436" y="-155" font-family="Helvetica,sans-Serif" font-size="10.00">Ogre::GL3PlusHardwareVertex</text>
<text text-anchor="middle" x="504" y="-144" font-family="Helvetica,sans-Serif" font-size="10.00">Buffer</text>
</a>
</g>
</g>
<!-- Node1&#45;&gt;Node8 -->
<g id="edge7" class="edge"><title>Node1&#45;&gt;Node8</title>
<path fill="none" stroke="midnightblue" d="M399.375,-165.59C408.848,-164.348 418.498,-163.082 427.909,-161.848"/>
<polygon fill="midnightblue" stroke="midnightblue" points="398.644,-162.156 389.184,-166.927 399.555,-169.096 398.644,-162.156"/>
</g>
<!-- Node9 -->
<g id="node9" class="node"><title>Node9</title>
<g id="a_node9"><a xlink:href="class_ogre_1_1_g_l_default_hardware_vertex_buffer.html" target="_top" xlink:title="Specialisation of HardwareVertexBuffer for emulation. ">
<polygon fill="none" stroke="black" points="425,-88 425,-118 583,-118 583,-88 425,-88"/>
<text text-anchor="start" x="433" y="-106" font-family="Helvetica,sans-Serif" font-size="10.00">Ogre::GLDefaultHardwareVertex</text>
<text text-anchor="middle" x="504" y="-95" font-family="Helvetica,sans-Serif" font-size="10.00">Buffer</text>
</a>
</g>
</g>
<!-- Node1&#45;&gt;Node9 -->
<g id="edge8" class="edge"><title>Node1&#45;&gt;Node9</title>
<path fill="none" stroke="midnightblue" d="M347.585,-161.848C368.502,-151.432 398.139,-137.343 425,-127 433.198,-123.843 441.999,-120.808 450.632,-118.02"/>
<polygon fill="midnightblue" stroke="midnightblue" points="345.992,-158.731 338.629,-166.349 349.135,-164.986 345.992,-158.731"/>
</g>
<!-- Node10 -->
<g id="node10" class="node"><title>Node10</title>
<g id="a_node10"><a xlink:href="class_ogre_1_1_g_l_e_s2_default_hardware_vertex_buffer.html" target="_top" xlink:title="Specialisation of HardwareVertexBuffer for emulation. ">
<polygon fill="none" stroke="black" points="429.5,-39 429.5,-69 578.5,-69 578.5,-39 429.5,-39"/>
<text text-anchor="start" x="437.5" y="-57" font-family="Helvetica,sans-Serif" font-size="10.00">Ogre::GLES2DefaultHardware</text>
<text text-anchor="middle" x="504" y="-46" font-family="Helvetica,sans-Serif" font-size="10.00">VertexBuffer</text>
</a>
</g>
</g>
<!-- Node1&#45;&gt;Node10 -->
<g id="edge9" class="edge"><title>Node1&#45;&gt;Node10</title>
<path fill="none" stroke="midnightblue" d="M334.171,-158.602C352.827,-136.781 387.658,-99.6147 425,-78 430.886,-74.5931 437.307,-71.62 443.855,-69.0378"/>
<polygon fill="midnightblue" stroke="midnightblue" points="331.37,-156.496 327.629,-166.408 336.735,-160.992 331.37,-156.496"/>
</g>
<!-- Node11 -->
<g id="node11" class="node"><title>Node11</title>
<g id="a_node11"><a xlink:href="class_ogre_1_1_g_l_hardware_vertex_buffer.html" target="_top" xlink:title="Specialisation of HardwareVertexBuffer for OpenGL. ">
<polygon fill="none" stroke="black" points="427.5,-0.5 427.5,-19.5 580.5,-19.5 580.5,-0.5 427.5,-0.5"/>
<text text-anchor="middle" x="504" y="-7.5" font-family="Helvetica,sans-Serif" font-size="10.00">Ogre::GLHardwareVertexBuffer</text>
</a>
</g>
</g>
<!-- Node1&#45;&gt;Node11 -->
<g id="edge10" class="edge"><title>Node1&#45;&gt;Node11</title>
<path fill="none" stroke="midnightblue" d="M328.214,-156.817C342.832,-125.066 376.455,-61.8383 425,-29 430.772,-25.0954 437.265,-21.9913 443.977,-19.5238"/>
<polygon fill="midnightblue" stroke="midnightblue" points="324.867,-155.73 323.991,-166.289 331.26,-158.581 324.867,-155.73"/>
</g>
<!-- Node2 -->
<g id="node2" class="node"><title>Node2</title>
<g id="a_node2"><a xlink:href="class_ogre_1_1_hardware_buffer.html" target="_top" xlink:title="Abstract class defining common features of hardware buffers. ">
<polygon fill="none" stroke="black" points="101,-166.5 101,-185.5 213,-185.5 213,-166.5 101,-166.5"/>
<text text-anchor="middle" x="157" y="-173.5" font-family="Helvetica,sans-Serif" font-size="10.00">Ogre::HardwareBuffer</text>
</a>
</g>
</g>
<!-- Node2&#45;&gt;Node1 -->
<g id="edge1" class="edge"><title>Node2&#45;&gt;Node1</title>
<path fill="none" stroke="midnightblue" d="M223.264,-176C231.742,-176 240.448,-176 248.985,-176"/>
<polygon fill="midnightblue" stroke="midnightblue" points="223.063,-172.5 213.063,-176 223.063,-179.5 223.063,-172.5"/>
</g>
<!-- Node3 -->
<g id="node3" class="node"><title>Node3</title>
<g id="a_node3"><a xlink:href="class_ogre_1_1_allocated_object.html" target="_top" xlink:title="Superclass for all objects that wish to use custom memory allocators when their new / delete operator...">
<polygon fill="none" stroke="black" points="0,-166.5 0,-185.5 65,-185.5 65,-166.5 0,-166.5"/>
<text text-anchor="middle" x="32.5" y="-173.5" font-family="Helvetica,sans-Serif" font-size="10.00">BufferAlloc</text>
</a>
</g>
</g>
<!-- Node3&#45;&gt;Node2 -->
<g id="edge2" class="edge"><title>Node3&#45;&gt;Node2</title>
<path fill="none" stroke="midnightblue" d="M75.1571,-176C83.4035,-176 92.1796,-176 100.795,-176"/>
<polygon fill="midnightblue" stroke="midnightblue" points="75.0468,-172.5 65.0468,-176 75.0468,-179.5 75.0468,-172.5"/>
</g>
</g>
</svg>
