<?xml version="1.0" encoding="UTF-8" standalone="no"?>
<!DOCTYPE svg PUBLIC "-//W3C//DTD SVG 1.1//EN"
 "http://www.w3.org/Graphics/SVG/1.1/DTD/svg11.dtd">
<!-- Generated by graphviz version 2.38.0 (20140413.2041)
 -->
<!-- Title: Ogre::HardwareBufferManagerBase Pages: 1 -->
<svg width="700pt" height="650pt"
 viewBox="0.00 0.00 700.00 649.50" xmlns="http://www.w3.org/2000/svg" xmlns:xlink="http://www.w3.org/1999/xlink">
<g id="graph0" class="graph" transform="scale(1 1) rotate(0) translate(4 645.5)">
<title>Ogre::HardwareBufferManagerBase</title>
<!-- Node1 -->
<g id="node1" class="node"><title>Node1</title>
<polygon fill="#bfbfbf" stroke="black" points="101,-395.5 101,-414.5 273,-414.5 273,-395.5 101,-395.5"/>
<text text-anchor="middle" x="187" y="-402.5" font-family="Helvetica,sans-Serif" font-size="10.00">Ogre::HardwareBufferManagerBase</text>
</g>
<!-- Node3 -->
<g id="node3" class="node"><title>Node3</title>
<g id="a_node3"><a xlink:href="class_ogre_1_1_d3_d11_hardware_buffer_manager_base.html" target="_top" xlink:title="Implementation of HardwareBufferManager for D3D11. ">
<polygon fill="none" stroke="black" points="330,-611 330,-641 473,-641 473,-611 330,-611"/>
<text text-anchor="start" x="338" y="-629" font-family="Helvetica,sans-Serif" font-size="10.00">Ogre::D3D11HardwareBuffer</text>
<text text-anchor="middle" x="401.5" y="-618" font-family="Helvetica,sans-Serif" font-size="10.00">ManagerBase</text>
</a>
</g>
</g>
<!-- Node1&#45;&gt;Node3 -->
<g id="edge2" class="edge"><title>Node1&#45;&gt;Node3</title>
<path fill="none" stroke="midnightblue" d="M194.211,-424.096C208.096,-463.679 245.513,-554.903 309,-602 315.331,-606.697 322.505,-610.476 329.983,-613.516"/>
<polygon fill="midnightblue" stroke="midnightblue" points="197.512,-422.929 190.984,-414.584 190.883,-425.179 197.512,-422.929"/>
</g>
<!-- Node4 -->
<g id="node4" class="node"><title>Node4</title>
<g id="a_node4"><a xlink:href="class_ogre_1_1_d3_d9_hardware_buffer_manager_base.html" target="_top" xlink:title="Implementation of HardwareBufferManager for D3D9. ">
<polygon fill="none" stroke="black" points="333,-562 333,-592 470,-592 470,-562 333,-562"/>
<text text-anchor="start" x="341" y="-580" font-family="Helvetica,sans-Serif" font-size="10.00">Ogre::D3D9HardwareBuffer</text>
<text text-anchor="middle" x="401.5" y="-569" font-family="Helvetica,sans-Serif" font-size="10.00">ManagerBase</text>
</a>
</g>
</g>
<!-- Node1&#45;&gt;Node4 -->
<g id="edge3" class="edge"><title>Node1&#45;&gt;Node4</title>
<path fill="none" stroke="midnightblue" d="M198.054,-423.8C215.99,-455.481 256.59,-519.335 309,-553 316.323,-557.704 324.536,-561.489 332.957,-564.534"/>
<polygon fill="midnightblue" stroke="midnightblue" points="200.939,-421.785 193.041,-414.723 194.812,-425.169 200.939,-421.785"/>
</g>
<!-- Node5 -->
<g id="node5" class="node"><title>Node5</title>
<g id="a_node5"><a xlink:href="class_ogre_1_1_default_hardware_buffer_manager_base.html" target="_top" xlink:title="Specialisation of HardwareBufferManagerBase to emulate hardware buffers. ">
<polygon fill="none" stroke="black" points="330,-513 330,-543 473,-543 473,-513 330,-513"/>
<text text-anchor="start" x="338" y="-531" font-family="Helvetica,sans-Serif" font-size="10.00">Ogre::DefaultHardwareBuffer</text>
<text text-anchor="middle" x="401.5" y="-520" font-family="Helvetica,sans-Serif" font-size="10.00">ManagerBase</text>
</a>
</g>
</g>
<!-- Node1&#45;&gt;Node5 -->
<g id="edge4" class="edge"><title>Node1&#45;&gt;Node5</title>
<path fill="none" stroke="midnightblue" d="M204.127,-422.153C225.878,-444.286 266.781,-482.495 309,-504 315.731,-507.429 322.998,-510.4 330.39,-512.968"/>
<polygon fill="midnightblue" stroke="midnightblue" points="206.477,-419.548 197.013,-414.786 201.442,-424.411 206.477,-419.548"/>
</g>
<!-- Node6 -->
<g id="node6" class="node"><title>Node6</title>
<g id="a_node6"><a xlink:href="class_ogre_1_1_g_l3_plus_default_hardware_buffer_manager_base.html" target="_top" xlink:title="Specialisation of HardwareBufferManager to emulate hardware buffers. ">
<polygon fill="none" stroke="black" points="324,-464 324,-494 479,-494 479,-464 324,-464"/>
<text text-anchor="start" x="332" y="-482" font-family="Helvetica,sans-Serif" font-size="10.00">Ogre::GL3PlusDefaultHardware</text>
<text text-anchor="middle" x="401.5" y="-471" font-family="Helvetica,sans-Serif" font-size="10.00">BufferManagerBase</text>
</a>
</g>
</g>
<!-- Node1&#45;&gt;Node6 -->
<g id="edge5" class="edge"><title>Node1&#45;&gt;Node6</title>
<path fill="none" stroke="midnightblue" d="M218.013,-418.735C242.239,-429.495 277.376,-444.373 309,-455 318.496,-458.191 328.662,-461.224 338.639,-463.993"/>
<polygon fill="midnightblue" stroke="midnightblue" points="219.216,-415.439 208.659,-414.544 216.353,-421.827 219.216,-415.439"/>
</g>
<!-- Node7 -->
<g id="node7" class="node"><title>Node7</title>
<g id="a_node7"><a xlink:href="class_ogre_1_1_g_l3_plus_hardware_buffer_manager_base.html" target="_top" xlink:title="Implementation of HardwareBufferManager for OpenGL. ">
<polygon fill="none" stroke="black" points="327,-415 327,-445 476,-445 476,-415 327,-415"/>
<text text-anchor="start" x="335" y="-433" font-family="Helvetica,sans-Serif" font-size="10.00">Ogre::GL3PlusHardwareBuffer</text>
<text text-anchor="middle" x="401.5" y="-422" font-family="Helvetica,sans-Serif" font-size="10.00">ManagerBase</text>
</a>
</g>
</g>
<!-- Node1&#45;&gt;Node7 -->
<g id="edge6" class="edge"><title>Node1&#45;&gt;Node7</title>
<path fill="none" stroke="midnightblue" d="M279.282,-415.739C295.137,-417.604 311.446,-419.523 326.758,-421.324"/>
<polygon fill="midnightblue" stroke="midnightblue" points="279.284,-412.215 268.943,-414.523 278.466,-419.167 279.284,-412.215"/>
</g>
<!-- Node8 -->
<g id="node8" class="node"><title>Node8</title>
<g id="a_node8"><a xlink:href="class_ogre_1_1_g_l_default_hardware_buffer_manager_base.html" target="_top" xlink:title="Specialisation of HardwareBufferManager to emulate hardware buffers. ">
<polygon fill="none" stroke="black" points="323.5,-366 323.5,-396 479.5,-396 479.5,-366 323.5,-366"/>
<text text-anchor="start" x="331.5" y="-384" font-family="Helvetica,sans-Serif" font-size="10.00">Ogre::GLDefaultHardwareBuffer</text>
<text text-anchor="middle" x="401.5" y="-373" font-family="Helvetica,sans-Serif" font-size="10.00">ManagerBase</text>
</a>
</g>
</g>
<!-- Node1&#45;&gt;Node8 -->
<g id="edge7" class="edge"><title>Node1&#45;&gt;Node8</title>
<path fill="none" stroke="midnightblue" d="M282.609,-394.315C296.188,-392.781 310.023,-391.219 323.214,-389.729"/>
<polygon fill="midnightblue" stroke="midnightblue" points="281.835,-390.88 272.291,-395.48 282.62,-397.836 281.835,-390.88"/>
</g>
<!-- Node9 -->
<g id="node9" class="node"><title>Node9</title>
<g id="a_node9"><a xlink:href="class_ogre_1_1_g_l_e_s2_default_hardware_buffer_manager_base.html" target="_top" xlink:title="Specialisation of HardwareBufferManager to emulate hardware buffers. ">
<polygon fill="none" stroke="black" points="327,-317 327,-347 476,-347 476,-317 327,-317"/>
<text text-anchor="start" x="335" y="-335" font-family="Helvetica,sans-Serif" font-size="10.00">Ogre::GLES2DefaultHardware</text>
<text text-anchor="middle" x="401.5" y="-324" font-family="Helvetica,sans-Serif" font-size="10.00">BufferManagerBase</text>
</a>
</g>
</g>
<!-- Node1&#45;&gt;Node9 -->
<g id="edge8" class="edge"><title>Node1&#45;&gt;Node9</title>
<path fill="none" stroke="midnightblue" d="M218.479,-391.389C242.706,-380.88 277.619,-366.422 309,-356 318.507,-352.843 328.679,-349.827 338.659,-347.065"/>
<polygon fill="midnightblue" stroke="midnightblue" points="216.87,-388.272 209.111,-395.486 219.676,-394.685 216.87,-388.272"/>
</g>
<!-- Node10 -->
<g id="node10" class="node"><title>Node10</title>
<g id="a_node10"><a xlink:href="class_ogre_1_1_g_l_e_s2_hardware_buffer_manager_base.html" target="_top" xlink:title="Implementation of HardwareBufferManager for OpenGL ES. ">
<polygon fill="none" stroke="black" points="330,-268 330,-298 473,-298 473,-268 330,-268"/>
<text text-anchor="start" x="338" y="-286" font-family="Helvetica,sans-Serif" font-size="10.00">Ogre::GLES2HardwareBuffer</text>
<text text-anchor="middle" x="401.5" y="-275" font-family="Helvetica,sans-Serif" font-size="10.00">ManagerBase</text>
</a>
</g>
</g>
<!-- Node1&#45;&gt;Node10 -->
<g id="edge9" class="edge"><title>Node1&#45;&gt;Node10</title>
<path fill="none" stroke="midnightblue" d="M204.162,-388.028C225.953,-366.127 266.899,-328.314 309,-307 315.74,-303.588 323.012,-300.627 330.408,-298.066"/>
<polygon fill="midnightblue" stroke="midnightblue" points="201.524,-385.721 197.034,-395.317 206.529,-390.615 201.524,-385.721"/>
</g>
<!-- Node11 -->
<g id="node11" class="node"><title>Node11</title>
<g id="a_node11"><a xlink:href="class_ogre_1_1_g_l_hardware_buffer_manager_base.html" target="_top" xlink:title="Implementation of HardwareBufferManager for OpenGL. ">
<polygon fill="none" stroke="black" points="309,-229.5 309,-248.5 494,-248.5 494,-229.5 309,-229.5"/>
<text text-anchor="middle" x="401.5" y="-236.5" font-family="Helvetica,sans-Serif" font-size="10.00">Ogre::GLHardwareBufferManagerBase</text>
</a>
</g>
</g>
<!-- Node1&#45;&gt;Node11 -->
<g id="edge10" class="edge"><title>Node1&#45;&gt;Node11</title>
<path fill="none" stroke="midnightblue" d="M197.906,-386.037C215.621,-354.135 255.898,-290.079 309,-258 315.388,-254.141 322.435,-251.055 329.697,-248.59"/>
<polygon fill="midnightblue" stroke="midnightblue" points="194.638,-384.722 192.96,-395.184 200.795,-388.052 194.638,-384.722"/>
</g>
<!-- Node12 -->
<g id="node12" class="node"><title>Node12</title>
<g id="a_node12"><a xlink:href="class_ogre_1_1_hardware_buffer_manager.html" target="_top" xlink:title="Singleton wrapper for hardware buffer manager. ">
<polygon fill="none" stroke="black" points="327,-191.5 327,-210.5 476,-210.5 476,-191.5 327,-191.5"/>
<text text-anchor="middle" x="401.5" y="-198.5" font-family="Helvetica,sans-Serif" font-size="10.00">Ogre::HardwareBufferManager</text>
</a>
</g>
</g>
<!-- Node1&#45;&gt;Node12 -->
<g id="edge11" class="edge"><title>Node1&#45;&gt;Node12</title>
<path fill="none" stroke="midnightblue" d="M194.667,-386.029C209.086,-347.957 246.964,-262.274 309,-220 314.631,-216.163 320.877,-213.073 327.385,-210.589"/>
<polygon fill="midnightblue" stroke="midnightblue" points="191.377,-384.836 191.222,-395.43 197.949,-387.245 191.377,-384.836"/>
</g>
<!-- Node2 -->
<g id="node2" class="node"><title>Node2</title>
<g id="a_node2"><a xlink:href="class_ogre_1_1_allocated_object.html" target="_top" xlink:title="Superclass for all objects that wish to use custom memory allocators when their new / delete operator...">
<polygon fill="none" stroke="black" points="0,-395.5 0,-414.5 65,-414.5 65,-395.5 0,-395.5"/>
<text text-anchor="middle" x="32.5" y="-402.5" font-family="Helvetica,sans-Serif" font-size="10.00">BufferAlloc</text>
</a>
</g>
</g>
<!-- Node2&#45;&gt;Node1 -->
<g id="edge1" class="edge"><title>Node2&#45;&gt;Node1</title>
<path fill="none" stroke="midnightblue" d="M75.2849,-405C83.3508,-405 92.0683,-405 100.947,-405"/>
<polygon fill="midnightblue" stroke="midnightblue" points="75.0981,-401.5 65.0981,-405 75.0981,-408.5 75.0981,-401.5"/>
</g>
<!-- Node13 -->
<g id="node13" class="node"><title>Node13</title>
<g id="a_node13"><a xlink:href="class_ogre_1_1_d3_d11_hardware_buffer_manager.html" target="_top" xlink:title="D3D11HardwareBufferManagerBase as a Singleton. ">
<polygon fill="none" stroke="black" points="539.5,-382 539.5,-412 682.5,-412 682.5,-382 539.5,-382"/>
<text text-anchor="start" x="547.5" y="-400" font-family="Helvetica,sans-Serif" font-size="10.00">Ogre::D3D11HardwareBuffer</text>
<text text-anchor="middle" x="611" y="-389" font-family="Helvetica,sans-Serif" font-size="10.00">Manager</text>
</a>
</g>
</g>
<!-- Node12&#45;&gt;Node13 -->
<g id="edge12" class="edge"><title>Node12&#45;&gt;Node13</title>
<path fill="none" stroke="midnightblue" d="M485.116,-213.004C488.296,-215.036 491.281,-217.356 494,-220 543.768,-268.403 482.666,-321.214 530,-372 533.572,-375.832 537.721,-379.081 542.214,-381.834"/>
<polygon fill="midnightblue" stroke="midnightblue" points="486.758,-209.913 476.291,-208.269 483.449,-216.081 486.758,-209.913"/>
</g>
<!-- Node14 -->
<g id="node14" class="node"><title>Node14</title>
<g id="a_node14"><a xlink:href="class_ogre_1_1_d3_d9_hardware_buffer_manager.html" target="_top" xlink:title="D3D9HardwareBufferManagerBase as a Singleton. ">
<polygon fill="none" stroke="black" points="542.5,-333 542.5,-363 679.5,-363 679.5,-333 542.5,-333"/>
<text text-anchor="start" x="550.5" y="-351" font-family="Helvetica,sans-Serif" font-size="10.00">Ogre::D3D9HardwareBuffer</text>
<text text-anchor="middle" x="611" y="-340" font-family="Helvetica,sans-Serif" font-size="10.00">Manager</text>
</a>
</g>
</g>
<!-- Node12&#45;&gt;Node14 -->
<g id="edge13" class="edge"><title>Node12&#45;&gt;Node14</title>
<path fill="none" stroke="midnightblue" d="M485.289,-213.663C488.372,-215.526 491.295,-217.629 494,-220 530.469,-251.963 495.143,-289.287 530,-323 533.975,-326.844 538.532,-330.098 543.411,-332.852"/>
<polygon fill="midnightblue" stroke="midnightblue" points="486.723,-210.465 476.226,-209.022 483.532,-216.695 486.723,-210.465"/>
</g>
<!-- Node15 -->
<g id="node15" class="node"><title>Node15</title>
<g id="a_node15"><a xlink:href="class_ogre_1_1_default_hardware_buffer_manager.html" target="_top" xlink:title="DefaultHardwareBufferManager as a Singleton. ">
<polygon fill="none" stroke="black" points="539.5,-284 539.5,-314 682.5,-314 682.5,-284 539.5,-284"/>
<text text-anchor="start" x="547.5" y="-302" font-family="Helvetica,sans-Serif" font-size="10.00">Ogre::DefaultHardwareBuffer</text>
<text text-anchor="middle" x="611" y="-291" font-family="Helvetica,sans-Serif" font-size="10.00">Manager</text>
</a>
</g>
</g>
<!-- Node12&#45;&gt;Node15 -->
<g id="edge14" class="edge"><title>Node12&#45;&gt;Node15</title>
<path fill="none" stroke="midnightblue" d="M484.825,-214.673C488.014,-216.265 491.088,-218.034 494,-220 517.907,-236.138 506.913,-256.709 530,-274 535.125,-277.838 540.851,-281.095 546.821,-283.858"/>
<polygon fill="midnightblue" stroke="midnightblue" points="486.145,-211.43 475.579,-210.641 483.347,-217.847 486.145,-211.43"/>
</g>
<!-- Node16 -->
<g id="node16" class="node"><title>Node16</title>
<g id="a_node16"><a xlink:href="class_ogre_1_1_g_l3_plus_default_hardware_buffer_manager.html" target="_top" xlink:title="GL3PlusDefaultHardwareBufferManagerBase as a Singleton. ">
<polygon fill="none" stroke="black" points="533.5,-235 533.5,-265 688.5,-265 688.5,-235 533.5,-235"/>
<text text-anchor="start" x="541.5" y="-253" font-family="Helvetica,sans-Serif" font-size="10.00">Ogre::GL3PlusDefaultHardware</text>
<text text-anchor="middle" x="611" y="-242" font-family="Helvetica,sans-Serif" font-size="10.00">BufferManager</text>
</a>
</g>
</g>
<!-- Node12&#45;&gt;Node16 -->
<g id="edge15" class="edge"><title>Node12&#45;&gt;Node16</title>
<path fill="none" stroke="midnightblue" d="M460.609,-212.626C471.715,-214.972 483.233,-217.491 494,-220 513.651,-224.579 535.064,-229.995 554.083,-234.956"/>
<polygon fill="midnightblue" stroke="midnightblue" points="461.063,-209.145 450.559,-210.524 459.631,-215.997 461.063,-209.145"/>
</g>
<!-- Node17 -->
<g id="node17" class="node"><title>Node17</title>
<g id="a_node17"><a xlink:href="class_ogre_1_1_g_l3_plus_hardware_buffer_manager.html" target="_top" xlink:title="GL3PlusHardwareBufferManagerBase as a Singleton. ">
<polygon fill="none" stroke="black" points="536.5,-186 536.5,-216 685.5,-216 685.5,-186 536.5,-186"/>
<text text-anchor="start" x="544.5" y="-204" font-family="Helvetica,sans-Serif" font-size="10.00">Ogre::GL3PlusHardwareBuffer</text>
<text text-anchor="middle" x="611" y="-193" font-family="Helvetica,sans-Serif" font-size="10.00">Manager</text>
</a>
</g>
</g>
<!-- Node12&#45;&gt;Node17 -->
<g id="edge16" class="edge"><title>Node12&#45;&gt;Node17</title>
<path fill="none" stroke="midnightblue" d="M486.454,-201C503.027,-201 520.301,-201 536.496,-201"/>
<polygon fill="midnightblue" stroke="midnightblue" points="486.241,-197.5 476.241,-201 486.241,-204.5 486.241,-197.5"/>
</g>
<!-- Node18 -->
<g id="node18" class="node"><title>Node18</title>
<g id="a_node18"><a xlink:href="class_ogre_1_1_g_l_default_hardware_buffer_manager.html" target="_top" xlink:title="GLDefaultHardwareBufferManagerBase as a Singleton. ">
<polygon fill="none" stroke="black" points="533,-137 533,-167 689,-167 689,-137 533,-137"/>
<text text-anchor="start" x="541" y="-155" font-family="Helvetica,sans-Serif" font-size="10.00">Ogre::GLDefaultHardwareBuffer</text>
<text text-anchor="middle" x="611" y="-144" font-family="Helvetica,sans-Serif" font-size="10.00">Manager</text>
</a>
</g>
</g>
<!-- Node12&#45;&gt;Node18 -->
<g id="edge17" class="edge"><title>Node12&#45;&gt;Node18</title>
<path fill="none" stroke="midnightblue" d="M453.006,-189.073C481.105,-182.438 516.35,-174.115 546.323,-167.037"/>
<polygon fill="midnightblue" stroke="midnightblue" points="451.929,-185.731 443.001,-191.436 453.537,-192.544 451.929,-185.731"/>
</g>
<!-- Node19 -->
<g id="node19" class="node"><title>Node19</title>
<g id="a_node19"><a xlink:href="class_ogre_1_1_g_l_e_s2_default_hardware_buffer_manager.html" target="_top" xlink:title="GLES2DefaultHardwareBufferManagerBase as a Singleton. ">
<polygon fill="none" stroke="black" points="536.5,-88 536.5,-118 685.5,-118 685.5,-88 536.5,-88"/>
<text text-anchor="start" x="544.5" y="-106" font-family="Helvetica,sans-Serif" font-size="10.00">Ogre::GLES2DefaultHardware</text>
<text text-anchor="middle" x="611" y="-95" font-family="Helvetica,sans-Serif" font-size="10.00">BufferManager</text>
</a>
</g>
</g>
<!-- Node12&#45;&gt;Node19 -->
<g id="edge18" class="edge"><title>Node12&#45;&gt;Node19</title>
<path fill="none" stroke="midnightblue" d="M424.794,-185.888C449.602,-169.598 491.303,-143.758 530,-127 537.585,-123.716 545.758,-120.704 553.881,-118.006"/>
<polygon fill="midnightblue" stroke="midnightblue" points="422.852,-182.977 416.456,-191.423 426.723,-188.809 422.852,-182.977"/>
</g>
<!-- Node20 -->
<g id="node20" class="node"><title>Node20</title>
<g id="a_node20"><a xlink:href="class_ogre_1_1_g_l_e_s2_hardware_buffer_manager.html" target="_top" xlink:title="GLES2HardwareBufferManagerBase as a Singleton. ">
<polygon fill="none" stroke="black" points="539.5,-39 539.5,-69 682.5,-69 682.5,-39 539.5,-39"/>
<text text-anchor="start" x="547.5" y="-57" font-family="Helvetica,sans-Serif" font-size="10.00">Ogre::GLES2HardwareBuffer</text>
<text text-anchor="middle" x="611" y="-46" font-family="Helvetica,sans-Serif" font-size="10.00">Manager</text>
</a>
</g>
</g>
<!-- Node12&#45;&gt;Node20 -->
<g id="edge19" class="edge"><title>Node12&#45;&gt;Node20</title>
<path fill="none" stroke="midnightblue" d="M416.056,-183.364C437.441,-156.724 481.585,-106.331 530,-78 535.757,-74.6312 542.028,-71.6981 548.443,-69.153"/>
<polygon fill="midnightblue" stroke="midnightblue" points="413.146,-181.402 409.703,-191.422 418.643,-185.736 413.146,-181.402"/>
</g>
<!-- Node21 -->
<g id="node21" class="node"><title>Node21</title>
<g id="a_node21"><a xlink:href="class_ogre_1_1_g_l_hardware_buffer_manager.html" target="_top" xlink:title="GLHardwareBufferManagerBase as a Singleton. ">
<polygon fill="none" stroke="black" points="530,-0.5 530,-19.5 692,-19.5 692,-0.5 530,-0.5"/>
<text text-anchor="middle" x="611" y="-7.5" font-family="Helvetica,sans-Serif" font-size="10.00">Ogre::GLHardwareBufferManager</text>
</a>
</g>
</g>
<!-- Node12&#45;&gt;Node21 -->
<g id="edge20" class="edge"><title>Node12&#45;&gt;Node21</title>
<path fill="none" stroke="midnightblue" d="M410.996,-182.027C428.077,-146.163 470.127,-68.4876 530,-29 535.839,-25.1489 542.374,-22.0759 549.124,-19.6243"/>
<polygon fill="midnightblue" stroke="midnightblue" points="407.705,-180.804 406.675,-191.348 414.056,-183.748 407.705,-180.804"/>
</g>
</g>
</svg>
