<?xml version="1.0" encoding="UTF-8" standalone="no"?>
<!DOCTYPE svg PUBLIC "-//W3C//DTD SVG 1.1//EN"
 "http://www.w3.org/Graphics/SVG/1.1/DTD/svg11.dtd">
<!-- Generated by graphviz version 2.38.0 (20140413.2041)
 -->
<!-- Title: Ogre::HardwareCounterBuffer Pages: 1 -->
<svg width="597pt" height="137pt"
 viewBox="0.00 0.00 597.00 137.00" xmlns="http://www.w3.org/2000/svg" xmlns:xlink="http://www.w3.org/1999/xlink">
<g id="graph0" class="graph" transform="scale(1 1) rotate(0) translate(4 133)">
<title>Ogre::HardwareCounterBuffer</title>
<!-- Node1 -->
<g id="node1" class="node"><title>Node1</title>
<polygon fill="#bfbfbf" stroke="black" points="249,-55 249,-74 395,-74 395,-55 249,-55"/>
<text text-anchor="middle" x="322" y="-62" font-family="Helvetica,sans-Serif" font-size="10.00">Ogre::HardwareCounterBuffer</text>
</g>
<!-- Node4 -->
<g id="node4" class="node"><title>Node4</title>
<g id="a_node4"><a xlink:href="class_ogre_1_1_default_hardware_counter_buffer.html" target="_top" xlink:title="Specialisation of HardwareCounterBuffer for emulation. ">
<polygon fill="none" stroke="black" points="434,-98.5 434,-128.5 586,-128.5 586,-98.5 434,-98.5"/>
<text text-anchor="start" x="442" y="-116.5" font-family="Helvetica,sans-Serif" font-size="10.00">Ogre::DefaultHardwareCounter</text>
<text text-anchor="middle" x="510" y="-105.5" font-family="Helvetica,sans-Serif" font-size="10.00">Buffer</text>
</a>
</g>
</g>
<!-- Node1&#45;&gt;Node4 -->
<g id="edge3" class="edge"><title>Node1&#45;&gt;Node4</title>
<path fill="none" stroke="midnightblue" d="M369.271,-76.6896C394.291,-83.2808 425.407,-91.4782 451.921,-98.463"/>
<polygon fill="midnightblue" stroke="midnightblue" points="369.866,-73.2271 359.304,-74.064 368.083,-79.9961 369.866,-73.2271"/>
</g>
<!-- Node5 -->
<g id="node5" class="node"><title>Node5</title>
<g id="a_node5"><a xlink:href="class_ogre_1_1_g_l3_plus_default_hardware_counter_buffer.html" target="_top" xlink:title="Specialisation of HardwareCounterBuffer for emulation. ">
<polygon fill="none" stroke="black" points="432.5,-49.5 432.5,-79.5 587.5,-79.5 587.5,-49.5 432.5,-49.5"/>
<text text-anchor="start" x="440.5" y="-67.5" font-family="Helvetica,sans-Serif" font-size="10.00">Ogre::GL3PlusDefaultHardware</text>
<text text-anchor="middle" x="510" y="-56.5" font-family="Helvetica,sans-Serif" font-size="10.00">CounterBuffer</text>
</a>
</g>
</g>
<!-- Node1&#45;&gt;Node5 -->
<g id="edge4" class="edge"><title>Node1&#45;&gt;Node5</title>
<path fill="none" stroke="midnightblue" d="M405.241,-64.5C414.22,-64.5 423.335,-64.5 432.245,-64.5"/>
<polygon fill="midnightblue" stroke="midnightblue" points="405.179,-61.0001 395.179,-64.5 405.179,-68.0001 405.179,-61.0001"/>
</g>
<!-- Node6 -->
<g id="node6" class="node"><title>Node6</title>
<g id="a_node6"><a xlink:href="class_ogre_1_1_g_l3_plus_hardware_counter_buffer.html" target="_top" xlink:title="Specialisation of HardwareCounterBuffer for OpenGL. ">
<polygon fill="none" stroke="black" points="431,-0.5 431,-30.5 589,-30.5 589,-0.5 431,-0.5"/>
<text text-anchor="start" x="439" y="-18.5" font-family="Helvetica,sans-Serif" font-size="10.00">Ogre::GL3PlusHardwareCounter</text>
<text text-anchor="middle" x="510" y="-7.5" font-family="Helvetica,sans-Serif" font-size="10.00">Buffer</text>
</a>
</g>
</g>
<!-- Node1&#45;&gt;Node6 -->
<g id="edge5" class="edge"><title>Node1&#45;&gt;Node6</title>
<path fill="none" stroke="midnightblue" d="M369.271,-52.3104C394.291,-45.7192 425.407,-37.5218 451.921,-30.537"/>
<polygon fill="midnightblue" stroke="midnightblue" points="368.083,-49.0039 359.304,-54.936 369.866,-55.7729 368.083,-49.0039"/>
</g>
<!-- Node2 -->
<g id="node2" class="node"><title>Node2</title>
<g id="a_node2"><a xlink:href="class_ogre_1_1_hardware_buffer.html" target="_top" xlink:title="Abstract class defining common features of hardware buffers. ">
<polygon fill="none" stroke="black" points="101,-55 101,-74 213,-74 213,-55 101,-55"/>
<text text-anchor="middle" x="157" y="-62" font-family="Helvetica,sans-Serif" font-size="10.00">Ogre::HardwareBuffer</text>
</a>
</g>
</g>
<!-- Node2&#45;&gt;Node1 -->
<g id="edge1" class="edge"><title>Node2&#45;&gt;Node1</title>
<path fill="none" stroke="midnightblue" d="M223.285,-64.5C231.684,-64.5 240.322,-64.5 248.824,-64.5"/>
<polygon fill="midnightblue" stroke="midnightblue" points="223.184,-61.0001 213.184,-64.5 223.184,-68.0001 223.184,-61.0001"/>
</g>
<!-- Node3 -->
<g id="node3" class="node"><title>Node3</title>
<g id="a_node3"><a xlink:href="class_ogre_1_1_allocated_object.html" target="_top" xlink:title="Superclass for all objects that wish to use custom memory allocators when their new / delete operator...">
<polygon fill="none" stroke="black" points="0,-55 0,-74 65,-74 65,-55 0,-55"/>
<text text-anchor="middle" x="32.5" y="-62" font-family="Helvetica,sans-Serif" font-size="10.00">BufferAlloc</text>
</a>
</g>
</g>
<!-- Node3&#45;&gt;Node2 -->
<g id="edge2" class="edge"><title>Node3&#45;&gt;Node2</title>
<path fill="none" stroke="midnightblue" d="M75.1571,-64.5C83.4035,-64.5 92.1796,-64.5 100.795,-64.5"/>
<polygon fill="midnightblue" stroke="midnightblue" points="75.0468,-61.0001 65.0468,-64.5 75.0468,-68.0001 75.0468,-61.0001"/>
</g>
</g>
</svg>
