<?xml version="1.0" encoding="UTF-8" standalone="no"?>
<!DOCTYPE svg PUBLIC "-//W3C//DTD SVG 1.1//EN"
 "http://www.w3.org/Graphics/SVG/1.1/DTD/svg11.dtd">
<!-- Generated by graphviz version 2.38.0 (20140413.2041)
 -->
<!-- Title: Graphical Class Hierarchy Pages: 1 -->
<svg width="563pt" height="66pt"
 viewBox="0.00 0.00 563.00 66.00" xmlns="http://www.w3.org/2000/svg" xmlns:xlink="http://www.w3.org/1999/xlink">
<g id="graph0" class="graph" transform="scale(1 1) rotate(0) translate(4 62)">
<title>Graphical Class Hierarchy</title>
<!-- Node1 -->
<g id="node1" class="node"><title>Node1</title>
<polygon fill="none" stroke="#bfbfbf" points="0,-14 0,-44 172,-44 172,-14 0,-14"/>
<text text-anchor="start" x="8" y="-32" font-family="Helvetica,sans-Serif" font-size="10.00">GLSLProgramCommon MANAGED</text>
<text text-anchor="middle" x="86" y="-21" font-family="Helvetica,sans-Serif" font-size="10.00">_RESOURCE</text>
</g>
<!-- Node2 -->
<g id="node2" class="node"><title>Node2</title>
<g id="a_node2"><a xlink:href="class_ogre_1_1_g_l_s_l_e_s_program_common.html" target="_top" xlink:title="C++ encapsulation of GLSL ES Program Object. ">
<polygon fill="none" stroke="black" points="208,-19.5 208,-38.5 366,-38.5 366,-19.5 208,-19.5"/>
<text text-anchor="middle" x="287" y="-26.5" font-family="Helvetica,sans-Serif" font-size="10.00">Ogre::GLSLESProgramCommon</text>
</a>
</g>
</g>
<!-- Node1&#45;&gt;Node2 -->
<g id="edge1" class="edge"><title>Node1&#45;&gt;Node2</title>
<path fill="none" stroke="midnightblue" d="M182.279,-29C190.842,-29 199.448,-29 207.841,-29"/>
<polygon fill="midnightblue" stroke="midnightblue" points="182.26,-25.5001 172.26,-29 182.26,-32.5001 182.26,-25.5001"/>
</g>
<!-- Node3 -->
<g id="node3" class="node"><title>Node3</title>
<g id="a_node3"><a xlink:href="class_ogre_1_1_g_l_s_l_e_s_link_program.html" target="_top" xlink:title="C++ encapsulation of GLSL ES Program Object. ">
<polygon fill="none" stroke="black" points="410,-38.5 410,-57.5 547,-57.5 547,-38.5 410,-38.5"/>
<text text-anchor="middle" x="478.5" y="-45.5" font-family="Helvetica,sans-Serif" font-size="10.00">Ogre::GLSLESLinkProgram</text>
</a>
</g>
</g>
<!-- Node2&#45;&gt;Node3 -->
<g id="edge2" class="edge"><title>Node2&#45;&gt;Node3</title>
<path fill="none" stroke="midnightblue" d="M376.42,-37.8653C387.636,-38.9899 398.971,-40.1264 409.793,-41.2114"/>
<polygon fill="midnightblue" stroke="midnightblue" points="376.47,-34.3529 366.171,-36.8377 375.772,-41.318 376.47,-34.3529"/>
</g>
<!-- Node4 -->
<g id="node4" class="node"><title>Node4</title>
<g id="a_node4"><a xlink:href="class_ogre_1_1_g_l_s_l_e_s_program_pipeline.html" target="_top" xlink:title="Specialisation of HighLevelGpuProgram to provide support for OpenGL Shader Language (GLSL ES) for Ope...">
<polygon fill="none" stroke="black" points="402,-0.5 402,-19.5 555,-19.5 555,-0.5 402,-0.5"/>
<text text-anchor="middle" x="478.5" y="-7.5" font-family="Helvetica,sans-Serif" font-size="10.00">Ogre::GLSLESProgramPipeline</text>
</a>
</g>
</g>
<!-- Node2&#45;&gt;Node4 -->
<g id="edge3" class="edge"><title>Node2&#45;&gt;Node4</title>
<path fill="none" stroke="midnightblue" d="M376.217,-20.155C384.817,-19.2927 393.49,-18.4232 401.949,-17.575"/>
<polygon fill="midnightblue" stroke="midnightblue" points="375.772,-16.682 366.171,-21.1623 376.47,-23.6471 375.772,-16.682"/>
</g>
</g>
</svg>
