<?xml version="1.0" encoding="UTF-8" standalone="no"?>
<!DOCTYPE svg PUBLIC "-//W3C//DTD SVG 1.1//EN"
 "http://www.w3.org/Graphics/SVG/1.1/DTD/svg11.dtd">
<!-- Generated by graphviz version 2.38.0 (20140413.2041)
 -->
<!-- Title: Graphical Class Hierarchy Pages: 1 -->
<svg width="496pt" height="39pt"
 viewBox="0.00 0.00 496.00 39.00" xmlns="http://www.w3.org/2000/svg" xmlns:xlink="http://www.w3.org/1999/xlink">
<g id="graph0" class="graph" transform="scale(1 1) rotate(0) translate(4 35)">
<title>Graphical Class Hierarchy</title>
<!-- Node1 -->
<g id="node1" class="node"><title>Node1</title>
<polygon fill="none" stroke="#bfbfbf" points="0,-0.5 0,-30.5 166,-30.5 166,-0.5 0,-0.5"/>
<text text-anchor="start" x="8" y="-18.5" font-family="Helvetica,sans-Serif" font-size="10.00">GLSLShaderCommon MANAGED</text>
<text text-anchor="middle" x="83" y="-7.5" font-family="Helvetica,sans-Serif" font-size="10.00">_RESOURCE</text>
</g>
<!-- Node2 -->
<g id="node2" class="node"><title>Node2</title>
<g id="a_node2"><a xlink:href="class_ogre_1_1_g_l_s_l_e_s_program.html" target="_top" xlink:title="Specialisation of HighLevelGpuProgram to provide support for OpenGL Shader Language (GLSL ES) for Ope...">
<polygon fill="none" stroke="black" points="202,-6 202,-25 321,-25 321,-6 202,-6"/>
<text text-anchor="middle" x="261.5" y="-13" font-family="Helvetica,sans-Serif" font-size="10.00">Ogre::GLSLESProgram</text>
</a>
</g>
</g>
<!-- Node1&#45;&gt;Node2 -->
<g id="edge1" class="edge"><title>Node1&#45;&gt;Node2</title>
<path fill="none" stroke="midnightblue" d="M176.244,-15.5C184.926,-15.5 193.556,-15.5 201.797,-15.5"/>
<polygon fill="midnightblue" stroke="midnightblue" points="176.05,-12.0001 166.049,-15.5 176.049,-19.0001 176.05,-12.0001"/>
</g>
<!-- Node3 -->
<g id="node3" class="node"><title>Node3</title>
<g id="a_node3"><a xlink:href="class_ogre_1_1_g_l_s_l_e_s_cg_program.html" target="_top" xlink:title="Specialisation of HighLevelGpuProgram to provide support for CG. ">
<polygon fill="none" stroke="black" points="357,-6 357,-25 488,-25 488,-6 357,-6"/>
<text text-anchor="middle" x="422.5" y="-13" font-family="Helvetica,sans-Serif" font-size="10.00">Ogre::GLSLESCgProgram</text>
</a>
</g>
</g>
<!-- Node2&#45;&gt;Node3 -->
<g id="edge2" class="edge"><title>Node2&#45;&gt;Node3</title>
<path fill="none" stroke="midnightblue" d="M331.436,-15.5C339.87,-15.5 348.466,-15.5 356.835,-15.5"/>
<polygon fill="midnightblue" stroke="midnightblue" points="331.254,-12.0001 321.254,-15.5 331.254,-19.0001 331.254,-12.0001"/>
</g>
</g>
</svg>
