<?xml version="1.0" encoding="UTF-8" standalone="no"?>
<!DOCTYPE svg PUBLIC "-//W3C//DTD SVG 1.1//EN"
 "http://www.w3.org/Graphics/SVG/1.1/DTD/svg11.dtd">
<!-- Generated by graphviz version 2.38.0 (20140413.2041)
 -->
<!-- Title: Graphical Class Hierarchy Pages: 1 -->
<svg width="452pt" height="66pt"
 viewBox="0.00 0.00 452.00 66.00" xmlns="http://www.w3.org/2000/svg" xmlns:xlink="http://www.w3.org/1999/xlink">
<g id="graph0" class="graph" transform="scale(1 1) rotate(0) translate(4 62)">
<title>Graphical Class Hierarchy</title>
<!-- Node1 -->
<g id="node1" class="node"><title>Node1</title>
<polygon fill="none" stroke="#bfbfbf" points="0,-19.5 0,-38.5 118,-38.5 118,-19.5 0,-19.5"/>
<text text-anchor="middle" x="59" y="-26.5" font-family="Helvetica,sans-Serif" font-size="10.00">GLSLProgramCommon</text>
</g>
<!-- Node2 -->
<g id="node2" class="node"><title>Node2</title>
<g id="a_node2"><a xlink:href="class_ogre_1_1_g_l_s_l_program.html" target="_top" xlink:title="C++ encapsulation of GLSL program object. ">
<polygon fill="none" stroke="black" points="154,-19.5 154,-38.5 259,-38.5 259,-19.5 154,-19.5"/>
<text text-anchor="middle" x="206.5" y="-26.5" font-family="Helvetica,sans-Serif" font-size="10.00">Ogre::GLSLProgram</text>
</a>
</g>
</g>
<!-- Node1&#45;&gt;Node2 -->
<g id="edge1" class="edge"><title>Node1&#45;&gt;Node2</title>
<path fill="none" stroke="midnightblue" d="M128.588,-29C137.044,-29 145.575,-29 153.722,-29"/>
<polygon fill="midnightblue" stroke="midnightblue" points="128.342,-25.5001 118.342,-29 128.342,-32.5001 128.342,-25.5001"/>
</g>
<!-- Node3 -->
<g id="node3" class="node"><title>Node3</title>
<g id="a_node3"><a xlink:href="class_ogre_1_1_g_l_s_l_monolithic_program.html" target="_top" xlink:title="Model of OpenGL program object created using the glLinkProgram method of linking. ...">
<polygon fill="none" stroke="black" points="295,-38.5 295,-57.5 444,-57.5 444,-38.5 295,-38.5"/>
<text text-anchor="middle" x="369.5" y="-45.5" font-family="Helvetica,sans-Serif" font-size="10.00">Ogre::GLSLMonolithicProgram</text>
</a>
</g>
</g>
<!-- Node2&#45;&gt;Node3 -->
<g id="edge2" class="edge"><title>Node2&#45;&gt;Node3</title>
<path fill="none" stroke="midnightblue" d="M269.324,-36.2961C277.656,-37.2793 286.27,-38.2959 294.782,-39.3004"/>
<polygon fill="midnightblue" stroke="midnightblue" points="269.669,-32.8125 259.328,-35.1163 268.848,-39.7643 269.669,-32.8125"/>
</g>
<!-- Node4 -->
<g id="node4" class="node"><title>Node4</title>
<g id="a_node4"><a xlink:href="class_ogre_1_1_g_l_s_l_separable_program.html" target="_top" xlink:title="Specialisation of GLSLProgram to provide support for separable programs via the OpenGL program pipeli...">
<polygon fill="none" stroke="black" points="295,-0.5 295,-19.5 444,-19.5 444,-0.5 295,-0.5"/>
<text text-anchor="middle" x="369.5" y="-7.5" font-family="Helvetica,sans-Serif" font-size="10.00">Ogre::GLSLSeparableProgram</text>
</a>
</g>
</g>
<!-- Node2&#45;&gt;Node4 -->
<g id="edge3" class="edge"><title>Node2&#45;&gt;Node4</title>
<path fill="none" stroke="midnightblue" d="M269.324,-21.7039C277.656,-20.7207 286.27,-19.7041 294.782,-18.6996"/>
<polygon fill="midnightblue" stroke="midnightblue" points="268.848,-18.2357 259.328,-22.8837 269.669,-25.1875 268.848,-18.2357"/>
</g>
</g>
</svg>
